%TF.GenerationSoftware,KiCad,Pcbnew,7.0.7*%
%TF.CreationDate,2024-02-22T22:38:35+05:30*%
%TF.ProjectId,Digital_Diya,44696769-7461-46c5-9f44-6979612e6b69,rev?*%
%TF.SameCoordinates,Original*%
%TF.FileFunction,Legend,Bot*%
%TF.FilePolarity,Positive*%
%FSLAX46Y46*%
G04 Gerber Fmt 4.6, Leading zero omitted, Abs format (unit mm)*
G04 Created by KiCad (PCBNEW 7.0.7) date 2024-02-22 22:38:35*
%MOMM*%
%LPD*%
G01*
G04 APERTURE LIST*
%ADD10C,0.010000*%
G04 APERTURE END LIST*
%TO.C,REF\u002A\u002A*%
D10*
X138095406Y-63234949D02*
X138121127Y-63250647D01*
X138147778Y-63272227D01*
X138147778Y-63919684D01*
X138121127Y-63941264D01*
X138089767Y-63958739D01*
X138053966Y-63959575D01*
X138022528Y-63939082D01*
X138018652Y-63934416D01*
X138013186Y-63924949D01*
X138008979Y-63911267D01*
X138005867Y-63890748D01*
X138003687Y-63860768D01*
X138002276Y-63818704D01*
X138001471Y-63761932D01*
X138001107Y-63687830D01*
X138001022Y-63593773D01*
X138001022Y-63272227D01*
X138027673Y-63250647D01*
X138051386Y-63235877D01*
X138074400Y-63229067D01*
X138095406Y-63234949D01*
G36*
X138095406Y-63234949D02*
G01*
X138121127Y-63250647D01*
X138147778Y-63272227D01*
X138147778Y-63919684D01*
X138121127Y-63941264D01*
X138089767Y-63958739D01*
X138053966Y-63959575D01*
X138022528Y-63939082D01*
X138018652Y-63934416D01*
X138013186Y-63924949D01*
X138008979Y-63911267D01*
X138005867Y-63890748D01*
X138003687Y-63860768D01*
X138002276Y-63818704D01*
X138001471Y-63761932D01*
X138001107Y-63687830D01*
X138001022Y-63593773D01*
X138001022Y-63272227D01*
X138027673Y-63250647D01*
X138051386Y-63235877D01*
X138074400Y-63229067D01*
X138095406Y-63234949D01*
G37*
X145226137Y-63233463D02*
X145260291Y-63256776D01*
X145288000Y-63284485D01*
X145288000Y-63597537D01*
X145287959Y-63681567D01*
X145287701Y-63755789D01*
X145287030Y-63812541D01*
X145285752Y-63854512D01*
X145283673Y-63884389D01*
X145280599Y-63904861D01*
X145276334Y-63918614D01*
X145270684Y-63928337D01*
X145263455Y-63936717D01*
X145231991Y-63958181D01*
X145196826Y-63959947D01*
X145163822Y-63940267D01*
X145158516Y-63934398D01*
X145153066Y-63925314D01*
X145148900Y-63911973D01*
X145145846Y-63891757D01*
X145143732Y-63862049D01*
X145142386Y-63820232D01*
X145141638Y-63763689D01*
X145141314Y-63689802D01*
X145141245Y-63595956D01*
X145141284Y-63520294D01*
X145141539Y-63442385D01*
X145142183Y-63382375D01*
X145143387Y-63337648D01*
X145145324Y-63305585D01*
X145148164Y-63283571D01*
X145152079Y-63268987D01*
X145157242Y-63259218D01*
X145163822Y-63251645D01*
X145193006Y-63232623D01*
X145226137Y-63233463D01*
G36*
X145226137Y-63233463D02*
G01*
X145260291Y-63256776D01*
X145288000Y-63284485D01*
X145288000Y-63597537D01*
X145287959Y-63681567D01*
X145287701Y-63755789D01*
X145287030Y-63812541D01*
X145285752Y-63854512D01*
X145283673Y-63884389D01*
X145280599Y-63904861D01*
X145276334Y-63918614D01*
X145270684Y-63928337D01*
X145263455Y-63936717D01*
X145231991Y-63958181D01*
X145196826Y-63959947D01*
X145163822Y-63940267D01*
X145158516Y-63934398D01*
X145153066Y-63925314D01*
X145148900Y-63911973D01*
X145145846Y-63891757D01*
X145143732Y-63862049D01*
X145142386Y-63820232D01*
X145141638Y-63763689D01*
X145141314Y-63689802D01*
X145141245Y-63595956D01*
X145141284Y-63520294D01*
X145141539Y-63442385D01*
X145142183Y-63382375D01*
X145143387Y-63337648D01*
X145145324Y-63305585D01*
X145148164Y-63283571D01*
X145152079Y-63268987D01*
X145157242Y-63259218D01*
X145163822Y-63251645D01*
X145193006Y-63232623D01*
X145226137Y-63233463D01*
G37*
X144694562Y-57992850D02*
X144777313Y-58020053D01*
X144852406Y-58065484D01*
X144924298Y-58131302D01*
X144962846Y-58175567D01*
X145002256Y-58233961D01*
X145027446Y-58294586D01*
X145040861Y-58363865D01*
X145044948Y-58448222D01*
X145044669Y-58494307D01*
X145042460Y-58535450D01*
X145036894Y-58567582D01*
X145026586Y-58598122D01*
X145010148Y-58634489D01*
X144996200Y-58661728D01*
X144937665Y-58747429D01*
X144865619Y-58816617D01*
X144781947Y-58867741D01*
X144688531Y-58899250D01*
X144655434Y-58906225D01*
X144614960Y-58913094D01*
X144581999Y-58914919D01*
X144547698Y-58911947D01*
X144503200Y-58904426D01*
X144451934Y-58892002D01*
X144361434Y-58854112D01*
X144282345Y-58799836D01*
X144216528Y-58731770D01*
X144165840Y-58652511D01*
X144132140Y-58564654D01*
X144117286Y-58470795D01*
X144123136Y-58373530D01*
X144149399Y-58277220D01*
X144194418Y-58188494D01*
X144255373Y-58113419D01*
X144330184Y-58053641D01*
X144416768Y-58010809D01*
X144513043Y-57986571D01*
X144616928Y-57982576D01*
X144694562Y-57992850D01*
G36*
X144694562Y-57992850D02*
G01*
X144777313Y-58020053D01*
X144852406Y-58065484D01*
X144924298Y-58131302D01*
X144962846Y-58175567D01*
X145002256Y-58233961D01*
X145027446Y-58294586D01*
X145040861Y-58363865D01*
X145044948Y-58448222D01*
X145044669Y-58494307D01*
X145042460Y-58535450D01*
X145036894Y-58567582D01*
X145026586Y-58598122D01*
X145010148Y-58634489D01*
X144996200Y-58661728D01*
X144937665Y-58747429D01*
X144865619Y-58816617D01*
X144781947Y-58867741D01*
X144688531Y-58899250D01*
X144655434Y-58906225D01*
X144614960Y-58913094D01*
X144581999Y-58914919D01*
X144547698Y-58911947D01*
X144503200Y-58904426D01*
X144451934Y-58892002D01*
X144361434Y-58854112D01*
X144282345Y-58799836D01*
X144216528Y-58731770D01*
X144165840Y-58652511D01*
X144132140Y-58564654D01*
X144117286Y-58470795D01*
X144123136Y-58373530D01*
X144149399Y-58277220D01*
X144194418Y-58188494D01*
X144255373Y-58113419D01*
X144330184Y-58053641D01*
X144416768Y-58010809D01*
X144513043Y-57986571D01*
X144616928Y-57982576D01*
X144694562Y-57992850D01*
G37*
X137395767Y-63229068D02*
X137489890Y-63229158D01*
X137564405Y-63229498D01*
X137621811Y-63230239D01*
X137664611Y-63231535D01*
X137695304Y-63233537D01*
X137716391Y-63236396D01*
X137730373Y-63240266D01*
X137739750Y-63245298D01*
X137747022Y-63251645D01*
X137765828Y-63284362D01*
X137767275Y-63321939D01*
X137750917Y-63355178D01*
X137749557Y-63356631D01*
X137738354Y-63364992D01*
X137721252Y-63370547D01*
X137694082Y-63373840D01*
X137652678Y-63375418D01*
X137592873Y-63375822D01*
X137453511Y-63375822D01*
X137453511Y-63639589D01*
X137453436Y-63715417D01*
X137453028Y-63782083D01*
X137452046Y-63831867D01*
X137450250Y-63867784D01*
X137447399Y-63892850D01*
X137443253Y-63910081D01*
X137437571Y-63922492D01*
X137430114Y-63933100D01*
X137427824Y-63935906D01*
X137396646Y-63958548D01*
X137362266Y-63960112D01*
X137329334Y-63940267D01*
X137322355Y-63932191D01*
X137316883Y-63921593D01*
X137312863Y-63905749D01*
X137310072Y-63881773D01*
X137308288Y-63846774D01*
X137307289Y-63797864D01*
X137306852Y-63732154D01*
X137306756Y-63646756D01*
X137306756Y-63375822D01*
X137160820Y-63375822D01*
X137149720Y-63375821D01*
X137093202Y-63375596D01*
X137054358Y-63374457D01*
X137028965Y-63371657D01*
X137012804Y-63366450D01*
X137001652Y-63358089D01*
X136991289Y-63345826D01*
X136975441Y-63315138D01*
X136978543Y-63281358D01*
X137004187Y-63248822D01*
X137009129Y-63245105D01*
X137019338Y-63240269D01*
X137034764Y-63236506D01*
X137057886Y-63233683D01*
X137091183Y-63231670D01*
X137137137Y-63230333D01*
X137198228Y-63229542D01*
X137276935Y-63229163D01*
X137375740Y-63229067D01*
X137395767Y-63229068D01*
G36*
X137395767Y-63229068D02*
G01*
X137489890Y-63229158D01*
X137564405Y-63229498D01*
X137621811Y-63230239D01*
X137664611Y-63231535D01*
X137695304Y-63233537D01*
X137716391Y-63236396D01*
X137730373Y-63240266D01*
X137739750Y-63245298D01*
X137747022Y-63251645D01*
X137765828Y-63284362D01*
X137767275Y-63321939D01*
X137750917Y-63355178D01*
X137749557Y-63356631D01*
X137738354Y-63364992D01*
X137721252Y-63370547D01*
X137694082Y-63373840D01*
X137652678Y-63375418D01*
X137592873Y-63375822D01*
X137453511Y-63375822D01*
X137453511Y-63639589D01*
X137453436Y-63715417D01*
X137453028Y-63782083D01*
X137452046Y-63831867D01*
X137450250Y-63867784D01*
X137447399Y-63892850D01*
X137443253Y-63910081D01*
X137437571Y-63922492D01*
X137430114Y-63933100D01*
X137427824Y-63935906D01*
X137396646Y-63958548D01*
X137362266Y-63960112D01*
X137329334Y-63940267D01*
X137322355Y-63932191D01*
X137316883Y-63921593D01*
X137312863Y-63905749D01*
X137310072Y-63881773D01*
X137308288Y-63846774D01*
X137307289Y-63797864D01*
X137306852Y-63732154D01*
X137306756Y-63646756D01*
X137306756Y-63375822D01*
X137160820Y-63375822D01*
X137149720Y-63375821D01*
X137093202Y-63375596D01*
X137054358Y-63374457D01*
X137028965Y-63371657D01*
X137012804Y-63366450D01*
X137001652Y-63358089D01*
X136991289Y-63345826D01*
X136975441Y-63315138D01*
X136978543Y-63281358D01*
X137004187Y-63248822D01*
X137009129Y-63245105D01*
X137019338Y-63240269D01*
X137034764Y-63236506D01*
X137057886Y-63233683D01*
X137091183Y-63231670D01*
X137137137Y-63230333D01*
X137198228Y-63229542D01*
X137276935Y-63229163D01*
X137375740Y-63229067D01*
X137395767Y-63229068D01*
G37*
X136719734Y-63251645D02*
X136725366Y-63257835D01*
X136730456Y-63266041D01*
X136734543Y-63277817D01*
X136737721Y-63295276D01*
X136740087Y-63320530D01*
X136741738Y-63355690D01*
X136742769Y-63402869D01*
X136743277Y-63464177D01*
X136743359Y-63541727D01*
X136743109Y-63637631D01*
X136742625Y-63754000D01*
X136742557Y-63768175D01*
X136741971Y-63829937D01*
X136740648Y-63873620D01*
X136738103Y-63903001D01*
X136733848Y-63921855D01*
X136727396Y-63933959D01*
X136718262Y-63943089D01*
X136684804Y-63960506D01*
X136649856Y-63957604D01*
X136618953Y-63933100D01*
X136609944Y-63919897D01*
X136602492Y-63901361D01*
X136598124Y-63875333D01*
X136596069Y-63836787D01*
X136595556Y-63780700D01*
X136595556Y-63658045D01*
X136098845Y-63658045D01*
X136098845Y-63792871D01*
X136098772Y-63828662D01*
X136098009Y-63874992D01*
X136095833Y-63905526D01*
X136091536Y-63924557D01*
X136084412Y-63936374D01*
X136073755Y-63945271D01*
X136041504Y-63960341D01*
X136006217Y-63957673D01*
X135975486Y-63933100D01*
X135970831Y-63926845D01*
X135964895Y-63916321D01*
X135960364Y-63902391D01*
X135957048Y-63882317D01*
X135954759Y-63853360D01*
X135953308Y-63812780D01*
X135952505Y-63757840D01*
X135952162Y-63685799D01*
X135952089Y-63593920D01*
X135952089Y-63284485D01*
X135979798Y-63256776D01*
X136011177Y-63234533D01*
X136044406Y-63231844D01*
X136076267Y-63251645D01*
X136084553Y-63261415D01*
X136091965Y-63277307D01*
X136096302Y-63301275D01*
X136098338Y-63338148D01*
X136098845Y-63392756D01*
X136098845Y-63511289D01*
X136595556Y-63511289D01*
X136595556Y-63395776D01*
X136595994Y-63344078D01*
X136597958Y-63309554D01*
X136602474Y-63286978D01*
X136610567Y-63271126D01*
X136623265Y-63256776D01*
X136654643Y-63234533D01*
X136687872Y-63231844D01*
X136719734Y-63251645D01*
G36*
X136719734Y-63251645D02*
G01*
X136725366Y-63257835D01*
X136730456Y-63266041D01*
X136734543Y-63277817D01*
X136737721Y-63295276D01*
X136740087Y-63320530D01*
X136741738Y-63355690D01*
X136742769Y-63402869D01*
X136743277Y-63464177D01*
X136743359Y-63541727D01*
X136743109Y-63637631D01*
X136742625Y-63754000D01*
X136742557Y-63768175D01*
X136741971Y-63829937D01*
X136740648Y-63873620D01*
X136738103Y-63903001D01*
X136733848Y-63921855D01*
X136727396Y-63933959D01*
X136718262Y-63943089D01*
X136684804Y-63960506D01*
X136649856Y-63957604D01*
X136618953Y-63933100D01*
X136609944Y-63919897D01*
X136602492Y-63901361D01*
X136598124Y-63875333D01*
X136596069Y-63836787D01*
X136595556Y-63780700D01*
X136595556Y-63658045D01*
X136098845Y-63658045D01*
X136098845Y-63792871D01*
X136098772Y-63828662D01*
X136098009Y-63874992D01*
X136095833Y-63905526D01*
X136091536Y-63924557D01*
X136084412Y-63936374D01*
X136073755Y-63945271D01*
X136041504Y-63960341D01*
X136006217Y-63957673D01*
X135975486Y-63933100D01*
X135970831Y-63926845D01*
X135964895Y-63916321D01*
X135960364Y-63902391D01*
X135957048Y-63882317D01*
X135954759Y-63853360D01*
X135953308Y-63812780D01*
X135952505Y-63757840D01*
X135952162Y-63685799D01*
X135952089Y-63593920D01*
X135952089Y-63284485D01*
X135979798Y-63256776D01*
X136011177Y-63234533D01*
X136044406Y-63231844D01*
X136076267Y-63251645D01*
X136084553Y-63261415D01*
X136091965Y-63277307D01*
X136096302Y-63301275D01*
X136098338Y-63338148D01*
X136098845Y-63392756D01*
X136098845Y-63511289D01*
X136595556Y-63511289D01*
X136595556Y-63395776D01*
X136595994Y-63344078D01*
X136597958Y-63309554D01*
X136602474Y-63286978D01*
X136610567Y-63271126D01*
X136623265Y-63256776D01*
X136654643Y-63234533D01*
X136687872Y-63231844D01*
X136719734Y-63251645D01*
G37*
X141425133Y-63840396D02*
X141423163Y-63873175D01*
X141420235Y-63896095D01*
X141416158Y-63911897D01*
X141410743Y-63923319D01*
X141403803Y-63933100D01*
X141380406Y-63962845D01*
X141214714Y-63962251D01*
X141179918Y-63961953D01*
X141081435Y-63958522D01*
X141000473Y-63950839D01*
X140933379Y-63938282D01*
X140876496Y-63920227D01*
X140826169Y-63896052D01*
X140822810Y-63894135D01*
X140764998Y-63857417D01*
X140722644Y-63820451D01*
X140689828Y-63776966D01*
X140660628Y-63720689D01*
X140656346Y-63711073D01*
X140633769Y-63647887D01*
X140628034Y-63602333D01*
X140777279Y-63602333D01*
X140782892Y-63627061D01*
X140788618Y-63642939D01*
X140821548Y-63702847D01*
X140868886Y-63748600D01*
X140932652Y-63781736D01*
X141014861Y-63803790D01*
X141017655Y-63804292D01*
X141063940Y-63810255D01*
X141120336Y-63814483D01*
X141175274Y-63816089D01*
X141269156Y-63816089D01*
X141269156Y-63375822D01*
X141181667Y-63376270D01*
X141114747Y-63378746D01*
X141022349Y-63389998D01*
X140943034Y-63409537D01*
X140881060Y-63436511D01*
X140850120Y-63457240D01*
X140822000Y-63487006D01*
X140798660Y-63529434D01*
X140791533Y-63545400D01*
X140779709Y-63577902D01*
X140777279Y-63602333D01*
X140628034Y-63602333D01*
X140626797Y-63592509D01*
X140635399Y-63537483D01*
X140659541Y-63475351D01*
X140660337Y-63473658D01*
X140700788Y-63404236D01*
X140751473Y-63347638D01*
X140814198Y-63303070D01*
X140890774Y-63269741D01*
X140983009Y-63246861D01*
X141092712Y-63233636D01*
X141221691Y-63229275D01*
X141225263Y-63229270D01*
X141285283Y-63229410D01*
X141327214Y-63230446D01*
X141355328Y-63233040D01*
X141373897Y-63237853D01*
X141387194Y-63245544D01*
X141399491Y-63256776D01*
X141427200Y-63284485D01*
X141427200Y-63593920D01*
X141427175Y-63655526D01*
X141426950Y-63734311D01*
X141426332Y-63795021D01*
X141425775Y-63816089D01*
X141425133Y-63840396D01*
G36*
X141425133Y-63840396D02*
G01*
X141423163Y-63873175D01*
X141420235Y-63896095D01*
X141416158Y-63911897D01*
X141410743Y-63923319D01*
X141403803Y-63933100D01*
X141380406Y-63962845D01*
X141214714Y-63962251D01*
X141179918Y-63961953D01*
X141081435Y-63958522D01*
X141000473Y-63950839D01*
X140933379Y-63938282D01*
X140876496Y-63920227D01*
X140826169Y-63896052D01*
X140822810Y-63894135D01*
X140764998Y-63857417D01*
X140722644Y-63820451D01*
X140689828Y-63776966D01*
X140660628Y-63720689D01*
X140656346Y-63711073D01*
X140633769Y-63647887D01*
X140628034Y-63602333D01*
X140777279Y-63602333D01*
X140782892Y-63627061D01*
X140788618Y-63642939D01*
X140821548Y-63702847D01*
X140868886Y-63748600D01*
X140932652Y-63781736D01*
X141014861Y-63803790D01*
X141017655Y-63804292D01*
X141063940Y-63810255D01*
X141120336Y-63814483D01*
X141175274Y-63816089D01*
X141269156Y-63816089D01*
X141269156Y-63375822D01*
X141181667Y-63376270D01*
X141114747Y-63378746D01*
X141022349Y-63389998D01*
X140943034Y-63409537D01*
X140881060Y-63436511D01*
X140850120Y-63457240D01*
X140822000Y-63487006D01*
X140798660Y-63529434D01*
X140791533Y-63545400D01*
X140779709Y-63577902D01*
X140777279Y-63602333D01*
X140628034Y-63602333D01*
X140626797Y-63592509D01*
X140635399Y-63537483D01*
X140659541Y-63475351D01*
X140660337Y-63473658D01*
X140700788Y-63404236D01*
X140751473Y-63347638D01*
X140814198Y-63303070D01*
X140890774Y-63269741D01*
X140983009Y-63246861D01*
X141092712Y-63233636D01*
X141221691Y-63229275D01*
X141225263Y-63229270D01*
X141285283Y-63229410D01*
X141327214Y-63230446D01*
X141355328Y-63233040D01*
X141373897Y-63237853D01*
X141387194Y-63245544D01*
X141399491Y-63256776D01*
X141427200Y-63284485D01*
X141427200Y-63593920D01*
X141427175Y-63655526D01*
X141426950Y-63734311D01*
X141426332Y-63795021D01*
X141425775Y-63816089D01*
X141425133Y-63840396D01*
G37*
X148516817Y-63414427D02*
X148516870Y-63495041D01*
X148516622Y-63595956D01*
X148516583Y-63671617D01*
X148516328Y-63749526D01*
X148515684Y-63809536D01*
X148514480Y-63854264D01*
X148512543Y-63886326D01*
X148509703Y-63908340D01*
X148505788Y-63922924D01*
X148500626Y-63932694D01*
X148494045Y-63940267D01*
X148487077Y-63946501D01*
X148474079Y-63953801D01*
X148454931Y-63958554D01*
X148425528Y-63961292D01*
X148381762Y-63962545D01*
X148319528Y-63962845D01*
X148270582Y-63962469D01*
X148163722Y-63958041D01*
X148074494Y-63947953D01*
X147999696Y-63931365D01*
X147936125Y-63907435D01*
X147880579Y-63875321D01*
X147829854Y-63834182D01*
X147823866Y-63828330D01*
X147786999Y-63779821D01*
X147755899Y-63719013D01*
X147734417Y-63654769D01*
X147729136Y-63616026D01*
X147876353Y-63616026D01*
X147894635Y-63666961D01*
X147924305Y-63712878D01*
X147971002Y-63755287D01*
X148032392Y-63785090D01*
X148111538Y-63804226D01*
X148113028Y-63804464D01*
X148161999Y-63810256D01*
X148220693Y-63814396D01*
X148276734Y-63816004D01*
X148369867Y-63816089D01*
X148369867Y-63375822D01*
X148293667Y-63375808D01*
X148290639Y-63375817D01*
X148239519Y-63377782D01*
X148179416Y-63382507D01*
X148122708Y-63389035D01*
X148072750Y-63398331D01*
X147997998Y-63424600D01*
X147940489Y-63463899D01*
X147898988Y-63516933D01*
X147877771Y-63568200D01*
X147876353Y-63616026D01*
X147729136Y-63616026D01*
X147726400Y-63595956D01*
X147727679Y-63574739D01*
X147739991Y-63517323D01*
X147762520Y-63457413D01*
X147791750Y-63403363D01*
X147824167Y-63363532D01*
X147843708Y-63346510D01*
X147898420Y-63307322D01*
X147958723Y-63277193D01*
X148027919Y-63255232D01*
X148109311Y-63240550D01*
X148206200Y-63232259D01*
X148321889Y-63229467D01*
X148361371Y-63229066D01*
X148407082Y-63228653D01*
X148442883Y-63230457D01*
X148469974Y-63236739D01*
X148489556Y-63249759D01*
X148502830Y-63271778D01*
X148510998Y-63305055D01*
X148515260Y-63351851D01*
X148515857Y-63375822D01*
X148516817Y-63414427D01*
G36*
X148516817Y-63414427D02*
G01*
X148516870Y-63495041D01*
X148516622Y-63595956D01*
X148516583Y-63671617D01*
X148516328Y-63749526D01*
X148515684Y-63809536D01*
X148514480Y-63854264D01*
X148512543Y-63886326D01*
X148509703Y-63908340D01*
X148505788Y-63922924D01*
X148500626Y-63932694D01*
X148494045Y-63940267D01*
X148487077Y-63946501D01*
X148474079Y-63953801D01*
X148454931Y-63958554D01*
X148425528Y-63961292D01*
X148381762Y-63962545D01*
X148319528Y-63962845D01*
X148270582Y-63962469D01*
X148163722Y-63958041D01*
X148074494Y-63947953D01*
X147999696Y-63931365D01*
X147936125Y-63907435D01*
X147880579Y-63875321D01*
X147829854Y-63834182D01*
X147823866Y-63828330D01*
X147786999Y-63779821D01*
X147755899Y-63719013D01*
X147734417Y-63654769D01*
X147729136Y-63616026D01*
X147876353Y-63616026D01*
X147894635Y-63666961D01*
X147924305Y-63712878D01*
X147971002Y-63755287D01*
X148032392Y-63785090D01*
X148111538Y-63804226D01*
X148113028Y-63804464D01*
X148161999Y-63810256D01*
X148220693Y-63814396D01*
X148276734Y-63816004D01*
X148369867Y-63816089D01*
X148369867Y-63375822D01*
X148293667Y-63375808D01*
X148290639Y-63375817D01*
X148239519Y-63377782D01*
X148179416Y-63382507D01*
X148122708Y-63389035D01*
X148072750Y-63398331D01*
X147997998Y-63424600D01*
X147940489Y-63463899D01*
X147898988Y-63516933D01*
X147877771Y-63568200D01*
X147876353Y-63616026D01*
X147729136Y-63616026D01*
X147726400Y-63595956D01*
X147727679Y-63574739D01*
X147739991Y-63517323D01*
X147762520Y-63457413D01*
X147791750Y-63403363D01*
X147824167Y-63363532D01*
X147843708Y-63346510D01*
X147898420Y-63307322D01*
X147958723Y-63277193D01*
X148027919Y-63255232D01*
X148109311Y-63240550D01*
X148206200Y-63232259D01*
X148321889Y-63229467D01*
X148361371Y-63229066D01*
X148407082Y-63228653D01*
X148442883Y-63230457D01*
X148469974Y-63236739D01*
X148489556Y-63249759D01*
X148502830Y-63271778D01*
X148510998Y-63305055D01*
X148515260Y-63351851D01*
X148515857Y-63375822D01*
X148516817Y-63414427D01*
G37*
X143571893Y-63227892D02*
X143583301Y-63234029D01*
X143593850Y-63244691D01*
X143605136Y-63258811D01*
X143609589Y-63264772D01*
X143615588Y-63275268D01*
X143620167Y-63289093D01*
X143623519Y-63308998D01*
X143625833Y-63337732D01*
X143627301Y-63378045D01*
X143628113Y-63432687D01*
X143628460Y-63504407D01*
X143628534Y-63595956D01*
X143628511Y-63654486D01*
X143628292Y-63733573D01*
X143627683Y-63794516D01*
X143626492Y-63840062D01*
X143624529Y-63872963D01*
X143621603Y-63895968D01*
X143617523Y-63911826D01*
X143612097Y-63923286D01*
X143605136Y-63933100D01*
X143574708Y-63957493D01*
X143539765Y-63960372D01*
X143502784Y-63941282D01*
X143498600Y-63937807D01*
X143490424Y-63929279D01*
X143484364Y-63917728D01*
X143479981Y-63899896D01*
X143476839Y-63872524D01*
X143474502Y-63832354D01*
X143472531Y-63776128D01*
X143470489Y-63700589D01*
X143464845Y-63481458D01*
X143199556Y-63722099D01*
X143125722Y-63788875D01*
X143060542Y-63846991D01*
X143008348Y-63891949D01*
X142967273Y-63924871D01*
X142935455Y-63946879D01*
X142911026Y-63959094D01*
X142892124Y-63962639D01*
X142876883Y-63958636D01*
X142863439Y-63948207D01*
X142849927Y-63932474D01*
X142843682Y-63923991D01*
X142838050Y-63913413D01*
X142833839Y-63899255D01*
X142830887Y-63878803D01*
X142829032Y-63849342D01*
X142828113Y-63808161D01*
X142827968Y-63752544D01*
X142828435Y-63679779D01*
X142829352Y-63587151D01*
X142832667Y-63272199D01*
X142859318Y-63250633D01*
X142885383Y-63234441D01*
X142918241Y-63231670D01*
X142952772Y-63250623D01*
X142957084Y-63254208D01*
X142965216Y-63262737D01*
X142971245Y-63274329D01*
X142975606Y-63292235D01*
X142978734Y-63319706D01*
X142981063Y-63359994D01*
X142983029Y-63416351D01*
X142985067Y-63492029D01*
X142990711Y-63711878D01*
X143171334Y-63548084D01*
X143258072Y-63469451D01*
X143333843Y-63401058D01*
X143395980Y-63345708D01*
X143446078Y-63302338D01*
X143485735Y-63269881D01*
X143516548Y-63247273D01*
X143540114Y-63233448D01*
X143558030Y-63227343D01*
X143571893Y-63227892D01*
G36*
X143571893Y-63227892D02*
G01*
X143583301Y-63234029D01*
X143593850Y-63244691D01*
X143605136Y-63258811D01*
X143609589Y-63264772D01*
X143615588Y-63275268D01*
X143620167Y-63289093D01*
X143623519Y-63308998D01*
X143625833Y-63337732D01*
X143627301Y-63378045D01*
X143628113Y-63432687D01*
X143628460Y-63504407D01*
X143628534Y-63595956D01*
X143628511Y-63654486D01*
X143628292Y-63733573D01*
X143627683Y-63794516D01*
X143626492Y-63840062D01*
X143624529Y-63872963D01*
X143621603Y-63895968D01*
X143617523Y-63911826D01*
X143612097Y-63923286D01*
X143605136Y-63933100D01*
X143574708Y-63957493D01*
X143539765Y-63960372D01*
X143502784Y-63941282D01*
X143498600Y-63937807D01*
X143490424Y-63929279D01*
X143484364Y-63917728D01*
X143479981Y-63899896D01*
X143476839Y-63872524D01*
X143474502Y-63832354D01*
X143472531Y-63776128D01*
X143470489Y-63700589D01*
X143464845Y-63481458D01*
X143199556Y-63722099D01*
X143125722Y-63788875D01*
X143060542Y-63846991D01*
X143008348Y-63891949D01*
X142967273Y-63924871D01*
X142935455Y-63946879D01*
X142911026Y-63959094D01*
X142892124Y-63962639D01*
X142876883Y-63958636D01*
X142863439Y-63948207D01*
X142849927Y-63932474D01*
X142843682Y-63923991D01*
X142838050Y-63913413D01*
X142833839Y-63899255D01*
X142830887Y-63878803D01*
X142829032Y-63849342D01*
X142828113Y-63808161D01*
X142827968Y-63752544D01*
X142828435Y-63679779D01*
X142829352Y-63587151D01*
X142832667Y-63272199D01*
X142859318Y-63250633D01*
X142885383Y-63234441D01*
X142918241Y-63231670D01*
X142952772Y-63250623D01*
X142957084Y-63254208D01*
X142965216Y-63262737D01*
X142971245Y-63274329D01*
X142975606Y-63292235D01*
X142978734Y-63319706D01*
X142981063Y-63359994D01*
X142983029Y-63416351D01*
X142985067Y-63492029D01*
X142990711Y-63711878D01*
X143171334Y-63548084D01*
X143258072Y-63469451D01*
X143333843Y-63401058D01*
X143395980Y-63345708D01*
X143446078Y-63302338D01*
X143485735Y-63269881D01*
X143516548Y-63247273D01*
X143540114Y-63233448D01*
X143558030Y-63227343D01*
X143571893Y-63227892D01*
G37*
X144369150Y-63234179D02*
X144475157Y-63250494D01*
X144568969Y-63278545D01*
X144647765Y-63317452D01*
X144708719Y-63366334D01*
X144734789Y-63399195D01*
X144764297Y-63448394D01*
X144789568Y-63502252D01*
X144807218Y-63553419D01*
X144813858Y-63594544D01*
X144812298Y-63614259D01*
X144799357Y-63665592D01*
X144776194Y-63722118D01*
X144746302Y-63776035D01*
X144713173Y-63819539D01*
X144702977Y-63829887D01*
X144635892Y-63881662D01*
X144555766Y-63921554D01*
X144469556Y-63945956D01*
X144414592Y-63954068D01*
X144321139Y-63960673D01*
X144231358Y-63958586D01*
X144148869Y-63948340D01*
X144077286Y-63930470D01*
X144020228Y-63905508D01*
X143981311Y-63873988D01*
X143979936Y-63872012D01*
X143972848Y-63846786D01*
X143968609Y-63799535D01*
X143967200Y-63730071D01*
X143968060Y-63667838D01*
X143972780Y-63620456D01*
X143984470Y-63588353D01*
X144006239Y-63568800D01*
X144041198Y-63559070D01*
X144092456Y-63556433D01*
X144163123Y-63558161D01*
X144211743Y-63561173D01*
X144261939Y-63569366D01*
X144294433Y-63583419D01*
X144311892Y-63604654D01*
X144316983Y-63634394D01*
X144316877Y-63638936D01*
X144308175Y-63673730D01*
X144284165Y-63697147D01*
X144242900Y-63710347D01*
X144182431Y-63714489D01*
X144113956Y-63714489D01*
X144113956Y-63752841D01*
X144114006Y-63761976D01*
X144116227Y-63779227D01*
X144125494Y-63789521D01*
X144146875Y-63796459D01*
X144185436Y-63803641D01*
X144190910Y-63804575D01*
X144287860Y-63814478D01*
X144377852Y-63811559D01*
X144458760Y-63796829D01*
X144528459Y-63771299D01*
X144584824Y-63735978D01*
X144625729Y-63691879D01*
X144649051Y-63640012D01*
X144652663Y-63581388D01*
X144647145Y-63552494D01*
X144620461Y-63496604D01*
X144574273Y-63450945D01*
X144509291Y-63416108D01*
X144426229Y-63392690D01*
X144401555Y-63388241D01*
X144312226Y-63377742D01*
X144232419Y-63378971D01*
X144154326Y-63391906D01*
X144119183Y-63398696D01*
X144073745Y-63399713D01*
X144042430Y-63387182D01*
X144022277Y-63360395D01*
X144015893Y-63332148D01*
X144025379Y-63300924D01*
X144034708Y-63287499D01*
X144068943Y-63263967D01*
X144121565Y-63246095D01*
X144190081Y-63234599D01*
X144272000Y-63230192D01*
X144369150Y-63234179D01*
G36*
X144369150Y-63234179D02*
G01*
X144475157Y-63250494D01*
X144568969Y-63278545D01*
X144647765Y-63317452D01*
X144708719Y-63366334D01*
X144734789Y-63399195D01*
X144764297Y-63448394D01*
X144789568Y-63502252D01*
X144807218Y-63553419D01*
X144813858Y-63594544D01*
X144812298Y-63614259D01*
X144799357Y-63665592D01*
X144776194Y-63722118D01*
X144746302Y-63776035D01*
X144713173Y-63819539D01*
X144702977Y-63829887D01*
X144635892Y-63881662D01*
X144555766Y-63921554D01*
X144469556Y-63945956D01*
X144414592Y-63954068D01*
X144321139Y-63960673D01*
X144231358Y-63958586D01*
X144148869Y-63948340D01*
X144077286Y-63930470D01*
X144020228Y-63905508D01*
X143981311Y-63873988D01*
X143979936Y-63872012D01*
X143972848Y-63846786D01*
X143968609Y-63799535D01*
X143967200Y-63730071D01*
X143968060Y-63667838D01*
X143972780Y-63620456D01*
X143984470Y-63588353D01*
X144006239Y-63568800D01*
X144041198Y-63559070D01*
X144092456Y-63556433D01*
X144163123Y-63558161D01*
X144211743Y-63561173D01*
X144261939Y-63569366D01*
X144294433Y-63583419D01*
X144311892Y-63604654D01*
X144316983Y-63634394D01*
X144316877Y-63638936D01*
X144308175Y-63673730D01*
X144284165Y-63697147D01*
X144242900Y-63710347D01*
X144182431Y-63714489D01*
X144113956Y-63714489D01*
X144113956Y-63752841D01*
X144114006Y-63761976D01*
X144116227Y-63779227D01*
X144125494Y-63789521D01*
X144146875Y-63796459D01*
X144185436Y-63803641D01*
X144190910Y-63804575D01*
X144287860Y-63814478D01*
X144377852Y-63811559D01*
X144458760Y-63796829D01*
X144528459Y-63771299D01*
X144584824Y-63735978D01*
X144625729Y-63691879D01*
X144649051Y-63640012D01*
X144652663Y-63581388D01*
X144647145Y-63552494D01*
X144620461Y-63496604D01*
X144574273Y-63450945D01*
X144509291Y-63416108D01*
X144426229Y-63392690D01*
X144401555Y-63388241D01*
X144312226Y-63377742D01*
X144232419Y-63378971D01*
X144154326Y-63391906D01*
X144119183Y-63398696D01*
X144073745Y-63399713D01*
X144042430Y-63387182D01*
X144022277Y-63360395D01*
X144015893Y-63332148D01*
X144025379Y-63300924D01*
X144034708Y-63287499D01*
X144068943Y-63263967D01*
X144121565Y-63246095D01*
X144190081Y-63234599D01*
X144272000Y-63230192D01*
X144369150Y-63234179D01*
G37*
X142419803Y-63258811D02*
X142424752Y-63265495D01*
X142430596Y-63276066D01*
X142435057Y-63290153D01*
X142438321Y-63310478D01*
X142440574Y-63339765D01*
X142442002Y-63380737D01*
X142442792Y-63436117D01*
X142443129Y-63508628D01*
X142443200Y-63600994D01*
X142443171Y-63666911D01*
X142442939Y-63745228D01*
X142442319Y-63805496D01*
X142441126Y-63850393D01*
X142439179Y-63882602D01*
X142436294Y-63904800D01*
X142432288Y-63919669D01*
X142426979Y-63929889D01*
X142420183Y-63938138D01*
X142415668Y-63942795D01*
X142407438Y-63949282D01*
X142396078Y-63954194D01*
X142378810Y-63957749D01*
X142352855Y-63960167D01*
X142315436Y-63961667D01*
X142263773Y-63962467D01*
X142195089Y-63962787D01*
X142106606Y-63962845D01*
X142086931Y-63962838D01*
X141999906Y-63962572D01*
X141932254Y-63961806D01*
X141881299Y-63960392D01*
X141844367Y-63958180D01*
X141818783Y-63955022D01*
X141801871Y-63950769D01*
X141790957Y-63945271D01*
X141780464Y-63935285D01*
X141767203Y-63904168D01*
X141768386Y-63868280D01*
X141784550Y-63836733D01*
X141786739Y-63834457D01*
X141795427Y-63828189D01*
X141808769Y-63823523D01*
X141829752Y-63820227D01*
X141861363Y-63818068D01*
X141906590Y-63816814D01*
X141968420Y-63816231D01*
X142049839Y-63816089D01*
X142296445Y-63816089D01*
X142296445Y-63658045D01*
X142134006Y-63658045D01*
X142098338Y-63657964D01*
X142042568Y-63657167D01*
X142003430Y-63655162D01*
X141976976Y-63651521D01*
X141959259Y-63645812D01*
X141946329Y-63637607D01*
X141942686Y-63634423D01*
X141924278Y-63603448D01*
X141923644Y-63567112D01*
X141941183Y-63533493D01*
X141941245Y-63533424D01*
X141950916Y-63524798D01*
X141964209Y-63518742D01*
X141984917Y-63514811D01*
X142016828Y-63512556D01*
X142063734Y-63511531D01*
X142129424Y-63511289D01*
X142297571Y-63511289D01*
X142294186Y-63446378D01*
X142290800Y-63381467D01*
X142048723Y-63378414D01*
X142023707Y-63378086D01*
X141942087Y-63376606D01*
X141879768Y-63374222D01*
X141834154Y-63370227D01*
X141802652Y-63363913D01*
X141782667Y-63354574D01*
X141771604Y-63341503D01*
X141766869Y-63323992D01*
X141765867Y-63301335D01*
X141765873Y-63298970D01*
X141767027Y-63278939D01*
X141771824Y-63263146D01*
X141782632Y-63251090D01*
X141801817Y-63242267D01*
X141831745Y-63236175D01*
X141874783Y-63232311D01*
X141933299Y-63230174D01*
X142009657Y-63229260D01*
X142106226Y-63229067D01*
X142396406Y-63229067D01*
X142419803Y-63258811D01*
G36*
X142419803Y-63258811D02*
G01*
X142424752Y-63265495D01*
X142430596Y-63276066D01*
X142435057Y-63290153D01*
X142438321Y-63310478D01*
X142440574Y-63339765D01*
X142442002Y-63380737D01*
X142442792Y-63436117D01*
X142443129Y-63508628D01*
X142443200Y-63600994D01*
X142443171Y-63666911D01*
X142442939Y-63745228D01*
X142442319Y-63805496D01*
X142441126Y-63850393D01*
X142439179Y-63882602D01*
X142436294Y-63904800D01*
X142432288Y-63919669D01*
X142426979Y-63929889D01*
X142420183Y-63938138D01*
X142415668Y-63942795D01*
X142407438Y-63949282D01*
X142396078Y-63954194D01*
X142378810Y-63957749D01*
X142352855Y-63960167D01*
X142315436Y-63961667D01*
X142263773Y-63962467D01*
X142195089Y-63962787D01*
X142106606Y-63962845D01*
X142086931Y-63962838D01*
X141999906Y-63962572D01*
X141932254Y-63961806D01*
X141881299Y-63960392D01*
X141844367Y-63958180D01*
X141818783Y-63955022D01*
X141801871Y-63950769D01*
X141790957Y-63945271D01*
X141780464Y-63935285D01*
X141767203Y-63904168D01*
X141768386Y-63868280D01*
X141784550Y-63836733D01*
X141786739Y-63834457D01*
X141795427Y-63828189D01*
X141808769Y-63823523D01*
X141829752Y-63820227D01*
X141861363Y-63818068D01*
X141906590Y-63816814D01*
X141968420Y-63816231D01*
X142049839Y-63816089D01*
X142296445Y-63816089D01*
X142296445Y-63658045D01*
X142134006Y-63658045D01*
X142098338Y-63657964D01*
X142042568Y-63657167D01*
X142003430Y-63655162D01*
X141976976Y-63651521D01*
X141959259Y-63645812D01*
X141946329Y-63637607D01*
X141942686Y-63634423D01*
X141924278Y-63603448D01*
X141923644Y-63567112D01*
X141941183Y-63533493D01*
X141941245Y-63533424D01*
X141950916Y-63524798D01*
X141964209Y-63518742D01*
X141984917Y-63514811D01*
X142016828Y-63512556D01*
X142063734Y-63511531D01*
X142129424Y-63511289D01*
X142297571Y-63511289D01*
X142294186Y-63446378D01*
X142290800Y-63381467D01*
X142048723Y-63378414D01*
X142023707Y-63378086D01*
X141942087Y-63376606D01*
X141879768Y-63374222D01*
X141834154Y-63370227D01*
X141802652Y-63363913D01*
X141782667Y-63354574D01*
X141771604Y-63341503D01*
X141766869Y-63323992D01*
X141765867Y-63301335D01*
X141765873Y-63298970D01*
X141767027Y-63278939D01*
X141771824Y-63263146D01*
X141782632Y-63251090D01*
X141801817Y-63242267D01*
X141831745Y-63236175D01*
X141874783Y-63232311D01*
X141933299Y-63230174D01*
X142009657Y-63229260D01*
X142106226Y-63229067D01*
X142396406Y-63229067D01*
X142419803Y-63258811D01*
G37*
X147096734Y-63229083D02*
X147173831Y-63229275D01*
X147232777Y-63229860D01*
X147276364Y-63231051D01*
X147307383Y-63233064D01*
X147328625Y-63236112D01*
X147342882Y-63240409D01*
X147352945Y-63246172D01*
X147361606Y-63253612D01*
X147363391Y-63255293D01*
X147370635Y-63262832D01*
X147376277Y-63271850D01*
X147380517Y-63284984D01*
X147383556Y-63304872D01*
X147385594Y-63334151D01*
X147386830Y-63375458D01*
X147387465Y-63431431D01*
X147387700Y-63504707D01*
X147387734Y-63597923D01*
X147387697Y-63670713D01*
X147387448Y-63748889D01*
X147386812Y-63809103D01*
X147385615Y-63853982D01*
X147383684Y-63886152D01*
X147380846Y-63908239D01*
X147376927Y-63922870D01*
X147371755Y-63932670D01*
X147365156Y-63940267D01*
X147361822Y-63943444D01*
X147353300Y-63949554D01*
X147341298Y-63954229D01*
X147323087Y-63957659D01*
X147295940Y-63960036D01*
X147257129Y-63961552D01*
X147203924Y-63962398D01*
X147133598Y-63962765D01*
X147043422Y-63962845D01*
X147001314Y-63962833D01*
X146920167Y-63962651D01*
X146857675Y-63962098D01*
X146811109Y-63960982D01*
X146777741Y-63959113D01*
X146754844Y-63956298D01*
X146739688Y-63952346D01*
X146729546Y-63947066D01*
X146721689Y-63940267D01*
X146706963Y-63918667D01*
X146699111Y-63889467D01*
X146704610Y-63865560D01*
X146721689Y-63838667D01*
X146726668Y-63834059D01*
X146736443Y-63827772D01*
X146750559Y-63823146D01*
X146772054Y-63819930D01*
X146803968Y-63817870D01*
X146849342Y-63816712D01*
X146911213Y-63816202D01*
X146992622Y-63816089D01*
X147240978Y-63816089D01*
X147240978Y-63658045D01*
X147079801Y-63658045D01*
X147043983Y-63657899D01*
X146978359Y-63656176D01*
X146931118Y-63651741D01*
X146899383Y-63643637D01*
X146880277Y-63630906D01*
X146870923Y-63612592D01*
X146868445Y-63587738D01*
X146869242Y-63567482D01*
X146874494Y-63545656D01*
X146887288Y-63530304D01*
X146910628Y-63520309D01*
X146947517Y-63514553D01*
X147000959Y-63511919D01*
X147073958Y-63511289D01*
X147242105Y-63511289D01*
X147238719Y-63446378D01*
X147235334Y-63381467D01*
X146987617Y-63378418D01*
X146925026Y-63377539D01*
X146856565Y-63376095D01*
X146805661Y-63374164D01*
X146769408Y-63371514D01*
X146744901Y-63367910D01*
X146729235Y-63363121D01*
X146719506Y-63356913D01*
X146713491Y-63350510D01*
X146700482Y-63318828D01*
X146704043Y-63283142D01*
X146723818Y-63252084D01*
X146727069Y-63249161D01*
X146736049Y-63242810D01*
X146748153Y-63237957D01*
X146766159Y-63234403D01*
X146792847Y-63231946D01*
X146830997Y-63230385D01*
X146883386Y-63229518D01*
X146952794Y-63229146D01*
X147042001Y-63229067D01*
X147096734Y-63229083D01*
G36*
X147096734Y-63229083D02*
G01*
X147173831Y-63229275D01*
X147232777Y-63229860D01*
X147276364Y-63231051D01*
X147307383Y-63233064D01*
X147328625Y-63236112D01*
X147342882Y-63240409D01*
X147352945Y-63246172D01*
X147361606Y-63253612D01*
X147363391Y-63255293D01*
X147370635Y-63262832D01*
X147376277Y-63271850D01*
X147380517Y-63284984D01*
X147383556Y-63304872D01*
X147385594Y-63334151D01*
X147386830Y-63375458D01*
X147387465Y-63431431D01*
X147387700Y-63504707D01*
X147387734Y-63597923D01*
X147387697Y-63670713D01*
X147387448Y-63748889D01*
X147386812Y-63809103D01*
X147385615Y-63853982D01*
X147383684Y-63886152D01*
X147380846Y-63908239D01*
X147376927Y-63922870D01*
X147371755Y-63932670D01*
X147365156Y-63940267D01*
X147361822Y-63943444D01*
X147353300Y-63949554D01*
X147341298Y-63954229D01*
X147323087Y-63957659D01*
X147295940Y-63960036D01*
X147257129Y-63961552D01*
X147203924Y-63962398D01*
X147133598Y-63962765D01*
X147043422Y-63962845D01*
X147001314Y-63962833D01*
X146920167Y-63962651D01*
X146857675Y-63962098D01*
X146811109Y-63960982D01*
X146777741Y-63959113D01*
X146754844Y-63956298D01*
X146739688Y-63952346D01*
X146729546Y-63947066D01*
X146721689Y-63940267D01*
X146706963Y-63918667D01*
X146699111Y-63889467D01*
X146704610Y-63865560D01*
X146721689Y-63838667D01*
X146726668Y-63834059D01*
X146736443Y-63827772D01*
X146750559Y-63823146D01*
X146772054Y-63819930D01*
X146803968Y-63817870D01*
X146849342Y-63816712D01*
X146911213Y-63816202D01*
X146992622Y-63816089D01*
X147240978Y-63816089D01*
X147240978Y-63658045D01*
X147079801Y-63658045D01*
X147043983Y-63657899D01*
X146978359Y-63656176D01*
X146931118Y-63651741D01*
X146899383Y-63643637D01*
X146880277Y-63630906D01*
X146870923Y-63612592D01*
X146868445Y-63587738D01*
X146869242Y-63567482D01*
X146874494Y-63545656D01*
X146887288Y-63530304D01*
X146910628Y-63520309D01*
X146947517Y-63514553D01*
X147000959Y-63511919D01*
X147073958Y-63511289D01*
X147242105Y-63511289D01*
X147238719Y-63446378D01*
X147235334Y-63381467D01*
X146987617Y-63378418D01*
X146925026Y-63377539D01*
X146856565Y-63376095D01*
X146805661Y-63374164D01*
X146769408Y-63371514D01*
X146744901Y-63367910D01*
X146729235Y-63363121D01*
X146719506Y-63356913D01*
X146713491Y-63350510D01*
X146700482Y-63318828D01*
X146704043Y-63283142D01*
X146723818Y-63252084D01*
X146727069Y-63249161D01*
X146736049Y-63242810D01*
X146748153Y-63237957D01*
X146766159Y-63234403D01*
X146792847Y-63231946D01*
X146830997Y-63230385D01*
X146883386Y-63229518D01*
X146952794Y-63229146D01*
X147042001Y-63229067D01*
X147096734Y-63229083D01*
G37*
X138529702Y-63238478D02*
X138547663Y-63256989D01*
X138568263Y-63288071D01*
X138593095Y-63333756D01*
X138623750Y-63396078D01*
X138661820Y-63477071D01*
X138676454Y-63508454D01*
X138706203Y-63571638D01*
X138732297Y-63626244D01*
X138753292Y-63669290D01*
X138767739Y-63697793D01*
X138774191Y-63708770D01*
X138775550Y-63708189D01*
X138785542Y-63694242D01*
X138802833Y-63664704D01*
X138825430Y-63623087D01*
X138851338Y-63572903D01*
X138867311Y-63541414D01*
X138896261Y-63486061D01*
X138918749Y-63447044D01*
X138936965Y-63421566D01*
X138953096Y-63406831D01*
X138969330Y-63400042D01*
X138987857Y-63398400D01*
X138998360Y-63398875D01*
X139014476Y-63403082D01*
X139029790Y-63413946D01*
X139046388Y-63434219D01*
X139066357Y-63466654D01*
X139091783Y-63514004D01*
X139124752Y-63579022D01*
X139134485Y-63598277D01*
X139158943Y-63644946D01*
X139179178Y-63681109D01*
X139193311Y-63703497D01*
X139199460Y-63708845D01*
X139200827Y-63705573D01*
X139210202Y-63684664D01*
X139227062Y-63647725D01*
X139249979Y-63597874D01*
X139277520Y-63538226D01*
X139308255Y-63471898D01*
X139334970Y-63414677D01*
X139364593Y-63352688D01*
X139387664Y-63306949D01*
X139405643Y-63274908D01*
X139419990Y-63254014D01*
X139432166Y-63241718D01*
X139443632Y-63235466D01*
X139453042Y-63232574D01*
X139478147Y-63232425D01*
X139505290Y-63247768D01*
X139506590Y-63248753D01*
X139528674Y-63271388D01*
X139539723Y-63293613D01*
X139539769Y-63294253D01*
X139535228Y-63311915D01*
X139522364Y-63346481D01*
X139502605Y-63394826D01*
X139477381Y-63453825D01*
X139448119Y-63520355D01*
X139416250Y-63591291D01*
X139383201Y-63663507D01*
X139350401Y-63733880D01*
X139319280Y-63799285D01*
X139291265Y-63856597D01*
X139267786Y-63902692D01*
X139250272Y-63934446D01*
X139240151Y-63948733D01*
X139205743Y-63962102D01*
X139164046Y-63955741D01*
X139158681Y-63951044D01*
X139142852Y-63928893D01*
X139120650Y-63892132D01*
X139094233Y-63844415D01*
X139065760Y-63789393D01*
X138985986Y-63630150D01*
X138912799Y-63776742D01*
X138903103Y-63796032D01*
X138876125Y-63848380D01*
X138852096Y-63893170D01*
X138833332Y-63926154D01*
X138822146Y-63943089D01*
X138821000Y-63944332D01*
X138792879Y-63959619D01*
X138757817Y-63961302D01*
X138726776Y-63948733D01*
X138724350Y-63945884D01*
X138712090Y-63925259D01*
X138692352Y-63887708D01*
X138666448Y-63835880D01*
X138635685Y-63772423D01*
X138601375Y-63699985D01*
X138564825Y-63621216D01*
X138544585Y-63577093D01*
X138507812Y-63496365D01*
X138479355Y-63432687D01*
X138458331Y-63383752D01*
X138443854Y-63347257D01*
X138435039Y-63320895D01*
X138431004Y-63302361D01*
X138430862Y-63289352D01*
X138433730Y-63279561D01*
X138448387Y-63258678D01*
X138474990Y-63238377D01*
X138475745Y-63238035D01*
X138495335Y-63231034D01*
X138512790Y-63230504D01*
X138529702Y-63238478D01*
G36*
X138529702Y-63238478D02*
G01*
X138547663Y-63256989D01*
X138568263Y-63288071D01*
X138593095Y-63333756D01*
X138623750Y-63396078D01*
X138661820Y-63477071D01*
X138676454Y-63508454D01*
X138706203Y-63571638D01*
X138732297Y-63626244D01*
X138753292Y-63669290D01*
X138767739Y-63697793D01*
X138774191Y-63708770D01*
X138775550Y-63708189D01*
X138785542Y-63694242D01*
X138802833Y-63664704D01*
X138825430Y-63623087D01*
X138851338Y-63572903D01*
X138867311Y-63541414D01*
X138896261Y-63486061D01*
X138918749Y-63447044D01*
X138936965Y-63421566D01*
X138953096Y-63406831D01*
X138969330Y-63400042D01*
X138987857Y-63398400D01*
X138998360Y-63398875D01*
X139014476Y-63403082D01*
X139029790Y-63413946D01*
X139046388Y-63434219D01*
X139066357Y-63466654D01*
X139091783Y-63514004D01*
X139124752Y-63579022D01*
X139134485Y-63598277D01*
X139158943Y-63644946D01*
X139179178Y-63681109D01*
X139193311Y-63703497D01*
X139199460Y-63708845D01*
X139200827Y-63705573D01*
X139210202Y-63684664D01*
X139227062Y-63647725D01*
X139249979Y-63597874D01*
X139277520Y-63538226D01*
X139308255Y-63471898D01*
X139334970Y-63414677D01*
X139364593Y-63352688D01*
X139387664Y-63306949D01*
X139405643Y-63274908D01*
X139419990Y-63254014D01*
X139432166Y-63241718D01*
X139443632Y-63235466D01*
X139453042Y-63232574D01*
X139478147Y-63232425D01*
X139505290Y-63247768D01*
X139506590Y-63248753D01*
X139528674Y-63271388D01*
X139539723Y-63293613D01*
X139539769Y-63294253D01*
X139535228Y-63311915D01*
X139522364Y-63346481D01*
X139502605Y-63394826D01*
X139477381Y-63453825D01*
X139448119Y-63520355D01*
X139416250Y-63591291D01*
X139383201Y-63663507D01*
X139350401Y-63733880D01*
X139319280Y-63799285D01*
X139291265Y-63856597D01*
X139267786Y-63902692D01*
X139250272Y-63934446D01*
X139240151Y-63948733D01*
X139205743Y-63962102D01*
X139164046Y-63955741D01*
X139158681Y-63951044D01*
X139142852Y-63928893D01*
X139120650Y-63892132D01*
X139094233Y-63844415D01*
X139065760Y-63789393D01*
X138985986Y-63630150D01*
X138912799Y-63776742D01*
X138903103Y-63796032D01*
X138876125Y-63848380D01*
X138852096Y-63893170D01*
X138833332Y-63926154D01*
X138822146Y-63943089D01*
X138821000Y-63944332D01*
X138792879Y-63959619D01*
X138757817Y-63961302D01*
X138726776Y-63948733D01*
X138724350Y-63945884D01*
X138712090Y-63925259D01*
X138692352Y-63887708D01*
X138666448Y-63835880D01*
X138635685Y-63772423D01*
X138601375Y-63699985D01*
X138564825Y-63621216D01*
X138544585Y-63577093D01*
X138507812Y-63496365D01*
X138479355Y-63432687D01*
X138458331Y-63383752D01*
X138443854Y-63347257D01*
X138435039Y-63320895D01*
X138431004Y-63302361D01*
X138430862Y-63289352D01*
X138433730Y-63279561D01*
X138448387Y-63258678D01*
X138474990Y-63238377D01*
X138475745Y-63238035D01*
X138495335Y-63231034D01*
X138512790Y-63230504D01*
X138529702Y-63238478D01*
G37*
X146080853Y-63229936D02*
X146147100Y-63235366D01*
X146202400Y-63244964D01*
X146253283Y-63259825D01*
X146324595Y-63292958D01*
X146375752Y-63335640D01*
X146406575Y-63387705D01*
X146416889Y-63448983D01*
X146415952Y-63480232D01*
X146410160Y-63505029D01*
X146395353Y-63526699D01*
X146367380Y-63554049D01*
X146359402Y-63561378D01*
X146335692Y-63582281D01*
X146313298Y-63599251D01*
X146289265Y-63613205D01*
X146260637Y-63625056D01*
X146224460Y-63635720D01*
X146177780Y-63646111D01*
X146117641Y-63657146D01*
X146041090Y-63669738D01*
X145945171Y-63684804D01*
X145926808Y-63687838D01*
X145864478Y-63701458D01*
X145819260Y-63717192D01*
X145792976Y-63734263D01*
X145787447Y-63751897D01*
X145790068Y-63756168D01*
X145808000Y-63771233D01*
X145836126Y-63787867D01*
X145848926Y-63793857D01*
X145870224Y-63801050D01*
X145896610Y-63805827D01*
X145932454Y-63808646D01*
X145982128Y-63809964D01*
X146050000Y-63810237D01*
X146067785Y-63810164D01*
X146135406Y-63809053D01*
X146200345Y-63806828D01*
X146255970Y-63803762D01*
X146295651Y-63800127D01*
X146331162Y-63796059D01*
X146360415Y-63795276D01*
X146379315Y-63799876D01*
X146394429Y-63810551D01*
X146398085Y-63814144D01*
X146414427Y-63845918D01*
X146413107Y-63881572D01*
X146394150Y-63912190D01*
X146373780Y-63923796D01*
X146337796Y-63936491D01*
X146295372Y-63946541D01*
X146291922Y-63947140D01*
X146249252Y-63952356D01*
X146191866Y-63956730D01*
X146126849Y-63959818D01*
X146061289Y-63961177D01*
X146045057Y-63961218D01*
X145946744Y-63958741D01*
X145866692Y-63950735D01*
X145801513Y-63936203D01*
X145747817Y-63914149D01*
X145702216Y-63883576D01*
X145661323Y-63843486D01*
X145641202Y-63817259D01*
X145629576Y-63787712D01*
X145626667Y-63747995D01*
X145626808Y-63736026D01*
X145630681Y-63703345D01*
X145643065Y-63676819D01*
X145668230Y-63645971D01*
X145689442Y-63623831D01*
X145715838Y-63601285D01*
X145745555Y-63582917D01*
X145781785Y-63567661D01*
X145827717Y-63554449D01*
X145886544Y-63542214D01*
X145961456Y-63529889D01*
X146055645Y-63516406D01*
X146100957Y-63509396D01*
X146168911Y-63494837D01*
X146218047Y-63478337D01*
X146247614Y-63460439D01*
X146256864Y-63441685D01*
X146245048Y-63422615D01*
X146211416Y-63403771D01*
X146208370Y-63402557D01*
X146162011Y-63390479D01*
X146099361Y-63382279D01*
X146025927Y-63378119D01*
X145947217Y-63378161D01*
X145868739Y-63382569D01*
X145796000Y-63391505D01*
X145792073Y-63392154D01*
X145743257Y-63399861D01*
X145711005Y-63403473D01*
X145690008Y-63402876D01*
X145674954Y-63397954D01*
X145660534Y-63388596D01*
X145659364Y-63387725D01*
X145634847Y-63357351D01*
X145630054Y-63321850D01*
X145645860Y-63287269D01*
X145650406Y-63282813D01*
X145680020Y-63267673D01*
X145727002Y-63254550D01*
X145787306Y-63243750D01*
X145856888Y-63235581D01*
X145931703Y-63230351D01*
X146007706Y-63228367D01*
X146080853Y-63229936D01*
G36*
X146080853Y-63229936D02*
G01*
X146147100Y-63235366D01*
X146202400Y-63244964D01*
X146253283Y-63259825D01*
X146324595Y-63292958D01*
X146375752Y-63335640D01*
X146406575Y-63387705D01*
X146416889Y-63448983D01*
X146415952Y-63480232D01*
X146410160Y-63505029D01*
X146395353Y-63526699D01*
X146367380Y-63554049D01*
X146359402Y-63561378D01*
X146335692Y-63582281D01*
X146313298Y-63599251D01*
X146289265Y-63613205D01*
X146260637Y-63625056D01*
X146224460Y-63635720D01*
X146177780Y-63646111D01*
X146117641Y-63657146D01*
X146041090Y-63669738D01*
X145945171Y-63684804D01*
X145926808Y-63687838D01*
X145864478Y-63701458D01*
X145819260Y-63717192D01*
X145792976Y-63734263D01*
X145787447Y-63751897D01*
X145790068Y-63756168D01*
X145808000Y-63771233D01*
X145836126Y-63787867D01*
X145848926Y-63793857D01*
X145870224Y-63801050D01*
X145896610Y-63805827D01*
X145932454Y-63808646D01*
X145982128Y-63809964D01*
X146050000Y-63810237D01*
X146067785Y-63810164D01*
X146135406Y-63809053D01*
X146200345Y-63806828D01*
X146255970Y-63803762D01*
X146295651Y-63800127D01*
X146331162Y-63796059D01*
X146360415Y-63795276D01*
X146379315Y-63799876D01*
X146394429Y-63810551D01*
X146398085Y-63814144D01*
X146414427Y-63845918D01*
X146413107Y-63881572D01*
X146394150Y-63912190D01*
X146373780Y-63923796D01*
X146337796Y-63936491D01*
X146295372Y-63946541D01*
X146291922Y-63947140D01*
X146249252Y-63952356D01*
X146191866Y-63956730D01*
X146126849Y-63959818D01*
X146061289Y-63961177D01*
X146045057Y-63961218D01*
X145946744Y-63958741D01*
X145866692Y-63950735D01*
X145801513Y-63936203D01*
X145747817Y-63914149D01*
X145702216Y-63883576D01*
X145661323Y-63843486D01*
X145641202Y-63817259D01*
X145629576Y-63787712D01*
X145626667Y-63747995D01*
X145626808Y-63736026D01*
X145630681Y-63703345D01*
X145643065Y-63676819D01*
X145668230Y-63645971D01*
X145689442Y-63623831D01*
X145715838Y-63601285D01*
X145745555Y-63582917D01*
X145781785Y-63567661D01*
X145827717Y-63554449D01*
X145886544Y-63542214D01*
X145961456Y-63529889D01*
X146055645Y-63516406D01*
X146100957Y-63509396D01*
X146168911Y-63494837D01*
X146218047Y-63478337D01*
X146247614Y-63460439D01*
X146256864Y-63441685D01*
X146245048Y-63422615D01*
X146211416Y-63403771D01*
X146208370Y-63402557D01*
X146162011Y-63390479D01*
X146099361Y-63382279D01*
X146025927Y-63378119D01*
X145947217Y-63378161D01*
X145868739Y-63382569D01*
X145796000Y-63391505D01*
X145792073Y-63392154D01*
X145743257Y-63399861D01*
X145711005Y-63403473D01*
X145690008Y-63402876D01*
X145674954Y-63397954D01*
X145660534Y-63388596D01*
X145659364Y-63387725D01*
X145634847Y-63357351D01*
X145630054Y-63321850D01*
X145645860Y-63287269D01*
X145650406Y-63282813D01*
X145680020Y-63267673D01*
X145727002Y-63254550D01*
X145787306Y-63243750D01*
X145856888Y-63235581D01*
X145931703Y-63230351D01*
X146007706Y-63228367D01*
X146080853Y-63229936D01*
G37*
X142228711Y-58922033D02*
X142324268Y-58939523D01*
X142488558Y-58984564D01*
X142642589Y-59047656D01*
X142788509Y-59129915D01*
X142928466Y-59232457D01*
X143064608Y-59356399D01*
X143108473Y-59401661D01*
X143220758Y-59533865D01*
X143313972Y-59671832D01*
X143390719Y-59819750D01*
X143453603Y-59981803D01*
X143457420Y-59993391D01*
X143507507Y-60179392D01*
X143540899Y-60375521D01*
X143557584Y-60577568D01*
X143557551Y-60781325D01*
X143540791Y-60982581D01*
X143507292Y-61177128D01*
X143457044Y-61360756D01*
X143413190Y-61478053D01*
X143335348Y-61640951D01*
X143241828Y-61794866D01*
X143134822Y-61936671D01*
X143016519Y-62063239D01*
X142889111Y-62171441D01*
X142811606Y-62224120D01*
X142684725Y-62293750D01*
X142547243Y-62352468D01*
X142405716Y-62397587D01*
X142266702Y-62426422D01*
X142252597Y-62428106D01*
X142209153Y-62431434D01*
X142151723Y-62434275D01*
X142086122Y-62436373D01*
X142018167Y-62437468D01*
X141891378Y-62435140D01*
X141743673Y-62422136D01*
X141605779Y-62397133D01*
X141472014Y-62359318D01*
X141448562Y-62350889D01*
X141400612Y-62331408D01*
X141344140Y-62306473D01*
X141282379Y-62277722D01*
X141218563Y-62246790D01*
X141155926Y-62215315D01*
X141097703Y-62184934D01*
X141047127Y-62157283D01*
X141007433Y-62133999D01*
X140981854Y-62116718D01*
X140973625Y-62107079D01*
X140975076Y-62103984D01*
X140986250Y-62084079D01*
X141007134Y-62048420D01*
X141036265Y-61999459D01*
X141072181Y-61939646D01*
X141113420Y-61871433D01*
X141158517Y-61797271D01*
X141339785Y-61500008D01*
X141386315Y-61544539D01*
X141477723Y-61622865D01*
X141591334Y-61697439D01*
X141709122Y-61751474D01*
X141829559Y-61784290D01*
X141951117Y-61795211D01*
X141992585Y-61793868D01*
X142110080Y-61775612D01*
X142220089Y-61736617D01*
X142321430Y-61677670D01*
X142412921Y-61599557D01*
X142493380Y-61503064D01*
X142561627Y-61388978D01*
X142577908Y-61354724D01*
X142623982Y-61231240D01*
X142659106Y-61092918D01*
X142683197Y-60943561D01*
X142696173Y-60786973D01*
X142697949Y-60626956D01*
X142688443Y-60467314D01*
X142667572Y-60311850D01*
X142635252Y-60164366D01*
X142591399Y-60028667D01*
X142553982Y-59942076D01*
X142489185Y-59828688D01*
X142413772Y-59735070D01*
X142327418Y-59660959D01*
X142229795Y-59606094D01*
X142120577Y-59570212D01*
X141999439Y-59553051D01*
X141930038Y-59551880D01*
X141807168Y-59566141D01*
X141691664Y-59601241D01*
X141584953Y-59656682D01*
X141488464Y-59731964D01*
X141472720Y-59746440D01*
X141442150Y-59772962D01*
X141419809Y-59790138D01*
X141409691Y-59794787D01*
X141407706Y-59792597D01*
X141393241Y-59773721D01*
X141369400Y-59740397D01*
X141338029Y-59695380D01*
X141300974Y-59641425D01*
X141260083Y-59581285D01*
X141217202Y-59517718D01*
X141174178Y-59453476D01*
X141132857Y-59391315D01*
X141095086Y-59333991D01*
X141062712Y-59284257D01*
X141037582Y-59244868D01*
X141021542Y-59218580D01*
X141016439Y-59208147D01*
X141021050Y-59203941D01*
X141040267Y-59198933D01*
X141049838Y-59196386D01*
X141077809Y-59185249D01*
X141119448Y-59166802D01*
X141170995Y-59142725D01*
X141228690Y-59114699D01*
X141239957Y-59109154D01*
X141417687Y-59029889D01*
X141587490Y-58970385D01*
X141751430Y-58930245D01*
X141911571Y-58909071D01*
X142069977Y-58906466D01*
X142228711Y-58922033D01*
G36*
X142228711Y-58922033D02*
G01*
X142324268Y-58939523D01*
X142488558Y-58984564D01*
X142642589Y-59047656D01*
X142788509Y-59129915D01*
X142928466Y-59232457D01*
X143064608Y-59356399D01*
X143108473Y-59401661D01*
X143220758Y-59533865D01*
X143313972Y-59671832D01*
X143390719Y-59819750D01*
X143453603Y-59981803D01*
X143457420Y-59993391D01*
X143507507Y-60179392D01*
X143540899Y-60375521D01*
X143557584Y-60577568D01*
X143557551Y-60781325D01*
X143540791Y-60982581D01*
X143507292Y-61177128D01*
X143457044Y-61360756D01*
X143413190Y-61478053D01*
X143335348Y-61640951D01*
X143241828Y-61794866D01*
X143134822Y-61936671D01*
X143016519Y-62063239D01*
X142889111Y-62171441D01*
X142811606Y-62224120D01*
X142684725Y-62293750D01*
X142547243Y-62352468D01*
X142405716Y-62397587D01*
X142266702Y-62426422D01*
X142252597Y-62428106D01*
X142209153Y-62431434D01*
X142151723Y-62434275D01*
X142086122Y-62436373D01*
X142018167Y-62437468D01*
X141891378Y-62435140D01*
X141743673Y-62422136D01*
X141605779Y-62397133D01*
X141472014Y-62359318D01*
X141448562Y-62350889D01*
X141400612Y-62331408D01*
X141344140Y-62306473D01*
X141282379Y-62277722D01*
X141218563Y-62246790D01*
X141155926Y-62215315D01*
X141097703Y-62184934D01*
X141047127Y-62157283D01*
X141007433Y-62133999D01*
X140981854Y-62116718D01*
X140973625Y-62107079D01*
X140975076Y-62103984D01*
X140986250Y-62084079D01*
X141007134Y-62048420D01*
X141036265Y-61999459D01*
X141072181Y-61939646D01*
X141113420Y-61871433D01*
X141158517Y-61797271D01*
X141339785Y-61500008D01*
X141386315Y-61544539D01*
X141477723Y-61622865D01*
X141591334Y-61697439D01*
X141709122Y-61751474D01*
X141829559Y-61784290D01*
X141951117Y-61795211D01*
X141992585Y-61793868D01*
X142110080Y-61775612D01*
X142220089Y-61736617D01*
X142321430Y-61677670D01*
X142412921Y-61599557D01*
X142493380Y-61503064D01*
X142561627Y-61388978D01*
X142577908Y-61354724D01*
X142623982Y-61231240D01*
X142659106Y-61092918D01*
X142683197Y-60943561D01*
X142696173Y-60786973D01*
X142697949Y-60626956D01*
X142688443Y-60467314D01*
X142667572Y-60311850D01*
X142635252Y-60164366D01*
X142591399Y-60028667D01*
X142553982Y-59942076D01*
X142489185Y-59828688D01*
X142413772Y-59735070D01*
X142327418Y-59660959D01*
X142229795Y-59606094D01*
X142120577Y-59570212D01*
X141999439Y-59553051D01*
X141930038Y-59551880D01*
X141807168Y-59566141D01*
X141691664Y-59601241D01*
X141584953Y-59656682D01*
X141488464Y-59731964D01*
X141472720Y-59746440D01*
X141442150Y-59772962D01*
X141419809Y-59790138D01*
X141409691Y-59794787D01*
X141407706Y-59792597D01*
X141393241Y-59773721D01*
X141369400Y-59740397D01*
X141338029Y-59695380D01*
X141300974Y-59641425D01*
X141260083Y-59581285D01*
X141217202Y-59517718D01*
X141174178Y-59453476D01*
X141132857Y-59391315D01*
X141095086Y-59333991D01*
X141062712Y-59284257D01*
X141037582Y-59244868D01*
X141021542Y-59218580D01*
X141016439Y-59208147D01*
X141021050Y-59203941D01*
X141040267Y-59198933D01*
X141049838Y-59196386D01*
X141077809Y-59185249D01*
X141119448Y-59166802D01*
X141170995Y-59142725D01*
X141228690Y-59114699D01*
X141239957Y-59109154D01*
X141417687Y-59029889D01*
X141587490Y-58970385D01*
X141751430Y-58930245D01*
X141911571Y-58909071D01*
X142069977Y-58906466D01*
X142228711Y-58922033D01*
G37*
X138425994Y-61202711D02*
X138425268Y-61280158D01*
X138416689Y-61431594D01*
X138397833Y-61568283D01*
X138367837Y-61694276D01*
X138325836Y-61813625D01*
X138270969Y-61930381D01*
X138204167Y-62041179D01*
X138113363Y-62154739D01*
X138009708Y-62250211D01*
X137893887Y-62327073D01*
X137766586Y-62384797D01*
X137628489Y-62422858D01*
X137590793Y-62428666D01*
X137511752Y-62434396D01*
X137423629Y-62434583D01*
X137334236Y-62429539D01*
X137251384Y-62419578D01*
X137182887Y-62405012D01*
X137152035Y-62395364D01*
X137074730Y-62365123D01*
X136997679Y-62327617D01*
X136928200Y-62286614D01*
X136873615Y-62245879D01*
X136850916Y-62226505D01*
X136828201Y-62208662D01*
X136816779Y-62201778D01*
X136815537Y-62203424D01*
X136812728Y-62221205D01*
X136810776Y-62254370D01*
X136810045Y-62297733D01*
X136810045Y-62393689D01*
X135951896Y-62393689D01*
X135986161Y-62332974D01*
X135991355Y-62323868D01*
X135999715Y-62309249D01*
X136007288Y-62295173D01*
X136014112Y-62280540D01*
X136020227Y-62264249D01*
X136025673Y-62245198D01*
X136030487Y-62222286D01*
X136034708Y-62194413D01*
X136038377Y-62160478D01*
X136041531Y-62119379D01*
X136044211Y-62070015D01*
X136046454Y-62011286D01*
X136048299Y-61942090D01*
X136049787Y-61861326D01*
X136050955Y-61767894D01*
X136051678Y-61680721D01*
X136855200Y-61680721D01*
X136925756Y-61727089D01*
X136966417Y-61750791D01*
X137020546Y-61776639D01*
X137069689Y-61794829D01*
X137133165Y-61810551D01*
X137229331Y-61821541D01*
X137313900Y-61813365D01*
X137387219Y-61785805D01*
X137449637Y-61738642D01*
X137501502Y-61671658D01*
X137543160Y-61584633D01*
X137574962Y-61477350D01*
X137577545Y-61465009D01*
X137586000Y-61403772D01*
X137591663Y-61326692D01*
X137594576Y-61239002D01*
X137594783Y-61145934D01*
X137592330Y-61052720D01*
X137587261Y-60964594D01*
X137579619Y-60886788D01*
X137569448Y-60824533D01*
X137568167Y-60818666D01*
X137539126Y-60708121D01*
X137504610Y-60617575D01*
X137463456Y-60544953D01*
X137414499Y-60488181D01*
X137356574Y-60445184D01*
X137324620Y-60429615D01*
X137251784Y-60410722D01*
X137170443Y-60407465D01*
X137085319Y-60419389D01*
X137001133Y-60446040D01*
X136922608Y-60486962D01*
X136855200Y-60530530D01*
X136855200Y-61680721D01*
X136051678Y-61680721D01*
X136051844Y-61660692D01*
X136052491Y-61538620D01*
X136052936Y-61400576D01*
X136053218Y-61245459D01*
X136053375Y-61072168D01*
X136053448Y-60879603D01*
X136053474Y-60666662D01*
X136053493Y-60432245D01*
X136053689Y-58747378D01*
X136959017Y-58747378D01*
X136934585Y-58784067D01*
X136928318Y-58793647D01*
X136902208Y-58839981D01*
X136884469Y-58887102D01*
X136872908Y-58942251D01*
X136865331Y-59012667D01*
X136864839Y-59019650D01*
X136863062Y-59057641D01*
X136861444Y-59111576D01*
X136859999Y-59178703D01*
X136858740Y-59256271D01*
X136857680Y-59341528D01*
X136856829Y-59431724D01*
X136856203Y-59524107D01*
X136855812Y-59615925D01*
X136855670Y-59704427D01*
X136855790Y-59786862D01*
X136856183Y-59860479D01*
X136856862Y-59922526D01*
X136857841Y-59970251D01*
X136859132Y-60000904D01*
X136860747Y-60011733D01*
X136868957Y-60007333D01*
X136890647Y-59992362D01*
X136920014Y-59970448D01*
X136968879Y-59936236D01*
X137057125Y-59889714D01*
X137155916Y-59856046D01*
X137268510Y-59834231D01*
X137398164Y-59823265D01*
X137490670Y-59822219D01*
X137612011Y-59832014D01*
X137722099Y-59856174D01*
X137825389Y-59895785D01*
X137926338Y-59951932D01*
X137971503Y-59982883D01*
X138076911Y-60074115D01*
X138168538Y-60183106D01*
X138246332Y-60309726D01*
X138310241Y-60453845D01*
X138360214Y-60615332D01*
X138396198Y-60794059D01*
X138418143Y-60989895D01*
X138423900Y-61145934D01*
X138425994Y-61202711D01*
G36*
X138425994Y-61202711D02*
G01*
X138425268Y-61280158D01*
X138416689Y-61431594D01*
X138397833Y-61568283D01*
X138367837Y-61694276D01*
X138325836Y-61813625D01*
X138270969Y-61930381D01*
X138204167Y-62041179D01*
X138113363Y-62154739D01*
X138009708Y-62250211D01*
X137893887Y-62327073D01*
X137766586Y-62384797D01*
X137628489Y-62422858D01*
X137590793Y-62428666D01*
X137511752Y-62434396D01*
X137423629Y-62434583D01*
X137334236Y-62429539D01*
X137251384Y-62419578D01*
X137182887Y-62405012D01*
X137152035Y-62395364D01*
X137074730Y-62365123D01*
X136997679Y-62327617D01*
X136928200Y-62286614D01*
X136873615Y-62245879D01*
X136850916Y-62226505D01*
X136828201Y-62208662D01*
X136816779Y-62201778D01*
X136815537Y-62203424D01*
X136812728Y-62221205D01*
X136810776Y-62254370D01*
X136810045Y-62297733D01*
X136810045Y-62393689D01*
X135951896Y-62393689D01*
X135986161Y-62332974D01*
X135991355Y-62323868D01*
X135999715Y-62309249D01*
X136007288Y-62295173D01*
X136014112Y-62280540D01*
X136020227Y-62264249D01*
X136025673Y-62245198D01*
X136030487Y-62222286D01*
X136034708Y-62194413D01*
X136038377Y-62160478D01*
X136041531Y-62119379D01*
X136044211Y-62070015D01*
X136046454Y-62011286D01*
X136048299Y-61942090D01*
X136049787Y-61861326D01*
X136050955Y-61767894D01*
X136051678Y-61680721D01*
X136855200Y-61680721D01*
X136925756Y-61727089D01*
X136966417Y-61750791D01*
X137020546Y-61776639D01*
X137069689Y-61794829D01*
X137133165Y-61810551D01*
X137229331Y-61821541D01*
X137313900Y-61813365D01*
X137387219Y-61785805D01*
X137449637Y-61738642D01*
X137501502Y-61671658D01*
X137543160Y-61584633D01*
X137574962Y-61477350D01*
X137577545Y-61465009D01*
X137586000Y-61403772D01*
X137591663Y-61326692D01*
X137594576Y-61239002D01*
X137594783Y-61145934D01*
X137592330Y-61052720D01*
X137587261Y-60964594D01*
X137579619Y-60886788D01*
X137569448Y-60824533D01*
X137568167Y-60818666D01*
X137539126Y-60708121D01*
X137504610Y-60617575D01*
X137463456Y-60544953D01*
X137414499Y-60488181D01*
X137356574Y-60445184D01*
X137324620Y-60429615D01*
X137251784Y-60410722D01*
X137170443Y-60407465D01*
X137085319Y-60419389D01*
X137001133Y-60446040D01*
X136922608Y-60486962D01*
X136855200Y-60530530D01*
X136855200Y-61680721D01*
X136051678Y-61680721D01*
X136051844Y-61660692D01*
X136052491Y-61538620D01*
X136052936Y-61400576D01*
X136053218Y-61245459D01*
X136053375Y-61072168D01*
X136053448Y-60879603D01*
X136053474Y-60666662D01*
X136053493Y-60432245D01*
X136053689Y-58747378D01*
X136959017Y-58747378D01*
X136934585Y-58784067D01*
X136928318Y-58793647D01*
X136902208Y-58839981D01*
X136884469Y-58887102D01*
X136872908Y-58942251D01*
X136865331Y-59012667D01*
X136864839Y-59019650D01*
X136863062Y-59057641D01*
X136861444Y-59111576D01*
X136859999Y-59178703D01*
X136858740Y-59256271D01*
X136857680Y-59341528D01*
X136856829Y-59431724D01*
X136856203Y-59524107D01*
X136855812Y-59615925D01*
X136855670Y-59704427D01*
X136855790Y-59786862D01*
X136856183Y-59860479D01*
X136856862Y-59922526D01*
X136857841Y-59970251D01*
X136859132Y-60000904D01*
X136860747Y-60011733D01*
X136868957Y-60007333D01*
X136890647Y-59992362D01*
X136920014Y-59970448D01*
X136968879Y-59936236D01*
X137057125Y-59889714D01*
X137155916Y-59856046D01*
X137268510Y-59834231D01*
X137398164Y-59823265D01*
X137490670Y-59822219D01*
X137612011Y-59832014D01*
X137722099Y-59856174D01*
X137825389Y-59895785D01*
X137926338Y-59951932D01*
X137971503Y-59982883D01*
X138076911Y-60074115D01*
X138168538Y-60183106D01*
X138246332Y-60309726D01*
X138310241Y-60453845D01*
X138360214Y-60615332D01*
X138396198Y-60794059D01*
X138418143Y-60989895D01*
X138423900Y-61145934D01*
X138425994Y-61202711D01*
G37*
X140967755Y-61603467D02*
X140967261Y-61637363D01*
X140963632Y-61712202D01*
X140956022Y-61774401D01*
X140943688Y-61830984D01*
X140899313Y-61957076D01*
X140836400Y-62071679D01*
X140756238Y-62172568D01*
X140659740Y-62258924D01*
X140547822Y-62329932D01*
X140421397Y-62384776D01*
X140281378Y-62422638D01*
X140245149Y-62428351D01*
X140166155Y-62434313D01*
X140077841Y-62434646D01*
X139988075Y-62429659D01*
X139904722Y-62419666D01*
X139835651Y-62404978D01*
X139749187Y-62374749D01*
X139639286Y-62320057D01*
X139541956Y-62252543D01*
X139479867Y-62201556D01*
X139476605Y-62297622D01*
X139473343Y-62393689D01*
X139050450Y-62393689D01*
X139039543Y-62393686D01*
X138945056Y-62393380D01*
X138858331Y-62392616D01*
X138781837Y-62391451D01*
X138718043Y-62389942D01*
X138669418Y-62388147D01*
X138638433Y-62386121D01*
X138627556Y-62383922D01*
X138627578Y-62383463D01*
X138634614Y-62367910D01*
X138650434Y-62345071D01*
X138654734Y-62339638D01*
X138665777Y-62325606D01*
X138675311Y-62312186D01*
X138683461Y-62297722D01*
X138690352Y-62280556D01*
X138696111Y-62259034D01*
X138700862Y-62231498D01*
X138704731Y-62196292D01*
X138707844Y-62151760D01*
X138710325Y-62096246D01*
X138712300Y-62028093D01*
X138713894Y-61945645D01*
X138715234Y-61847246D01*
X138716444Y-61731239D01*
X138716896Y-61680462D01*
X139519378Y-61680462D01*
X139564048Y-61736973D01*
X139576785Y-61752212D01*
X139623604Y-61794844D01*
X139684255Y-61830672D01*
X139694897Y-61835850D01*
X139733676Y-61852745D01*
X139768692Y-61862909D01*
X139808722Y-61868325D01*
X139862541Y-61870978D01*
X139880648Y-61871383D01*
X139956011Y-61868540D01*
X140016743Y-61856620D01*
X140068452Y-61834037D01*
X140116746Y-61799211D01*
X140121803Y-61794798D01*
X140170272Y-61739160D01*
X140198459Y-61675333D01*
X140207752Y-61600282D01*
X140200520Y-61528693D01*
X140175796Y-61465645D01*
X140131249Y-61407758D01*
X140076319Y-61360808D01*
X140003894Y-61320961D01*
X139917340Y-61293263D01*
X139814670Y-61277096D01*
X139693894Y-61271842D01*
X139685007Y-61271857D01*
X139629660Y-61272655D01*
X139582736Y-61274488D01*
X139548953Y-61277111D01*
X139533028Y-61280274D01*
X139528943Y-61286741D01*
X139524572Y-61308875D01*
X139521604Y-61347988D01*
X139519914Y-61405939D01*
X139519378Y-61484586D01*
X139519378Y-61680462D01*
X138716896Y-61680462D01*
X138717649Y-61595968D01*
X138718975Y-61439778D01*
X138720228Y-61297012D01*
X138721651Y-61151942D01*
X138723176Y-61026027D01*
X138724933Y-60917436D01*
X138727051Y-60824334D01*
X138729660Y-60744891D01*
X138732890Y-60677273D01*
X138736869Y-60619649D01*
X138741728Y-60570185D01*
X138747597Y-60527050D01*
X138754604Y-60488410D01*
X138762880Y-60452434D01*
X138772554Y-60417289D01*
X138783756Y-60381142D01*
X138796616Y-60342161D01*
X138812090Y-60299091D01*
X138854994Y-60206871D01*
X138908735Y-60127099D01*
X138977576Y-60052965D01*
X139055185Y-59989405D01*
X139159761Y-59927725D01*
X139279244Y-59880202D01*
X139414508Y-59846567D01*
X139566426Y-59826552D01*
X139735872Y-59819889D01*
X139793890Y-59820287D01*
X139859398Y-59822335D01*
X139920693Y-59826704D01*
X139982097Y-59834035D01*
X140047932Y-59844969D01*
X140122520Y-59860147D01*
X140210184Y-59880209D01*
X140315245Y-59905797D01*
X140343806Y-59912820D01*
X140419054Y-59930776D01*
X140489388Y-59946820D01*
X140550567Y-59960028D01*
X140598354Y-59969474D01*
X140628511Y-59974231D01*
X140656783Y-59977910D01*
X140683060Y-59983187D01*
X140693059Y-59987942D01*
X140689952Y-59996781D01*
X140679194Y-60024072D01*
X140661864Y-60066906D01*
X140639126Y-60122425D01*
X140612147Y-60187772D01*
X140582090Y-60260089D01*
X140575493Y-60275879D01*
X140536907Y-60366484D01*
X140505768Y-60436217D01*
X140481917Y-60485405D01*
X140465198Y-60514374D01*
X140455454Y-60523452D01*
X140447766Y-60521405D01*
X140421415Y-60511760D01*
X140382982Y-60496190D01*
X140337822Y-60476815D01*
X140243293Y-60438814D01*
X140106480Y-60397780D01*
X139965289Y-60372612D01*
X139927314Y-60368611D01*
X139824059Y-60366447D01*
X139736952Y-60379622D01*
X139665129Y-60408756D01*
X139607731Y-60454466D01*
X139563896Y-60517372D01*
X139532762Y-60598092D01*
X139513470Y-60697245D01*
X139506050Y-60756224D01*
X139667936Y-60749445D01*
X139794495Y-60747813D01*
X139945951Y-60754194D01*
X140094396Y-60768777D01*
X140230578Y-60790882D01*
X140295245Y-60805821D01*
X140427490Y-60848741D01*
X140549762Y-60905340D01*
X140659685Y-60974017D01*
X140754883Y-61053170D01*
X140832980Y-61141196D01*
X140891599Y-61236493D01*
X140915595Y-61288864D01*
X140941232Y-61359590D01*
X140957478Y-61430812D01*
X140965822Y-61509712D01*
X140967690Y-61600282D01*
X140967755Y-61603467D01*
G36*
X140967755Y-61603467D02*
G01*
X140967261Y-61637363D01*
X140963632Y-61712202D01*
X140956022Y-61774401D01*
X140943688Y-61830984D01*
X140899313Y-61957076D01*
X140836400Y-62071679D01*
X140756238Y-62172568D01*
X140659740Y-62258924D01*
X140547822Y-62329932D01*
X140421397Y-62384776D01*
X140281378Y-62422638D01*
X140245149Y-62428351D01*
X140166155Y-62434313D01*
X140077841Y-62434646D01*
X139988075Y-62429659D01*
X139904722Y-62419666D01*
X139835651Y-62404978D01*
X139749187Y-62374749D01*
X139639286Y-62320057D01*
X139541956Y-62252543D01*
X139479867Y-62201556D01*
X139476605Y-62297622D01*
X139473343Y-62393689D01*
X139050450Y-62393689D01*
X139039543Y-62393686D01*
X138945056Y-62393380D01*
X138858331Y-62392616D01*
X138781837Y-62391451D01*
X138718043Y-62389942D01*
X138669418Y-62388147D01*
X138638433Y-62386121D01*
X138627556Y-62383922D01*
X138627578Y-62383463D01*
X138634614Y-62367910D01*
X138650434Y-62345071D01*
X138654734Y-62339638D01*
X138665777Y-62325606D01*
X138675311Y-62312186D01*
X138683461Y-62297722D01*
X138690352Y-62280556D01*
X138696111Y-62259034D01*
X138700862Y-62231498D01*
X138704731Y-62196292D01*
X138707844Y-62151760D01*
X138710325Y-62096246D01*
X138712300Y-62028093D01*
X138713894Y-61945645D01*
X138715234Y-61847246D01*
X138716444Y-61731239D01*
X138716896Y-61680462D01*
X139519378Y-61680462D01*
X139564048Y-61736973D01*
X139576785Y-61752212D01*
X139623604Y-61794844D01*
X139684255Y-61830672D01*
X139694897Y-61835850D01*
X139733676Y-61852745D01*
X139768692Y-61862909D01*
X139808722Y-61868325D01*
X139862541Y-61870978D01*
X139880648Y-61871383D01*
X139956011Y-61868540D01*
X140016743Y-61856620D01*
X140068452Y-61834037D01*
X140116746Y-61799211D01*
X140121803Y-61794798D01*
X140170272Y-61739160D01*
X140198459Y-61675333D01*
X140207752Y-61600282D01*
X140200520Y-61528693D01*
X140175796Y-61465645D01*
X140131249Y-61407758D01*
X140076319Y-61360808D01*
X140003894Y-61320961D01*
X139917340Y-61293263D01*
X139814670Y-61277096D01*
X139693894Y-61271842D01*
X139685007Y-61271857D01*
X139629660Y-61272655D01*
X139582736Y-61274488D01*
X139548953Y-61277111D01*
X139533028Y-61280274D01*
X139528943Y-61286741D01*
X139524572Y-61308875D01*
X139521604Y-61347988D01*
X139519914Y-61405939D01*
X139519378Y-61484586D01*
X139519378Y-61680462D01*
X138716896Y-61680462D01*
X138717649Y-61595968D01*
X138718975Y-61439778D01*
X138720228Y-61297012D01*
X138721651Y-61151942D01*
X138723176Y-61026027D01*
X138724933Y-60917436D01*
X138727051Y-60824334D01*
X138729660Y-60744891D01*
X138732890Y-60677273D01*
X138736869Y-60619649D01*
X138741728Y-60570185D01*
X138747597Y-60527050D01*
X138754604Y-60488410D01*
X138762880Y-60452434D01*
X138772554Y-60417289D01*
X138783756Y-60381142D01*
X138796616Y-60342161D01*
X138812090Y-60299091D01*
X138854994Y-60206871D01*
X138908735Y-60127099D01*
X138977576Y-60052965D01*
X139055185Y-59989405D01*
X139159761Y-59927725D01*
X139279244Y-59880202D01*
X139414508Y-59846567D01*
X139566426Y-59826552D01*
X139735872Y-59819889D01*
X139793890Y-59820287D01*
X139859398Y-59822335D01*
X139920693Y-59826704D01*
X139982097Y-59834035D01*
X140047932Y-59844969D01*
X140122520Y-59860147D01*
X140210184Y-59880209D01*
X140315245Y-59905797D01*
X140343806Y-59912820D01*
X140419054Y-59930776D01*
X140489388Y-59946820D01*
X140550567Y-59960028D01*
X140598354Y-59969474D01*
X140628511Y-59974231D01*
X140656783Y-59977910D01*
X140683060Y-59983187D01*
X140693059Y-59987942D01*
X140689952Y-59996781D01*
X140679194Y-60024072D01*
X140661864Y-60066906D01*
X140639126Y-60122425D01*
X140612147Y-60187772D01*
X140582090Y-60260089D01*
X140575493Y-60275879D01*
X140536907Y-60366484D01*
X140505768Y-60436217D01*
X140481917Y-60485405D01*
X140465198Y-60514374D01*
X140455454Y-60523452D01*
X140447766Y-60521405D01*
X140421415Y-60511760D01*
X140382982Y-60496190D01*
X140337822Y-60476815D01*
X140243293Y-60438814D01*
X140106480Y-60397780D01*
X139965289Y-60372612D01*
X139927314Y-60368611D01*
X139824059Y-60366447D01*
X139736952Y-60379622D01*
X139665129Y-60408756D01*
X139607731Y-60454466D01*
X139563896Y-60517372D01*
X139532762Y-60598092D01*
X139513470Y-60697245D01*
X139506050Y-60756224D01*
X139667936Y-60749445D01*
X139794495Y-60747813D01*
X139945951Y-60754194D01*
X140094396Y-60768777D01*
X140230578Y-60790882D01*
X140295245Y-60805821D01*
X140427490Y-60848741D01*
X140549762Y-60905340D01*
X140659685Y-60974017D01*
X140754883Y-61053170D01*
X140832980Y-61141196D01*
X140891599Y-61236493D01*
X140915595Y-61288864D01*
X140941232Y-61359590D01*
X140957478Y-61430812D01*
X140965822Y-61509712D01*
X140967690Y-61600282D01*
X140967755Y-61603467D01*
G37*
X148515614Y-59071792D02*
X148516059Y-59203011D01*
X148516362Y-59350216D01*
X148516548Y-59514349D01*
X148516642Y-59696352D01*
X148516671Y-59897165D01*
X148516661Y-60117732D01*
X148516636Y-60358992D01*
X148516622Y-60621889D01*
X148516622Y-60664040D01*
X148516646Y-60924668D01*
X148516685Y-61163796D01*
X148516708Y-61382360D01*
X148516687Y-61581295D01*
X148516593Y-61761535D01*
X148516395Y-61924015D01*
X148516063Y-62069670D01*
X148515569Y-62199434D01*
X148514883Y-62314243D01*
X148513976Y-62415030D01*
X148512817Y-62502730D01*
X148511378Y-62578279D01*
X148509629Y-62642611D01*
X148507540Y-62696661D01*
X148505083Y-62741363D01*
X148502227Y-62777652D01*
X148498943Y-62806463D01*
X148495202Y-62828731D01*
X148490974Y-62845390D01*
X148486229Y-62857375D01*
X148480939Y-62865621D01*
X148475073Y-62871062D01*
X148468602Y-62874634D01*
X148461497Y-62877270D01*
X148453728Y-62879906D01*
X148445266Y-62883477D01*
X148440908Y-62885145D01*
X148432395Y-62887111D01*
X148419694Y-62888911D01*
X148401885Y-62890555D01*
X148378049Y-62892047D01*
X148347266Y-62893397D01*
X148308617Y-62894611D01*
X148261182Y-62895697D01*
X148204043Y-62896661D01*
X148136279Y-62897511D01*
X148056971Y-62898253D01*
X147965199Y-62898897D01*
X147860044Y-62899447D01*
X147740587Y-62899913D01*
X147605908Y-62900300D01*
X147455088Y-62900616D01*
X147287206Y-62900869D01*
X147101345Y-62901066D01*
X146896583Y-62901213D01*
X146672002Y-62901318D01*
X146426682Y-62901389D01*
X146159704Y-62901432D01*
X146121321Y-62901437D01*
X145855922Y-62901480D01*
X145612050Y-62901525D01*
X145388783Y-62901548D01*
X145185196Y-62901524D01*
X145000367Y-62901430D01*
X144833373Y-62901243D01*
X144683290Y-62900939D01*
X144549196Y-62900494D01*
X144430166Y-62899885D01*
X144325279Y-62899089D01*
X144233610Y-62898080D01*
X144154237Y-62896837D01*
X144086237Y-62895335D01*
X144028686Y-62893551D01*
X143980662Y-62891461D01*
X143941240Y-62889042D01*
X143909499Y-62886270D01*
X143884514Y-62883121D01*
X143865364Y-62879572D01*
X143851123Y-62875598D01*
X143840871Y-62871178D01*
X143833682Y-62866286D01*
X143828635Y-62860900D01*
X143824805Y-62854996D01*
X143821271Y-62848549D01*
X143817108Y-62841537D01*
X143816025Y-62839687D01*
X143813813Y-62834180D01*
X143811786Y-62825868D01*
X143809938Y-62813809D01*
X143808261Y-62797063D01*
X143806745Y-62774687D01*
X143805383Y-62745740D01*
X143804167Y-62709280D01*
X143803089Y-62664367D01*
X143802140Y-62610057D01*
X143801312Y-62545410D01*
X143800597Y-62469484D01*
X143799987Y-62381338D01*
X143799942Y-62372493D01*
X144091378Y-62372493D01*
X144095260Y-62373765D01*
X144118520Y-62375791D01*
X144160874Y-62377626D01*
X144220132Y-62379227D01*
X144294107Y-62380549D01*
X144380610Y-62381548D01*
X144477452Y-62382180D01*
X144582445Y-62382400D01*
X145280651Y-62382400D01*
X146435090Y-62382400D01*
X146434456Y-62306200D01*
X146435574Y-62264160D01*
X146441304Y-62228334D01*
X146453890Y-62190772D01*
X146475568Y-62142577D01*
X146478789Y-62135897D01*
X146504188Y-62086359D01*
X146530996Y-62038369D01*
X146553917Y-62001466D01*
X146558485Y-61994834D01*
X146580516Y-61963593D01*
X146612693Y-61918654D01*
X146653457Y-61862147D01*
X146701245Y-61796204D01*
X146754498Y-61722957D01*
X146811655Y-61644536D01*
X146871155Y-61563072D01*
X146931437Y-61480698D01*
X146990940Y-61399544D01*
X147048105Y-61321742D01*
X147101370Y-61249423D01*
X147149174Y-61184718D01*
X147189957Y-61129759D01*
X147222158Y-61086676D01*
X147244216Y-61057602D01*
X147254571Y-61044667D01*
X147259044Y-61040351D01*
X147263236Y-61038312D01*
X147266643Y-61040926D01*
X147269325Y-61049986D01*
X147271341Y-61067285D01*
X147272748Y-61094614D01*
X147273605Y-61133765D01*
X147273970Y-61186533D01*
X147273903Y-61254707D01*
X147273460Y-61340082D01*
X147272702Y-61444449D01*
X147271685Y-61569600D01*
X147271308Y-61614300D01*
X147270169Y-61735395D01*
X147268972Y-61836688D01*
X147267636Y-61920262D01*
X147266077Y-61988204D01*
X147264215Y-62042599D01*
X147261966Y-62085532D01*
X147259248Y-62119089D01*
X147255979Y-62145355D01*
X147252078Y-62166416D01*
X147247461Y-62184357D01*
X147239192Y-62210770D01*
X147215583Y-62272772D01*
X147189685Y-62325573D01*
X147164535Y-62362645D01*
X147163339Y-62364075D01*
X147161168Y-62368424D01*
X147163328Y-62372026D01*
X147171644Y-62374951D01*
X147187940Y-62377269D01*
X147214041Y-62379051D01*
X147251771Y-62380367D01*
X147302956Y-62381286D01*
X147369420Y-62381878D01*
X147452987Y-62382215D01*
X147555483Y-62382365D01*
X147678732Y-62382400D01*
X148210296Y-62382400D01*
X148171523Y-62324783D01*
X148165432Y-62315893D01*
X148154976Y-62301069D01*
X148145579Y-62287422D01*
X148137183Y-62273765D01*
X148129733Y-62258911D01*
X148123173Y-62241670D01*
X148117446Y-62220855D01*
X148112495Y-62195280D01*
X148108266Y-62163755D01*
X148104701Y-62125093D01*
X148101744Y-62078107D01*
X148099340Y-62021608D01*
X148097431Y-61954409D01*
X148095962Y-61875322D01*
X148094876Y-61783160D01*
X148094118Y-61676734D01*
X148093630Y-61554857D01*
X148093358Y-61416341D01*
X148093243Y-61259999D01*
X148093231Y-61084642D01*
X148093265Y-60889082D01*
X148093289Y-60672133D01*
X148093280Y-60549513D01*
X148093243Y-60344447D01*
X148093227Y-60160116D01*
X148093288Y-59995334D01*
X148093484Y-59848916D01*
X148093870Y-59719674D01*
X148094505Y-59606422D01*
X148095444Y-59507975D01*
X148096745Y-59423144D01*
X148098464Y-59350744D01*
X148100659Y-59289589D01*
X148103385Y-59238492D01*
X148106701Y-59196267D01*
X148110662Y-59161727D01*
X148115325Y-59133686D01*
X148120747Y-59110958D01*
X148126986Y-59092356D01*
X148134097Y-59076693D01*
X148142138Y-59062784D01*
X148151166Y-59049441D01*
X148161236Y-59035479D01*
X148172407Y-59019711D01*
X148212197Y-58961867D01*
X147152314Y-58961867D01*
X147190311Y-59024966D01*
X147204993Y-59050005D01*
X147219531Y-59077586D01*
X147231627Y-59105700D01*
X147241532Y-59136551D01*
X147249494Y-59172344D01*
X147255761Y-59215283D01*
X147260582Y-59267574D01*
X147264206Y-59331419D01*
X147266881Y-59409025D01*
X147268857Y-59502594D01*
X147270382Y-59614333D01*
X147271704Y-59746445D01*
X147272613Y-59866434D01*
X147273020Y-59983063D01*
X147272767Y-60078531D01*
X147271857Y-60152556D01*
X147270293Y-60204855D01*
X147268079Y-60235149D01*
X147265220Y-60243156D01*
X147262161Y-60239858D01*
X147244006Y-60218408D01*
X147214275Y-60181889D01*
X147174639Y-60132442D01*
X147126771Y-60072207D01*
X147072343Y-60003327D01*
X147013027Y-59927943D01*
X146950495Y-59848196D01*
X146886421Y-59766228D01*
X146822475Y-59684180D01*
X146760331Y-59604194D01*
X146701661Y-59528411D01*
X146648137Y-59458973D01*
X146601430Y-59398021D01*
X146563214Y-59347696D01*
X146535161Y-59310140D01*
X146518943Y-59287495D01*
X146473635Y-59215212D01*
X146433661Y-59135463D01*
X146412130Y-59067188D01*
X146408827Y-59009844D01*
X146414116Y-58961867D01*
X145282356Y-58962117D01*
X145321867Y-58992722D01*
X145331248Y-59000089D01*
X145394183Y-59054438D01*
X145462997Y-59122259D01*
X145539596Y-59205516D01*
X145625888Y-59306178D01*
X145643052Y-59326847D01*
X145683833Y-59376409D01*
X145733588Y-59437326D01*
X145790955Y-59507898D01*
X145854569Y-59586424D01*
X145923069Y-59671204D01*
X145995090Y-59760537D01*
X146069270Y-59852722D01*
X146084517Y-59871702D01*
X146144246Y-59946060D01*
X146218653Y-60038848D01*
X146291131Y-60129388D01*
X146360314Y-60215978D01*
X146424841Y-60296918D01*
X146483347Y-60370506D01*
X146534470Y-60435044D01*
X146576847Y-60488829D01*
X146609115Y-60530162D01*
X146629910Y-60557342D01*
X146637869Y-60568668D01*
X146636111Y-60572771D01*
X146623230Y-60593334D01*
X146598885Y-60629561D01*
X146564247Y-60679824D01*
X146520486Y-60742492D01*
X146468775Y-60815936D01*
X146410284Y-60898527D01*
X146346184Y-60988636D01*
X146277646Y-61084631D01*
X146205843Y-61184885D01*
X146131944Y-61287768D01*
X146057121Y-61391650D01*
X145982545Y-61494901D01*
X145909387Y-61595892D01*
X145838819Y-61692994D01*
X145772011Y-61784577D01*
X145710135Y-61869011D01*
X145654361Y-61944667D01*
X145605862Y-62009916D01*
X145565807Y-62063128D01*
X145535369Y-62102673D01*
X145514944Y-62128026D01*
X145468899Y-62182295D01*
X145418612Y-62238775D01*
X145371815Y-62288669D01*
X145280651Y-62382400D01*
X144582445Y-62382400D01*
X144651356Y-62382349D01*
X144749607Y-62382091D01*
X144839030Y-62381637D01*
X144917333Y-62381010D01*
X144982223Y-62380235D01*
X145031411Y-62379335D01*
X145062604Y-62378334D01*
X145073511Y-62377257D01*
X145072322Y-62374037D01*
X145062176Y-62356452D01*
X145045040Y-62330158D01*
X145036540Y-62317691D01*
X145027329Y-62303622D01*
X145019233Y-62289351D01*
X145012185Y-62273479D01*
X145006117Y-62254609D01*
X145000961Y-62231341D01*
X144996651Y-62202278D01*
X144993119Y-62166021D01*
X144990297Y-62121170D01*
X144988118Y-62066328D01*
X144986514Y-62000097D01*
X144985419Y-61921077D01*
X144984765Y-61827871D01*
X144984484Y-61719079D01*
X144984509Y-61593303D01*
X144984772Y-61449145D01*
X144985206Y-61285207D01*
X144985745Y-61100089D01*
X144986279Y-60921232D01*
X144986805Y-60762374D01*
X144987350Y-60623316D01*
X144987945Y-60502665D01*
X144988619Y-60399028D01*
X144989403Y-60311011D01*
X144990326Y-60237223D01*
X144991419Y-60176269D01*
X144992712Y-60126757D01*
X144994235Y-60087293D01*
X144996019Y-60056484D01*
X144998092Y-60032938D01*
X145000486Y-60015260D01*
X145003230Y-60002059D01*
X145006356Y-59991940D01*
X145009892Y-59983511D01*
X145013791Y-59975375D01*
X145033438Y-59938544D01*
X145052225Y-59908391D01*
X145053272Y-59906908D01*
X145067602Y-59884659D01*
X145073511Y-59871702D01*
X145072504Y-59871249D01*
X145055305Y-59869803D01*
X145018656Y-59868480D01*
X144964962Y-59867316D01*
X144896630Y-59866347D01*
X144816064Y-59865611D01*
X144725670Y-59865142D01*
X144627853Y-59864978D01*
X144182195Y-59864978D01*
X144179120Y-61041845D01*
X144176045Y-62218711D01*
X144149407Y-62277622D01*
X144137485Y-62302183D01*
X144120246Y-62332434D01*
X144107074Y-62349560D01*
X144099076Y-62357591D01*
X144091378Y-62372493D01*
X143799942Y-62372493D01*
X143799474Y-62280029D01*
X143799050Y-62164617D01*
X143798706Y-62034160D01*
X143798434Y-61887716D01*
X143798227Y-61724344D01*
X143798076Y-61543101D01*
X143797972Y-61343048D01*
X143797908Y-61123241D01*
X143797876Y-60882739D01*
X143797867Y-60620602D01*
X143797867Y-58429031D01*
X143836249Y-58390649D01*
X143863355Y-58366911D01*
X143890253Y-58355111D01*
X143926560Y-58352267D01*
X143978489Y-58352267D01*
X143978489Y-58440206D01*
X143980427Y-58490102D01*
X143999199Y-58600523D01*
X144036217Y-58701987D01*
X144089369Y-58793152D01*
X144156546Y-58872673D01*
X144235638Y-58939205D01*
X144324534Y-58991406D01*
X144421125Y-59027930D01*
X144523300Y-59047434D01*
X144628950Y-59048573D01*
X144735964Y-59030005D01*
X144842232Y-58990384D01*
X144939219Y-58932516D01*
X145024293Y-58857684D01*
X145093015Y-58769615D01*
X145143918Y-58670616D01*
X145175535Y-58562993D01*
X145186400Y-58449054D01*
X145186400Y-58352267D01*
X146806753Y-58352267D01*
X147017897Y-58352280D01*
X147222020Y-58352330D01*
X147405686Y-58352430D01*
X147569991Y-58352592D01*
X147716029Y-58352829D01*
X147844894Y-58353153D01*
X147957683Y-58353575D01*
X148055488Y-58354109D01*
X148139404Y-58354767D01*
X148210527Y-58355561D01*
X148269950Y-58356504D01*
X148318768Y-58357608D01*
X148358077Y-58358884D01*
X148388969Y-58360347D01*
X148412541Y-58362007D01*
X148429886Y-58363878D01*
X148442099Y-58365972D01*
X148450275Y-58368300D01*
X148455508Y-58370876D01*
X148461504Y-58374445D01*
X148468279Y-58377978D01*
X148474478Y-58381488D01*
X148480126Y-58385918D01*
X148485247Y-58392208D01*
X148489869Y-58401301D01*
X148494015Y-58414139D01*
X148497713Y-58431662D01*
X148500987Y-58454813D01*
X148503863Y-58484534D01*
X148506367Y-58521765D01*
X148508524Y-58567449D01*
X148510360Y-58622527D01*
X148511900Y-58687941D01*
X148513170Y-58764633D01*
X148514195Y-58853544D01*
X148515001Y-58955617D01*
X148515034Y-58961867D01*
X148515614Y-59071792D01*
G36*
X148515614Y-59071792D02*
G01*
X148516059Y-59203011D01*
X148516362Y-59350216D01*
X148516548Y-59514349D01*
X148516642Y-59696352D01*
X148516671Y-59897165D01*
X148516661Y-60117732D01*
X148516636Y-60358992D01*
X148516622Y-60621889D01*
X148516622Y-60664040D01*
X148516646Y-60924668D01*
X148516685Y-61163796D01*
X148516708Y-61382360D01*
X148516687Y-61581295D01*
X148516593Y-61761535D01*
X148516395Y-61924015D01*
X148516063Y-62069670D01*
X148515569Y-62199434D01*
X148514883Y-62314243D01*
X148513976Y-62415030D01*
X148512817Y-62502730D01*
X148511378Y-62578279D01*
X148509629Y-62642611D01*
X148507540Y-62696661D01*
X148505083Y-62741363D01*
X148502227Y-62777652D01*
X148498943Y-62806463D01*
X148495202Y-62828731D01*
X148490974Y-62845390D01*
X148486229Y-62857375D01*
X148480939Y-62865621D01*
X148475073Y-62871062D01*
X148468602Y-62874634D01*
X148461497Y-62877270D01*
X148453728Y-62879906D01*
X148445266Y-62883477D01*
X148440908Y-62885145D01*
X148432395Y-62887111D01*
X148419694Y-62888911D01*
X148401885Y-62890555D01*
X148378049Y-62892047D01*
X148347266Y-62893397D01*
X148308617Y-62894611D01*
X148261182Y-62895697D01*
X148204043Y-62896661D01*
X148136279Y-62897511D01*
X148056971Y-62898253D01*
X147965199Y-62898897D01*
X147860044Y-62899447D01*
X147740587Y-62899913D01*
X147605908Y-62900300D01*
X147455088Y-62900616D01*
X147287206Y-62900869D01*
X147101345Y-62901066D01*
X146896583Y-62901213D01*
X146672002Y-62901318D01*
X146426682Y-62901389D01*
X146159704Y-62901432D01*
X146121321Y-62901437D01*
X145855922Y-62901480D01*
X145612050Y-62901525D01*
X145388783Y-62901548D01*
X145185196Y-62901524D01*
X145000367Y-62901430D01*
X144833373Y-62901243D01*
X144683290Y-62900939D01*
X144549196Y-62900494D01*
X144430166Y-62899885D01*
X144325279Y-62899089D01*
X144233610Y-62898080D01*
X144154237Y-62896837D01*
X144086237Y-62895335D01*
X144028686Y-62893551D01*
X143980662Y-62891461D01*
X143941240Y-62889042D01*
X143909499Y-62886270D01*
X143884514Y-62883121D01*
X143865364Y-62879572D01*
X143851123Y-62875598D01*
X143840871Y-62871178D01*
X143833682Y-62866286D01*
X143828635Y-62860900D01*
X143824805Y-62854996D01*
X143821271Y-62848549D01*
X143817108Y-62841537D01*
X143816025Y-62839687D01*
X143813813Y-62834180D01*
X143811786Y-62825868D01*
X143809938Y-62813809D01*
X143808261Y-62797063D01*
X143806745Y-62774687D01*
X143805383Y-62745740D01*
X143804167Y-62709280D01*
X143803089Y-62664367D01*
X143802140Y-62610057D01*
X143801312Y-62545410D01*
X143800597Y-62469484D01*
X143799987Y-62381338D01*
X143799942Y-62372493D01*
X144091378Y-62372493D01*
X144095260Y-62373765D01*
X144118520Y-62375791D01*
X144160874Y-62377626D01*
X144220132Y-62379227D01*
X144294107Y-62380549D01*
X144380610Y-62381548D01*
X144477452Y-62382180D01*
X144582445Y-62382400D01*
X145280651Y-62382400D01*
X146435090Y-62382400D01*
X146434456Y-62306200D01*
X146435574Y-62264160D01*
X146441304Y-62228334D01*
X146453890Y-62190772D01*
X146475568Y-62142577D01*
X146478789Y-62135897D01*
X146504188Y-62086359D01*
X146530996Y-62038369D01*
X146553917Y-62001466D01*
X146558485Y-61994834D01*
X146580516Y-61963593D01*
X146612693Y-61918654D01*
X146653457Y-61862147D01*
X146701245Y-61796204D01*
X146754498Y-61722957D01*
X146811655Y-61644536D01*
X146871155Y-61563072D01*
X146931437Y-61480698D01*
X146990940Y-61399544D01*
X147048105Y-61321742D01*
X147101370Y-61249423D01*
X147149174Y-61184718D01*
X147189957Y-61129759D01*
X147222158Y-61086676D01*
X147244216Y-61057602D01*
X147254571Y-61044667D01*
X147259044Y-61040351D01*
X147263236Y-61038312D01*
X147266643Y-61040926D01*
X147269325Y-61049986D01*
X147271341Y-61067285D01*
X147272748Y-61094614D01*
X147273605Y-61133765D01*
X147273970Y-61186533D01*
X147273903Y-61254707D01*
X147273460Y-61340082D01*
X147272702Y-61444449D01*
X147271685Y-61569600D01*
X147271308Y-61614300D01*
X147270169Y-61735395D01*
X147268972Y-61836688D01*
X147267636Y-61920262D01*
X147266077Y-61988204D01*
X147264215Y-62042599D01*
X147261966Y-62085532D01*
X147259248Y-62119089D01*
X147255979Y-62145355D01*
X147252078Y-62166416D01*
X147247461Y-62184357D01*
X147239192Y-62210770D01*
X147215583Y-62272772D01*
X147189685Y-62325573D01*
X147164535Y-62362645D01*
X147163339Y-62364075D01*
X147161168Y-62368424D01*
X147163328Y-62372026D01*
X147171644Y-62374951D01*
X147187940Y-62377269D01*
X147214041Y-62379051D01*
X147251771Y-62380367D01*
X147302956Y-62381286D01*
X147369420Y-62381878D01*
X147452987Y-62382215D01*
X147555483Y-62382365D01*
X147678732Y-62382400D01*
X148210296Y-62382400D01*
X148171523Y-62324783D01*
X148165432Y-62315893D01*
X148154976Y-62301069D01*
X148145579Y-62287422D01*
X148137183Y-62273765D01*
X148129733Y-62258911D01*
X148123173Y-62241670D01*
X148117446Y-62220855D01*
X148112495Y-62195280D01*
X148108266Y-62163755D01*
X148104701Y-62125093D01*
X148101744Y-62078107D01*
X148099340Y-62021608D01*
X148097431Y-61954409D01*
X148095962Y-61875322D01*
X148094876Y-61783160D01*
X148094118Y-61676734D01*
X148093630Y-61554857D01*
X148093358Y-61416341D01*
X148093243Y-61259999D01*
X148093231Y-61084642D01*
X148093265Y-60889082D01*
X148093289Y-60672133D01*
X148093280Y-60549513D01*
X148093243Y-60344447D01*
X148093227Y-60160116D01*
X148093288Y-59995334D01*
X148093484Y-59848916D01*
X148093870Y-59719674D01*
X148094505Y-59606422D01*
X148095444Y-59507975D01*
X148096745Y-59423144D01*
X148098464Y-59350744D01*
X148100659Y-59289589D01*
X148103385Y-59238492D01*
X148106701Y-59196267D01*
X148110662Y-59161727D01*
X148115325Y-59133686D01*
X148120747Y-59110958D01*
X148126986Y-59092356D01*
X148134097Y-59076693D01*
X148142138Y-59062784D01*
X148151166Y-59049441D01*
X148161236Y-59035479D01*
X148172407Y-59019711D01*
X148212197Y-58961867D01*
X147152314Y-58961867D01*
X147190311Y-59024966D01*
X147204993Y-59050005D01*
X147219531Y-59077586D01*
X147231627Y-59105700D01*
X147241532Y-59136551D01*
X147249494Y-59172344D01*
X147255761Y-59215283D01*
X147260582Y-59267574D01*
X147264206Y-59331419D01*
X147266881Y-59409025D01*
X147268857Y-59502594D01*
X147270382Y-59614333D01*
X147271704Y-59746445D01*
X147272613Y-59866434D01*
X147273020Y-59983063D01*
X147272767Y-60078531D01*
X147271857Y-60152556D01*
X147270293Y-60204855D01*
X147268079Y-60235149D01*
X147265220Y-60243156D01*
X147262161Y-60239858D01*
X147244006Y-60218408D01*
X147214275Y-60181889D01*
X147174639Y-60132442D01*
X147126771Y-60072207D01*
X147072343Y-60003327D01*
X147013027Y-59927943D01*
X146950495Y-59848196D01*
X146886421Y-59766228D01*
X146822475Y-59684180D01*
X146760331Y-59604194D01*
X146701661Y-59528411D01*
X146648137Y-59458973D01*
X146601430Y-59398021D01*
X146563214Y-59347696D01*
X146535161Y-59310140D01*
X146518943Y-59287495D01*
X146473635Y-59215212D01*
X146433661Y-59135463D01*
X146412130Y-59067188D01*
X146408827Y-59009844D01*
X146414116Y-58961867D01*
X145282356Y-58962117D01*
X145321867Y-58992722D01*
X145331248Y-59000089D01*
X145394183Y-59054438D01*
X145462997Y-59122259D01*
X145539596Y-59205516D01*
X145625888Y-59306178D01*
X145643052Y-59326847D01*
X145683833Y-59376409D01*
X145733588Y-59437326D01*
X145790955Y-59507898D01*
X145854569Y-59586424D01*
X145923069Y-59671204D01*
X145995090Y-59760537D01*
X146069270Y-59852722D01*
X146084517Y-59871702D01*
X146144246Y-59946060D01*
X146218653Y-60038848D01*
X146291131Y-60129388D01*
X146360314Y-60215978D01*
X146424841Y-60296918D01*
X146483347Y-60370506D01*
X146534470Y-60435044D01*
X146576847Y-60488829D01*
X146609115Y-60530162D01*
X146629910Y-60557342D01*
X146637869Y-60568668D01*
X146636111Y-60572771D01*
X146623230Y-60593334D01*
X146598885Y-60629561D01*
X146564247Y-60679824D01*
X146520486Y-60742492D01*
X146468775Y-60815936D01*
X146410284Y-60898527D01*
X146346184Y-60988636D01*
X146277646Y-61084631D01*
X146205843Y-61184885D01*
X146131944Y-61287768D01*
X146057121Y-61391650D01*
X145982545Y-61494901D01*
X145909387Y-61595892D01*
X145838819Y-61692994D01*
X145772011Y-61784577D01*
X145710135Y-61869011D01*
X145654361Y-61944667D01*
X145605862Y-62009916D01*
X145565807Y-62063128D01*
X145535369Y-62102673D01*
X145514944Y-62128026D01*
X145468899Y-62182295D01*
X145418612Y-62238775D01*
X145371815Y-62288669D01*
X145280651Y-62382400D01*
X144582445Y-62382400D01*
X144651356Y-62382349D01*
X144749607Y-62382091D01*
X144839030Y-62381637D01*
X144917333Y-62381010D01*
X144982223Y-62380235D01*
X145031411Y-62379335D01*
X145062604Y-62378334D01*
X145073511Y-62377257D01*
X145072322Y-62374037D01*
X145062176Y-62356452D01*
X145045040Y-62330158D01*
X145036540Y-62317691D01*
X145027329Y-62303622D01*
X145019233Y-62289351D01*
X145012185Y-62273479D01*
X145006117Y-62254609D01*
X145000961Y-62231341D01*
X144996651Y-62202278D01*
X144993119Y-62166021D01*
X144990297Y-62121170D01*
X144988118Y-62066328D01*
X144986514Y-62000097D01*
X144985419Y-61921077D01*
X144984765Y-61827871D01*
X144984484Y-61719079D01*
X144984509Y-61593303D01*
X144984772Y-61449145D01*
X144985206Y-61285207D01*
X144985745Y-61100089D01*
X144986279Y-60921232D01*
X144986805Y-60762374D01*
X144987350Y-60623316D01*
X144987945Y-60502665D01*
X144988619Y-60399028D01*
X144989403Y-60311011D01*
X144990326Y-60237223D01*
X144991419Y-60176269D01*
X144992712Y-60126757D01*
X144994235Y-60087293D01*
X144996019Y-60056484D01*
X144998092Y-60032938D01*
X145000486Y-60015260D01*
X145003230Y-60002059D01*
X145006356Y-59991940D01*
X145009892Y-59983511D01*
X145013791Y-59975375D01*
X145033438Y-59938544D01*
X145052225Y-59908391D01*
X145053272Y-59906908D01*
X145067602Y-59884659D01*
X145073511Y-59871702D01*
X145072504Y-59871249D01*
X145055305Y-59869803D01*
X145018656Y-59868480D01*
X144964962Y-59867316D01*
X144896630Y-59866347D01*
X144816064Y-59865611D01*
X144725670Y-59865142D01*
X144627853Y-59864978D01*
X144182195Y-59864978D01*
X144179120Y-61041845D01*
X144176045Y-62218711D01*
X144149407Y-62277622D01*
X144137485Y-62302183D01*
X144120246Y-62332434D01*
X144107074Y-62349560D01*
X144099076Y-62357591D01*
X144091378Y-62372493D01*
X143799942Y-62372493D01*
X143799474Y-62280029D01*
X143799050Y-62164617D01*
X143798706Y-62034160D01*
X143798434Y-61887716D01*
X143798227Y-61724344D01*
X143798076Y-61543101D01*
X143797972Y-61343048D01*
X143797908Y-61123241D01*
X143797876Y-60882739D01*
X143797867Y-60620602D01*
X143797867Y-58429031D01*
X143836249Y-58390649D01*
X143863355Y-58366911D01*
X143890253Y-58355111D01*
X143926560Y-58352267D01*
X143978489Y-58352267D01*
X143978489Y-58440206D01*
X143980427Y-58490102D01*
X143999199Y-58600523D01*
X144036217Y-58701987D01*
X144089369Y-58793152D01*
X144156546Y-58872673D01*
X144235638Y-58939205D01*
X144324534Y-58991406D01*
X144421125Y-59027930D01*
X144523300Y-59047434D01*
X144628950Y-59048573D01*
X144735964Y-59030005D01*
X144842232Y-58990384D01*
X144939219Y-58932516D01*
X145024293Y-58857684D01*
X145093015Y-58769615D01*
X145143918Y-58670616D01*
X145175535Y-58562993D01*
X145186400Y-58449054D01*
X145186400Y-58352267D01*
X146806753Y-58352267D01*
X147017897Y-58352280D01*
X147222020Y-58352330D01*
X147405686Y-58352430D01*
X147569991Y-58352592D01*
X147716029Y-58352829D01*
X147844894Y-58353153D01*
X147957683Y-58353575D01*
X148055488Y-58354109D01*
X148139404Y-58354767D01*
X148210527Y-58355561D01*
X148269950Y-58356504D01*
X148318768Y-58357608D01*
X148358077Y-58358884D01*
X148388969Y-58360347D01*
X148412541Y-58362007D01*
X148429886Y-58363878D01*
X148442099Y-58365972D01*
X148450275Y-58368300D01*
X148455508Y-58370876D01*
X148461504Y-58374445D01*
X148468279Y-58377978D01*
X148474478Y-58381488D01*
X148480126Y-58385918D01*
X148485247Y-58392208D01*
X148489869Y-58401301D01*
X148494015Y-58414139D01*
X148497713Y-58431662D01*
X148500987Y-58454813D01*
X148503863Y-58484534D01*
X148506367Y-58521765D01*
X148508524Y-58567449D01*
X148510360Y-58622527D01*
X148511900Y-58687941D01*
X148513170Y-58764633D01*
X148514195Y-58853544D01*
X148515001Y-58955617D01*
X148515034Y-58961867D01*
X148515614Y-59071792D01*
G37*
X130763764Y-80804612D02*
X130852450Y-80806413D01*
X130939419Y-80809212D01*
X131019782Y-80812930D01*
X131088646Y-80817490D01*
X131141120Y-80822813D01*
X131331921Y-80854241D01*
X131605623Y-80921153D01*
X131869787Y-81011971D01*
X132123047Y-81125897D01*
X132364041Y-81262133D01*
X132591402Y-81419882D01*
X132803767Y-81598344D01*
X132999770Y-81796723D01*
X133178048Y-82014218D01*
X133256872Y-82125017D01*
X133404354Y-82365637D01*
X133528081Y-82617714D01*
X133627795Y-82880614D01*
X133703241Y-83153706D01*
X133754162Y-83436354D01*
X133757963Y-83468472D01*
X133765334Y-83562014D01*
X133770066Y-83671854D01*
X133772161Y-83790887D01*
X133771618Y-83912009D01*
X133768437Y-84028118D01*
X133762618Y-84132107D01*
X133754162Y-84216875D01*
X133740945Y-84305709D01*
X133682808Y-84582383D01*
X133600958Y-84849070D01*
X133496385Y-85104573D01*
X133370079Y-85347698D01*
X133223030Y-85577247D01*
X133056227Y-85792026D01*
X132870660Y-85990838D01*
X132667320Y-86172487D01*
X132447195Y-86335777D01*
X132211277Y-86479513D01*
X131960553Y-86602498D01*
X131696016Y-86703536D01*
X131614934Y-86728667D01*
X131487338Y-86763083D01*
X131354872Y-86793706D01*
X131227271Y-86818341D01*
X131114271Y-86834789D01*
X131113762Y-86834847D01*
X131068417Y-86838531D01*
X131005909Y-86841663D01*
X130931083Y-86844197D01*
X130848783Y-86846083D01*
X130763854Y-86847274D01*
X130681142Y-86847723D01*
X130605490Y-86847382D01*
X130541744Y-86846203D01*
X130494749Y-86844138D01*
X130469349Y-86841141D01*
X130439583Y-86833164D01*
X130439583Y-85916186D01*
X130714089Y-85916504D01*
X130769233Y-85916352D01*
X130894742Y-85913680D01*
X131002894Y-85907016D01*
X131100130Y-85895463D01*
X131192893Y-85878129D01*
X131287623Y-85854118D01*
X131390763Y-85822535D01*
X131574252Y-85753336D01*
X131782307Y-85649931D01*
X131975845Y-85525719D01*
X132153579Y-85382168D01*
X132314219Y-85220748D01*
X132456478Y-85042928D01*
X132579069Y-84850177D01*
X132680701Y-84643965D01*
X132760089Y-84425759D01*
X132815943Y-84197031D01*
X132817181Y-84190233D01*
X132829149Y-84100571D01*
X132837116Y-83993837D01*
X132841074Y-83877234D01*
X132841015Y-83757965D01*
X132836934Y-83643234D01*
X132828823Y-83540244D01*
X132816674Y-83456197D01*
X132796515Y-83363629D01*
X132728456Y-83134193D01*
X132637234Y-82916394D01*
X132523527Y-82711520D01*
X132388015Y-82520861D01*
X132231378Y-82345705D01*
X132172099Y-82288408D01*
X132019702Y-82159326D01*
X131857062Y-82047977D01*
X131676511Y-81948879D01*
X131600803Y-81912911D01*
X131418168Y-81838839D01*
X131237580Y-81785075D01*
X131053141Y-81750382D01*
X130858953Y-81733523D01*
X130649119Y-81733259D01*
X130439583Y-81740530D01*
X130439583Y-80820065D01*
X130469349Y-80812088D01*
X130489697Y-80808945D01*
X130536330Y-80805975D01*
X130600813Y-80804315D01*
X130678255Y-80803887D01*
X130763764Y-80804612D01*
G36*
X130763764Y-80804612D02*
G01*
X130852450Y-80806413D01*
X130939419Y-80809212D01*
X131019782Y-80812930D01*
X131088646Y-80817490D01*
X131141120Y-80822813D01*
X131331921Y-80854241D01*
X131605623Y-80921153D01*
X131869787Y-81011971D01*
X132123047Y-81125897D01*
X132364041Y-81262133D01*
X132591402Y-81419882D01*
X132803767Y-81598344D01*
X132999770Y-81796723D01*
X133178048Y-82014218D01*
X133256872Y-82125017D01*
X133404354Y-82365637D01*
X133528081Y-82617714D01*
X133627795Y-82880614D01*
X133703241Y-83153706D01*
X133754162Y-83436354D01*
X133757963Y-83468472D01*
X133765334Y-83562014D01*
X133770066Y-83671854D01*
X133772161Y-83790887D01*
X133771618Y-83912009D01*
X133768437Y-84028118D01*
X133762618Y-84132107D01*
X133754162Y-84216875D01*
X133740945Y-84305709D01*
X133682808Y-84582383D01*
X133600958Y-84849070D01*
X133496385Y-85104573D01*
X133370079Y-85347698D01*
X133223030Y-85577247D01*
X133056227Y-85792026D01*
X132870660Y-85990838D01*
X132667320Y-86172487D01*
X132447195Y-86335777D01*
X132211277Y-86479513D01*
X131960553Y-86602498D01*
X131696016Y-86703536D01*
X131614934Y-86728667D01*
X131487338Y-86763083D01*
X131354872Y-86793706D01*
X131227271Y-86818341D01*
X131114271Y-86834789D01*
X131113762Y-86834847D01*
X131068417Y-86838531D01*
X131005909Y-86841663D01*
X130931083Y-86844197D01*
X130848783Y-86846083D01*
X130763854Y-86847274D01*
X130681142Y-86847723D01*
X130605490Y-86847382D01*
X130541744Y-86846203D01*
X130494749Y-86844138D01*
X130469349Y-86841141D01*
X130439583Y-86833164D01*
X130439583Y-85916186D01*
X130714089Y-85916504D01*
X130769233Y-85916352D01*
X130894742Y-85913680D01*
X131002894Y-85907016D01*
X131100130Y-85895463D01*
X131192893Y-85878129D01*
X131287623Y-85854118D01*
X131390763Y-85822535D01*
X131574252Y-85753336D01*
X131782307Y-85649931D01*
X131975845Y-85525719D01*
X132153579Y-85382168D01*
X132314219Y-85220748D01*
X132456478Y-85042928D01*
X132579069Y-84850177D01*
X132680701Y-84643965D01*
X132760089Y-84425759D01*
X132815943Y-84197031D01*
X132817181Y-84190233D01*
X132829149Y-84100571D01*
X132837116Y-83993837D01*
X132841074Y-83877234D01*
X132841015Y-83757965D01*
X132836934Y-83643234D01*
X132828823Y-83540244D01*
X132816674Y-83456197D01*
X132796515Y-83363629D01*
X132728456Y-83134193D01*
X132637234Y-82916394D01*
X132523527Y-82711520D01*
X132388015Y-82520861D01*
X132231378Y-82345705D01*
X132172099Y-82288408D01*
X132019702Y-82159326D01*
X131857062Y-82047977D01*
X131676511Y-81948879D01*
X131600803Y-81912911D01*
X131418168Y-81838839D01*
X131237580Y-81785075D01*
X131053141Y-81750382D01*
X130858953Y-81733523D01*
X130649119Y-81733259D01*
X130439583Y-81740530D01*
X130439583Y-80820065D01*
X130469349Y-80812088D01*
X130489697Y-80808945D01*
X130536330Y-80805975D01*
X130600813Y-80804315D01*
X130678255Y-80803887D01*
X130763764Y-80804612D01*
G37*
X125587787Y-80804008D02*
X125699313Y-80804968D01*
X125832615Y-80809356D01*
X125952480Y-80817981D01*
X126066300Y-80831592D01*
X126181470Y-80850938D01*
X126305381Y-80876769D01*
X126405691Y-80901267D01*
X126662400Y-80982322D01*
X126912491Y-81087517D01*
X127153515Y-81215325D01*
X127383027Y-81364214D01*
X127598578Y-81532656D01*
X127797720Y-81719121D01*
X127978007Y-81922079D01*
X127981427Y-81926325D01*
X128142924Y-82148177D01*
X128283879Y-82385877D01*
X128403609Y-82637809D01*
X128501431Y-82902354D01*
X128576661Y-83177894D01*
X128628617Y-83462812D01*
X128634662Y-83520752D01*
X128639834Y-83607298D01*
X128642981Y-83707925D01*
X128644105Y-83816009D01*
X128643208Y-83924923D01*
X128640292Y-84028046D01*
X128635359Y-84118751D01*
X128628410Y-84190416D01*
X128625865Y-84209155D01*
X128574588Y-84487092D01*
X128499289Y-84758532D01*
X128400975Y-85021089D01*
X128280652Y-85272378D01*
X128139327Y-85510012D01*
X127978007Y-85731607D01*
X127941460Y-85775859D01*
X127807650Y-85921982D01*
X127656573Y-86066431D01*
X127494786Y-86203545D01*
X127328844Y-86327667D01*
X127165303Y-86433135D01*
X127109501Y-86465068D01*
X126896315Y-86572465D01*
X126670575Y-86665284D01*
X126438614Y-86741376D01*
X126206763Y-86798594D01*
X125981354Y-86834789D01*
X125974289Y-86835526D01*
X125925821Y-86838981D01*
X125857842Y-86842126D01*
X125776109Y-86844766D01*
X125686376Y-86846709D01*
X125594401Y-86847762D01*
X125306667Y-86849479D01*
X125306667Y-85916776D01*
X125594401Y-85916799D01*
X125665141Y-85916664D01*
X125750832Y-85915769D01*
X125819119Y-85913702D01*
X125875391Y-85910078D01*
X125925042Y-85904513D01*
X125973462Y-85896622D01*
X126026044Y-85886021D01*
X126031745Y-85884794D01*
X126265262Y-85821206D01*
X126486309Y-85734624D01*
X126693891Y-85625719D01*
X126887010Y-85495163D01*
X127064667Y-85343630D01*
X127225866Y-85171791D01*
X127369608Y-84980319D01*
X127379064Y-84965967D01*
X127435440Y-84871569D01*
X127491718Y-84763892D01*
X127544815Y-84649878D01*
X127591648Y-84536469D01*
X127629136Y-84430611D01*
X127654196Y-84339244D01*
X127663561Y-84296250D01*
X125901979Y-84296250D01*
X125901979Y-83356979D01*
X127663561Y-83356979D01*
X127654196Y-83313984D01*
X127648102Y-83288388D01*
X127620625Y-83197488D01*
X127582318Y-83093702D01*
X127536164Y-82983866D01*
X127485145Y-82874820D01*
X127432244Y-82773402D01*
X127380446Y-82686449D01*
X127355807Y-82649379D01*
X127215547Y-82466430D01*
X127055951Y-82300418D01*
X126878780Y-82152544D01*
X126685799Y-82024009D01*
X126478768Y-81916012D01*
X126259451Y-81829754D01*
X126029611Y-81766436D01*
X125995711Y-81759308D01*
X125949012Y-81751008D01*
X125901524Y-81744996D01*
X125848112Y-81740914D01*
X125783645Y-81738408D01*
X125702990Y-81737120D01*
X125601015Y-81736695D01*
X125306665Y-81736406D01*
X125306667Y-80803750D01*
X125587787Y-80804008D01*
G36*
X125587787Y-80804008D02*
G01*
X125699313Y-80804968D01*
X125832615Y-80809356D01*
X125952480Y-80817981D01*
X126066300Y-80831592D01*
X126181470Y-80850938D01*
X126305381Y-80876769D01*
X126405691Y-80901267D01*
X126662400Y-80982322D01*
X126912491Y-81087517D01*
X127153515Y-81215325D01*
X127383027Y-81364214D01*
X127598578Y-81532656D01*
X127797720Y-81719121D01*
X127978007Y-81922079D01*
X127981427Y-81926325D01*
X128142924Y-82148177D01*
X128283879Y-82385877D01*
X128403609Y-82637809D01*
X128501431Y-82902354D01*
X128576661Y-83177894D01*
X128628617Y-83462812D01*
X128634662Y-83520752D01*
X128639834Y-83607298D01*
X128642981Y-83707925D01*
X128644105Y-83816009D01*
X128643208Y-83924923D01*
X128640292Y-84028046D01*
X128635359Y-84118751D01*
X128628410Y-84190416D01*
X128625865Y-84209155D01*
X128574588Y-84487092D01*
X128499289Y-84758532D01*
X128400975Y-85021089D01*
X128280652Y-85272378D01*
X128139327Y-85510012D01*
X127978007Y-85731607D01*
X127941460Y-85775859D01*
X127807650Y-85921982D01*
X127656573Y-86066431D01*
X127494786Y-86203545D01*
X127328844Y-86327667D01*
X127165303Y-86433135D01*
X127109501Y-86465068D01*
X126896315Y-86572465D01*
X126670575Y-86665284D01*
X126438614Y-86741376D01*
X126206763Y-86798594D01*
X125981354Y-86834789D01*
X125974289Y-86835526D01*
X125925821Y-86838981D01*
X125857842Y-86842126D01*
X125776109Y-86844766D01*
X125686376Y-86846709D01*
X125594401Y-86847762D01*
X125306667Y-86849479D01*
X125306667Y-85916776D01*
X125594401Y-85916799D01*
X125665141Y-85916664D01*
X125750832Y-85915769D01*
X125819119Y-85913702D01*
X125875391Y-85910078D01*
X125925042Y-85904513D01*
X125973462Y-85896622D01*
X126026044Y-85886021D01*
X126031745Y-85884794D01*
X126265262Y-85821206D01*
X126486309Y-85734624D01*
X126693891Y-85625719D01*
X126887010Y-85495163D01*
X127064667Y-85343630D01*
X127225866Y-85171791D01*
X127369608Y-84980319D01*
X127379064Y-84965967D01*
X127435440Y-84871569D01*
X127491718Y-84763892D01*
X127544815Y-84649878D01*
X127591648Y-84536469D01*
X127629136Y-84430611D01*
X127654196Y-84339244D01*
X127663561Y-84296250D01*
X125901979Y-84296250D01*
X125901979Y-83356979D01*
X127663561Y-83356979D01*
X127654196Y-83313984D01*
X127648102Y-83288388D01*
X127620625Y-83197488D01*
X127582318Y-83093702D01*
X127536164Y-82983866D01*
X127485145Y-82874820D01*
X127432244Y-82773402D01*
X127380446Y-82686449D01*
X127355807Y-82649379D01*
X127215547Y-82466430D01*
X127055951Y-82300418D01*
X126878780Y-82152544D01*
X126685799Y-82024009D01*
X126478768Y-81916012D01*
X126259451Y-81829754D01*
X126029611Y-81766436D01*
X125995711Y-81759308D01*
X125949012Y-81751008D01*
X125901524Y-81744996D01*
X125848112Y-81740914D01*
X125783645Y-81738408D01*
X125702990Y-81737120D01*
X125601015Y-81736695D01*
X125306665Y-81736406D01*
X125306667Y-80803750D01*
X125587787Y-80804008D01*
G37*
%TD*%
M02*
