%TF.GenerationSoftware,KiCad,Pcbnew,7.0.7*%
%TF.CreationDate,2024-02-22T22:38:35+05:30*%
%TF.ProjectId,Digital_Diya,44696769-7461-46c5-9f44-6979612e6b69,rev?*%
%TF.SameCoordinates,Original*%
%TF.FileFunction,Copper,L2,Bot*%
%TF.FilePolarity,Positive*%
%FSLAX46Y46*%
G04 Gerber Fmt 4.6, Leading zero omitted, Abs format (unit mm)*
G04 Created by KiCad (PCBNEW 7.0.7) date 2024-02-22 22:38:35*
%MOMM*%
%LPD*%
G01*
G04 APERTURE LIST*
%TA.AperFunction,ComponentPad*%
%ADD10R,1.524000X1.524000*%
%TD*%
%TA.AperFunction,ComponentPad*%
%ADD11C,1.524000*%
%TD*%
%TA.AperFunction,ComponentPad*%
%ADD12C,1.500000*%
%TD*%
%TA.AperFunction,ComponentPad*%
%ADD13R,1.700000X1.700000*%
%TD*%
%TA.AperFunction,ComponentPad*%
%ADD14O,1.700000X1.700000*%
%TD*%
%TA.AperFunction,ComponentPad*%
%ADD15C,1.600000*%
%TD*%
%TA.AperFunction,ComponentPad*%
%ADD16O,1.600000X1.600000*%
%TD*%
%TA.AperFunction,ComponentPad*%
%ADD17R,1.800000X1.800000*%
%TD*%
%TA.AperFunction,ComponentPad*%
%ADD18C,1.800000*%
%TD*%
%TA.AperFunction,ComponentPad*%
%ADD19R,1.600000X1.600000*%
%TD*%
%TA.AperFunction,ComponentPad*%
%ADD20O,2.200000X3.500000*%
%TD*%
%TA.AperFunction,ComponentPad*%
%ADD21R,1.500000X2.500000*%
%TD*%
%TA.AperFunction,ComponentPad*%
%ADD22O,1.500000X2.500000*%
%TD*%
%TA.AperFunction,Conductor*%
%ADD23C,0.800000*%
%TD*%
%TA.AperFunction,Conductor*%
%ADD24C,0.300000*%
%TD*%
G04 APERTURE END LIST*
D10*
%TO.P,BT1,1,+*%
%TO.N,+3.3V*%
X119380000Y-86360000D03*
D11*
%TO.P,BT1,2,-*%
%TO.N,Net-(BT1--)*%
X139446000Y-86360000D03*
%TD*%
D12*
%TO.P,R2,1*%
%TO.N,/LDR*%
X163285000Y-86710000D03*
%TO.P,R2,2*%
%TO.N,GND*%
X163285000Y-83310000D03*
%TD*%
D13*
%TO.P,MK1,1,-*%
%TO.N,GND*%
X170180000Y-83820000D03*
D14*
%TO.P,MK1,2,+*%
%TO.N,/MIC*%
X170180000Y-86360000D03*
%TD*%
D15*
%TO.P,R1,1*%
%TO.N,+3.3V*%
X149860000Y-66040000D03*
D16*
%TO.P,R1,2*%
%TO.N,/LDR*%
X165100000Y-66040000D03*
%TD*%
D17*
%TO.P,D1,1,K*%
%TO.N,Net-(D1-K)*%
X154940000Y-86360000D03*
D18*
%TO.P,D1,2,A*%
%TO.N,/LED*%
X154940000Y-83820000D03*
%TD*%
D19*
%TO.P,U1,1,~{RESET}/PB5*%
%TO.N,unconnected-(U1-~{RESET}{slash}PB5-Pad1)*%
X154940000Y-104140000D03*
D16*
%TO.P,U1,2,XTAL1/PB3*%
%TO.N,/MIC*%
X157480000Y-104140000D03*
%TO.P,U1,3,XTAL2/PB4*%
%TO.N,unconnected-(U1-XTAL2{slash}PB4-Pad3)*%
X160020000Y-104140000D03*
%TO.P,U1,4,GND*%
%TO.N,GND*%
X162560000Y-104140000D03*
%TO.P,U1,5,AREF/PB0*%
%TO.N,unconnected-(U1-AREF{slash}PB0-Pad5)*%
X162560000Y-96520000D03*
%TO.P,U1,6,PB1*%
%TO.N,/LED*%
X160020000Y-96520000D03*
%TO.P,U1,7,PB2*%
%TO.N,/LDR*%
X157480000Y-96520000D03*
%TO.P,U1,8,VCC*%
%TO.N,+3.3V*%
X154940000Y-96520000D03*
%TD*%
D15*
%TO.P,R4,1*%
%TO.N,Net-(D1-K)*%
X149860000Y-76200000D03*
D16*
%TO.P,R4,2*%
%TO.N,GND*%
X165100000Y-76200000D03*
%TD*%
D15*
%TO.P,R3,1*%
%TO.N,+3.3V*%
X149860000Y-71340000D03*
D16*
%TO.P,R3,2*%
%TO.N,/MIC*%
X165100000Y-71340000D03*
%TD*%
D20*
%TO.P,SW1,*%
%TO.N,*%
X139120000Y-104140000D03*
X147320000Y-104140000D03*
D21*
%TO.P,SW1,1,A*%
%TO.N,unconnected-(SW1-A-Pad1)*%
X141220000Y-104140000D03*
D22*
%TO.P,SW1,2,B*%
%TO.N,GND*%
X143220000Y-104140000D03*
%TO.P,SW1,3,C*%
%TO.N,Net-(BT1--)*%
X145220000Y-104140000D03*
%TD*%
D23*
%TO.N,GND*%
X162560000Y-104140000D02*
X171630000Y-95070000D01*
X171630000Y-95070000D02*
X171630000Y-85270000D01*
X171630000Y-85270000D02*
X170180000Y-83820000D01*
D24*
%TO.N,/MIC*%
X157480000Y-104140000D02*
X170180000Y-91440000D01*
X170180000Y-91440000D02*
X170180000Y-86360000D01*
%TO.N,/LDR*%
X157480000Y-92515000D02*
X163285000Y-86710000D01*
X157480000Y-96520000D02*
X157480000Y-92515000D01*
%TD*%
%TA.AperFunction,Conductor*%
%TO.N,GND*%
G36*
X155386952Y-56148171D02*
G01*
X167613417Y-63484050D01*
X167655949Y-63526582D01*
X169300018Y-66266697D01*
X174954716Y-75691194D01*
X174991829Y-75753048D01*
X175009500Y-75816845D01*
X175009500Y-90140222D01*
X175007092Y-90164540D01*
X172727363Y-101563185D01*
X172694913Y-101625063D01*
X172693452Y-101626548D01*
X162574229Y-111745770D01*
X162542002Y-111768998D01*
X152927182Y-116576409D01*
X152871728Y-116589500D01*
X134281794Y-116589500D01*
X134214755Y-116569815D01*
X134213011Y-116568674D01*
X127010215Y-111766810D01*
X126991317Y-111751317D01*
X120092884Y-104852884D01*
X137519500Y-104852884D01*
X137534317Y-105041150D01*
X137593126Y-105286110D01*
X137689533Y-105518859D01*
X137821160Y-105733653D01*
X137821161Y-105733656D01*
X137833025Y-105747547D01*
X137984776Y-105925224D01*
X138133066Y-106051875D01*
X138176343Y-106088838D01*
X138176346Y-106088839D01*
X138391140Y-106220466D01*
X138623889Y-106316872D01*
X138623889Y-106316873D01*
X138868852Y-106375683D01*
X139120000Y-106395449D01*
X139371148Y-106375683D01*
X139616111Y-106316873D01*
X139848859Y-106220466D01*
X140063659Y-106088836D01*
X140255224Y-105925224D01*
X140255229Y-105925217D01*
X140258663Y-105921784D01*
X140259797Y-105922918D01*
X140312397Y-105888556D01*
X140361477Y-105883979D01*
X140362516Y-105884090D01*
X140362517Y-105884091D01*
X140422127Y-105890500D01*
X142017872Y-105890499D01*
X142077483Y-105884091D01*
X142212331Y-105833796D01*
X142327546Y-105747546D01*
X142357149Y-105708000D01*
X142413081Y-105666130D01*
X142482773Y-105661146D01*
X142524726Y-105678825D01*
X142625266Y-105745191D01*
X142832169Y-105833624D01*
X142832178Y-105833627D01*
X142969999Y-105865084D01*
X142970000Y-105865083D01*
X142970000Y-104701821D01*
X142989685Y-104634782D01*
X143042489Y-104589027D01*
X143111647Y-104579083D01*
X143130547Y-104583329D01*
X143152173Y-104590000D01*
X143253723Y-104590000D01*
X143253724Y-104590000D01*
X143327519Y-104578877D01*
X143396742Y-104588350D01*
X143449857Y-104633744D01*
X143469997Y-104700648D01*
X143470000Y-104701492D01*
X143470000Y-105867549D01*
X143499267Y-105863586D01*
X143499273Y-105863585D01*
X143713268Y-105794054D01*
X143911401Y-105687434D01*
X143911404Y-105687432D01*
X144087319Y-105547145D01*
X144125760Y-105503145D01*
X144184690Y-105465610D01*
X144254560Y-105465894D01*
X144304834Y-105495101D01*
X144437176Y-105621633D01*
X144625033Y-105745636D01*
X144832004Y-105834100D01*
X144832007Y-105834101D01*
X144832012Y-105834103D01*
X145051463Y-105884191D01*
X145276330Y-105894290D01*
X145499387Y-105864075D01*
X145713464Y-105794517D01*
X145871802Y-105709311D01*
X145940162Y-105694878D01*
X146005476Y-105719695D01*
X146024846Y-105737970D01*
X146184776Y-105925224D01*
X146333066Y-106051875D01*
X146376343Y-106088838D01*
X146376346Y-106088839D01*
X146591140Y-106220466D01*
X146823888Y-106316873D01*
X146823889Y-106316873D01*
X147068852Y-106375683D01*
X147320000Y-106395449D01*
X147571148Y-106375683D01*
X147816111Y-106316873D01*
X148048859Y-106220466D01*
X148263659Y-106088836D01*
X148455224Y-105925224D01*
X148618836Y-105733659D01*
X148750466Y-105518859D01*
X148846873Y-105286111D01*
X148905683Y-105041148D01*
X148920500Y-104852882D01*
X148920500Y-103427118D01*
X148905683Y-103238852D01*
X148846873Y-102993889D01*
X148842137Y-102982455D01*
X148750466Y-102761140D01*
X148618839Y-102546346D01*
X148618838Y-102546343D01*
X148533455Y-102446373D01*
X148455224Y-102354776D01*
X148328571Y-102246604D01*
X148263656Y-102191161D01*
X148263653Y-102191160D01*
X148048859Y-102059533D01*
X147816110Y-101963126D01*
X147571151Y-101904317D01*
X147382787Y-101889492D01*
X147320000Y-101884551D01*
X147319999Y-101884551D01*
X147068848Y-101904317D01*
X146823889Y-101963126D01*
X146591140Y-102059533D01*
X146376346Y-102191160D01*
X146376343Y-102191161D01*
X146184776Y-102354776D01*
X146024525Y-102542405D01*
X145966018Y-102580598D01*
X145896150Y-102581096D01*
X145861924Y-102565360D01*
X145814966Y-102534363D01*
X145607995Y-102445899D01*
X145607982Y-102445895D01*
X145388542Y-102395810D01*
X145388538Y-102395809D01*
X145388537Y-102395809D01*
X145388536Y-102395808D01*
X145388531Y-102395808D01*
X145163674Y-102385710D01*
X145163673Y-102385710D01*
X145163670Y-102385710D01*
X144940613Y-102415925D01*
X144940610Y-102415925D01*
X144940609Y-102415926D01*
X144726534Y-102485483D01*
X144528321Y-102592146D01*
X144528318Y-102592148D01*
X144352333Y-102732492D01*
X144313545Y-102776888D01*
X144254613Y-102814421D01*
X144184744Y-102814135D01*
X144134473Y-102784929D01*
X144002510Y-102658759D01*
X143814733Y-102534808D01*
X143607830Y-102446375D01*
X143607823Y-102446373D01*
X143470000Y-102414915D01*
X143470000Y-103578178D01*
X143450315Y-103645217D01*
X143397511Y-103690972D01*
X143328353Y-103700916D01*
X143309454Y-103696670D01*
X143287829Y-103690000D01*
X143287827Y-103690000D01*
X143186276Y-103690000D01*
X143186268Y-103690000D01*
X143112481Y-103701122D01*
X143043256Y-103691649D01*
X142990143Y-103646254D01*
X142970003Y-103579350D01*
X142970000Y-103578507D01*
X142970000Y-102412449D01*
X142969999Y-102412449D01*
X142940721Y-102416415D01*
X142726731Y-102485945D01*
X142528599Y-102592565D01*
X142523953Y-102595633D01*
X142522892Y-102594027D01*
X142466130Y-102617188D01*
X142397437Y-102604419D01*
X142354262Y-102568142D01*
X142352179Y-102565360D01*
X142327546Y-102532454D01*
X142327544Y-102532453D01*
X142327544Y-102532452D01*
X142212335Y-102446206D01*
X142212328Y-102446202D01*
X142077482Y-102395908D01*
X142077483Y-102395908D01*
X142017883Y-102389501D01*
X142017881Y-102389500D01*
X142017873Y-102389500D01*
X142017864Y-102389500D01*
X140422129Y-102389500D01*
X140422118Y-102389501D01*
X140361472Y-102396020D01*
X140292713Y-102383612D01*
X140259368Y-102357521D01*
X140258669Y-102358221D01*
X140255227Y-102354779D01*
X140255225Y-102354777D01*
X140255224Y-102354776D01*
X140159441Y-102272970D01*
X140063656Y-102191161D01*
X140063653Y-102191160D01*
X139848859Y-102059533D01*
X139616110Y-101963126D01*
X139371151Y-101904317D01*
X139182786Y-101889492D01*
X139120000Y-101884551D01*
X139119999Y-101884551D01*
X138868848Y-101904317D01*
X138623889Y-101963126D01*
X138391140Y-102059533D01*
X138176346Y-102191160D01*
X138176343Y-102191161D01*
X137984776Y-102354776D01*
X137821161Y-102546343D01*
X137821160Y-102546346D01*
X137689533Y-102761140D01*
X137593126Y-102993889D01*
X137534317Y-103238849D01*
X137519500Y-103427116D01*
X137519500Y-104852884D01*
X120092884Y-104852884D01*
X119394228Y-104154228D01*
X119371000Y-104122001D01*
X119254999Y-103889999D01*
X115570001Y-96520001D01*
X153634532Y-96520001D01*
X153654364Y-96746686D01*
X153654366Y-96746697D01*
X153713258Y-96966488D01*
X153713261Y-96966497D01*
X153809431Y-97172732D01*
X153809432Y-97172734D01*
X153939954Y-97359141D01*
X154100858Y-97520045D01*
X154100861Y-97520047D01*
X154287266Y-97650568D01*
X154493504Y-97746739D01*
X154713308Y-97805635D01*
X154875230Y-97819801D01*
X154939998Y-97825468D01*
X154940000Y-97825468D01*
X154940002Y-97825468D01*
X154996672Y-97820509D01*
X155166692Y-97805635D01*
X155386496Y-97746739D01*
X155592734Y-97650568D01*
X155779139Y-97520047D01*
X155940047Y-97359139D01*
X156070568Y-97172734D01*
X156097618Y-97114724D01*
X156143790Y-97062285D01*
X156210983Y-97043133D01*
X156277865Y-97063348D01*
X156322382Y-97114725D01*
X156349429Y-97172728D01*
X156349432Y-97172734D01*
X156479954Y-97359141D01*
X156640858Y-97520045D01*
X156640861Y-97520047D01*
X156827266Y-97650568D01*
X157033504Y-97746739D01*
X157253308Y-97805635D01*
X157415230Y-97819801D01*
X157479998Y-97825468D01*
X157480000Y-97825468D01*
X157480002Y-97825468D01*
X157536672Y-97820509D01*
X157706692Y-97805635D01*
X157926496Y-97746739D01*
X158132734Y-97650568D01*
X158319139Y-97520047D01*
X158480047Y-97359139D01*
X158610568Y-97172734D01*
X158637618Y-97114724D01*
X158683790Y-97062285D01*
X158750983Y-97043133D01*
X158817865Y-97063348D01*
X158862382Y-97114725D01*
X158889429Y-97172728D01*
X158889432Y-97172734D01*
X159019954Y-97359141D01*
X159180858Y-97520045D01*
X159180861Y-97520047D01*
X159367266Y-97650568D01*
X159573504Y-97746739D01*
X159793308Y-97805635D01*
X159955230Y-97819801D01*
X160019998Y-97825468D01*
X160020000Y-97825468D01*
X160020002Y-97825468D01*
X160076673Y-97820509D01*
X160246692Y-97805635D01*
X160466496Y-97746739D01*
X160672734Y-97650568D01*
X160859139Y-97520047D01*
X161020047Y-97359139D01*
X161150568Y-97172734D01*
X161177618Y-97114724D01*
X161223790Y-97062285D01*
X161290983Y-97043133D01*
X161357865Y-97063348D01*
X161402382Y-97114725D01*
X161429429Y-97172728D01*
X161429432Y-97172734D01*
X161559954Y-97359141D01*
X161720858Y-97520045D01*
X161720861Y-97520047D01*
X161907266Y-97650568D01*
X162113504Y-97746739D01*
X162333308Y-97805635D01*
X162560000Y-97825468D01*
X162565352Y-97824999D01*
X162633850Y-97838763D01*
X162684035Y-97887375D01*
X162699972Y-97955403D01*
X162676601Y-98021248D01*
X162663844Y-98036208D01*
X157866937Y-102833115D01*
X157805614Y-102866600D01*
X157747163Y-102865209D01*
X157706697Y-102854366D01*
X157706693Y-102854365D01*
X157706692Y-102854365D01*
X157706691Y-102854364D01*
X157706686Y-102854364D01*
X157480002Y-102834532D01*
X157479998Y-102834532D01*
X157253313Y-102854364D01*
X157253302Y-102854366D01*
X157033511Y-102913258D01*
X157033502Y-102913261D01*
X156827267Y-103009431D01*
X156827265Y-103009432D01*
X156640858Y-103139954D01*
X156479954Y-103300858D01*
X156462725Y-103325464D01*
X156408147Y-103369088D01*
X156338648Y-103376280D01*
X156276294Y-103344757D01*
X156240882Y-103284526D01*
X156237861Y-103267591D01*
X156234091Y-103232516D01*
X156183797Y-103097671D01*
X156183793Y-103097664D01*
X156097547Y-102982455D01*
X156097544Y-102982452D01*
X155982335Y-102896206D01*
X155982328Y-102896202D01*
X155847482Y-102845908D01*
X155847483Y-102845908D01*
X155787883Y-102839501D01*
X155787881Y-102839500D01*
X155787873Y-102839500D01*
X155787864Y-102839500D01*
X154092129Y-102839500D01*
X154092123Y-102839501D01*
X154032516Y-102845908D01*
X153897671Y-102896202D01*
X153897664Y-102896206D01*
X153782455Y-102982452D01*
X153782452Y-102982455D01*
X153696206Y-103097664D01*
X153696202Y-103097671D01*
X153645908Y-103232517D01*
X153639501Y-103292116D01*
X153639500Y-103292135D01*
X153639500Y-104987870D01*
X153639501Y-104987876D01*
X153645908Y-105047483D01*
X153696202Y-105182328D01*
X153696206Y-105182335D01*
X153782452Y-105297544D01*
X153782455Y-105297547D01*
X153897664Y-105383793D01*
X153897671Y-105383797D01*
X154032517Y-105434091D01*
X154032516Y-105434091D01*
X154039444Y-105434835D01*
X154092127Y-105440500D01*
X155787872Y-105440499D01*
X155847483Y-105434091D01*
X155982331Y-105383796D01*
X156097546Y-105297546D01*
X156183796Y-105182331D01*
X156234091Y-105047483D01*
X156237862Y-105012401D01*
X156264599Y-104947855D01*
X156321990Y-104908006D01*
X156391816Y-104905511D01*
X156451905Y-104941163D01*
X156462726Y-104954536D01*
X156479956Y-104979143D01*
X156640858Y-105140045D01*
X156640861Y-105140047D01*
X156827266Y-105270568D01*
X157033504Y-105366739D01*
X157253308Y-105425635D01*
X157415230Y-105439801D01*
X157479998Y-105445468D01*
X157480000Y-105445468D01*
X157480002Y-105445468D01*
X157536807Y-105440498D01*
X157706692Y-105425635D01*
X157926496Y-105366739D01*
X158132734Y-105270568D01*
X158319139Y-105140047D01*
X158480047Y-104979139D01*
X158610568Y-104792734D01*
X158637618Y-104734724D01*
X158683790Y-104682285D01*
X158750983Y-104663133D01*
X158817865Y-104683348D01*
X158862382Y-104734725D01*
X158889429Y-104792728D01*
X158889432Y-104792734D01*
X159019954Y-104979141D01*
X159180858Y-105140045D01*
X159180861Y-105140047D01*
X159367266Y-105270568D01*
X159573504Y-105366739D01*
X159793308Y-105425635D01*
X159955230Y-105439801D01*
X160019998Y-105445468D01*
X160020000Y-105445468D01*
X160020002Y-105445468D01*
X160076807Y-105440498D01*
X160246692Y-105425635D01*
X160466496Y-105366739D01*
X160672734Y-105270568D01*
X160859139Y-105140047D01*
X161020047Y-104979139D01*
X161150568Y-104792734D01*
X161177895Y-104734129D01*
X161224064Y-104681695D01*
X161291257Y-104662542D01*
X161358139Y-104682757D01*
X161402657Y-104734133D01*
X161429865Y-104792482D01*
X161560342Y-104978820D01*
X161721179Y-105139657D01*
X161907517Y-105270134D01*
X162113673Y-105366265D01*
X162113682Y-105366269D01*
X162309999Y-105418872D01*
X162310000Y-105418871D01*
X162310000Y-104650575D01*
X162329685Y-104583536D01*
X162382489Y-104537781D01*
X162451647Y-104527837D01*
X162453331Y-104528091D01*
X162485699Y-104533218D01*
X162528515Y-104540000D01*
X162528519Y-104540000D01*
X162591485Y-104540000D01*
X162634300Y-104533218D01*
X162666602Y-104528102D01*
X162735894Y-104537056D01*
X162789347Y-104582052D01*
X162809987Y-104648803D01*
X162810000Y-104650575D01*
X162810000Y-105418872D01*
X163006317Y-105366269D01*
X163006326Y-105366265D01*
X163212482Y-105270134D01*
X163398820Y-105139657D01*
X163559657Y-104978820D01*
X163690134Y-104792482D01*
X163786265Y-104586326D01*
X163786269Y-104586317D01*
X163838872Y-104390000D01*
X163070576Y-104390000D01*
X163003537Y-104370315D01*
X162957782Y-104317511D01*
X162947838Y-104248353D01*
X162948103Y-104246603D01*
X162964986Y-104140003D01*
X162964986Y-104139996D01*
X162948103Y-104033397D01*
X162957058Y-103964104D01*
X163002054Y-103910652D01*
X163068806Y-103890013D01*
X163070576Y-103890000D01*
X163838872Y-103890000D01*
X163838872Y-103889999D01*
X163786269Y-103693682D01*
X163786265Y-103693673D01*
X163690134Y-103487517D01*
X163559657Y-103301179D01*
X163398820Y-103140342D01*
X163212482Y-103009865D01*
X163006328Y-102913734D01*
X162810000Y-102861127D01*
X162810000Y-103629424D01*
X162790315Y-103696463D01*
X162737511Y-103742218D01*
X162668353Y-103752162D01*
X162666602Y-103751897D01*
X162591486Y-103740000D01*
X162591481Y-103740000D01*
X162528519Y-103740000D01*
X162528514Y-103740000D01*
X162453398Y-103751897D01*
X162384104Y-103742942D01*
X162330652Y-103697946D01*
X162310013Y-103631194D01*
X162310000Y-103629424D01*
X162310000Y-102861127D01*
X162113671Y-102913734D01*
X161907517Y-103009865D01*
X161721179Y-103140342D01*
X161560342Y-103301179D01*
X161429867Y-103487515D01*
X161402657Y-103545867D01*
X161356484Y-103598306D01*
X161289290Y-103617457D01*
X161222409Y-103597241D01*
X161177893Y-103545865D01*
X161169307Y-103527453D01*
X161150568Y-103487266D01*
X161020047Y-103300861D01*
X161020045Y-103300858D01*
X160859141Y-103139954D01*
X160672734Y-103009432D01*
X160672732Y-103009431D01*
X160466497Y-102913261D01*
X160466488Y-102913258D01*
X160246697Y-102854366D01*
X160246693Y-102854365D01*
X160246692Y-102854365D01*
X160246691Y-102854364D01*
X160246686Y-102854364D01*
X160020002Y-102834532D01*
X160019999Y-102834532D01*
X160014634Y-102835001D01*
X159946134Y-102821230D01*
X159895955Y-102772611D01*
X159880026Y-102704582D01*
X159903405Y-102638740D01*
X159916147Y-102623797D01*
X170579513Y-91960431D01*
X170592079Y-91950365D01*
X170591925Y-91950178D01*
X170597937Y-91945204D01*
X170597937Y-91945203D01*
X170597940Y-91945202D01*
X170647190Y-91892755D01*
X170668911Y-91871035D01*
X170673401Y-91865245D01*
X170677183Y-91860815D01*
X170710448Y-91825393D01*
X170720674Y-91806790D01*
X170731353Y-91790533D01*
X170744362Y-91773764D01*
X170763656Y-91729175D01*
X170766212Y-91723956D01*
X170789627Y-91681368D01*
X170794905Y-91660806D01*
X170801207Y-91642399D01*
X170809635Y-91622927D01*
X170817233Y-91574953D01*
X170818414Y-91569247D01*
X170830500Y-91522177D01*
X170830500Y-91500949D01*
X170832027Y-91481549D01*
X170835346Y-91460595D01*
X170830775Y-91412238D01*
X170830500Y-91406400D01*
X170830500Y-87617722D01*
X170850185Y-87550683D01*
X170883377Y-87516147D01*
X170935651Y-87479544D01*
X171051401Y-87398495D01*
X171218495Y-87231401D01*
X171354035Y-87037830D01*
X171453903Y-86823663D01*
X171515063Y-86595408D01*
X171535659Y-86360000D01*
X171515063Y-86124592D01*
X171462000Y-85926554D01*
X171453905Y-85896344D01*
X171453904Y-85896343D01*
X171453903Y-85896337D01*
X171354035Y-85682171D01*
X171312533Y-85622900D01*
X171218496Y-85488600D01*
X171184619Y-85454723D01*
X171096179Y-85366283D01*
X171062696Y-85304963D01*
X171067680Y-85235271D01*
X171109551Y-85179337D01*
X171140529Y-85162422D01*
X171272086Y-85113354D01*
X171272093Y-85113350D01*
X171387187Y-85027190D01*
X171387190Y-85027187D01*
X171473350Y-84912093D01*
X171473354Y-84912086D01*
X171523596Y-84777379D01*
X171523598Y-84777372D01*
X171529999Y-84717844D01*
X171530000Y-84717827D01*
X171530000Y-84070000D01*
X170793347Y-84070000D01*
X170726308Y-84050315D01*
X170680553Y-83997511D01*
X170670609Y-83928353D01*
X170674369Y-83911067D01*
X170680000Y-83891888D01*
X170680000Y-83748111D01*
X170674369Y-83728933D01*
X170674370Y-83659064D01*
X170712145Y-83600286D01*
X170775701Y-83571262D01*
X170793347Y-83570000D01*
X171530000Y-83570000D01*
X171530000Y-82922172D01*
X171529999Y-82922155D01*
X171523598Y-82862627D01*
X171523596Y-82862620D01*
X171473354Y-82727913D01*
X171473350Y-82727906D01*
X171387190Y-82612812D01*
X171387187Y-82612809D01*
X171272093Y-82526649D01*
X171272086Y-82526645D01*
X171137379Y-82476403D01*
X171137372Y-82476401D01*
X171077844Y-82470000D01*
X170430000Y-82470000D01*
X170430000Y-83207698D01*
X170410315Y-83274737D01*
X170357511Y-83320492D01*
X170288355Y-83330436D01*
X170215766Y-83320000D01*
X170215763Y-83320000D01*
X170144237Y-83320000D01*
X170144233Y-83320000D01*
X170071644Y-83330436D01*
X170002486Y-83320492D01*
X169949683Y-83274736D01*
X169929999Y-83207698D01*
X169930000Y-82470000D01*
X169282155Y-82470000D01*
X169222627Y-82476401D01*
X169222620Y-82476403D01*
X169087913Y-82526645D01*
X169087906Y-82526649D01*
X168972812Y-82612809D01*
X168972809Y-82612812D01*
X168886649Y-82727906D01*
X168886645Y-82727913D01*
X168836403Y-82862620D01*
X168836401Y-82862627D01*
X168830000Y-82922155D01*
X168830000Y-83570000D01*
X169566653Y-83570000D01*
X169633692Y-83589685D01*
X169679447Y-83642489D01*
X169689391Y-83711647D01*
X169685631Y-83728933D01*
X169680000Y-83748111D01*
X169680000Y-83891888D01*
X169685631Y-83911067D01*
X169685630Y-83980936D01*
X169647855Y-84039714D01*
X169584299Y-84068738D01*
X169566653Y-84070000D01*
X168830000Y-84070000D01*
X168830000Y-84717844D01*
X168836401Y-84777372D01*
X168836403Y-84777379D01*
X168886645Y-84912086D01*
X168886649Y-84912093D01*
X168972809Y-85027187D01*
X168972812Y-85027190D01*
X169087906Y-85113350D01*
X169087913Y-85113354D01*
X169219470Y-85162421D01*
X169275403Y-85204292D01*
X169299821Y-85269756D01*
X169284970Y-85338029D01*
X169263819Y-85366284D01*
X169141503Y-85488600D01*
X169005965Y-85682169D01*
X169005964Y-85682171D01*
X168906098Y-85896335D01*
X168906094Y-85896344D01*
X168844938Y-86124586D01*
X168844936Y-86124596D01*
X168824341Y-86359999D01*
X168824341Y-86360000D01*
X168844936Y-86595403D01*
X168844938Y-86595413D01*
X168906094Y-86823655D01*
X168906096Y-86823659D01*
X168906097Y-86823663D01*
X168958642Y-86936346D01*
X169005965Y-87037830D01*
X169005967Y-87037834D01*
X169141501Y-87231395D01*
X169141506Y-87231402D01*
X169308597Y-87398493D01*
X169308603Y-87398498D01*
X169476623Y-87516147D01*
X169520248Y-87570724D01*
X169529500Y-87617722D01*
X169529500Y-91119190D01*
X169509815Y-91186229D01*
X169493181Y-91206871D01*
X164076208Y-96623844D01*
X164014885Y-96657329D01*
X163945193Y-96652345D01*
X163889260Y-96610473D01*
X163864843Y-96545009D01*
X163864998Y-96525361D01*
X163865468Y-96520000D01*
X163845635Y-96293308D01*
X163786739Y-96073504D01*
X163690568Y-95867266D01*
X163560047Y-95680861D01*
X163560045Y-95680858D01*
X163399141Y-95519954D01*
X163212734Y-95389432D01*
X163212732Y-95389431D01*
X163006497Y-95293261D01*
X163006488Y-95293258D01*
X162786697Y-95234366D01*
X162786693Y-95234365D01*
X162786692Y-95234365D01*
X162786691Y-95234364D01*
X162786686Y-95234364D01*
X162560002Y-95214532D01*
X162559998Y-95214532D01*
X162333313Y-95234364D01*
X162333302Y-95234366D01*
X162113511Y-95293258D01*
X162113502Y-95293261D01*
X161907267Y-95389431D01*
X161907265Y-95389432D01*
X161720858Y-95519954D01*
X161559954Y-95680858D01*
X161429432Y-95867265D01*
X161429431Y-95867267D01*
X161402382Y-95925275D01*
X161356209Y-95977714D01*
X161289016Y-95996866D01*
X161222135Y-95976650D01*
X161177618Y-95925275D01*
X161150568Y-95867267D01*
X161150567Y-95867265D01*
X161020045Y-95680858D01*
X160859141Y-95519954D01*
X160672734Y-95389432D01*
X160672732Y-95389431D01*
X160466497Y-95293261D01*
X160466488Y-95293258D01*
X160246697Y-95234366D01*
X160246693Y-95234365D01*
X160246692Y-95234365D01*
X160246691Y-95234364D01*
X160246686Y-95234364D01*
X160020002Y-95214532D01*
X160019998Y-95214532D01*
X159793313Y-95234364D01*
X159793302Y-95234366D01*
X159573511Y-95293258D01*
X159573502Y-95293261D01*
X159367267Y-95389431D01*
X159367265Y-95389432D01*
X159180858Y-95519954D01*
X159019954Y-95680858D01*
X158889432Y-95867265D01*
X158889431Y-95867267D01*
X158862382Y-95925275D01*
X158816209Y-95977714D01*
X158749016Y-95996866D01*
X158682135Y-95976650D01*
X158637618Y-95925275D01*
X158610568Y-95867267D01*
X158610567Y-95867265D01*
X158480045Y-95680858D01*
X158319140Y-95519953D01*
X158183377Y-95424891D01*
X158139752Y-95370314D01*
X158130500Y-95323316D01*
X158130500Y-92835806D01*
X158150185Y-92768767D01*
X158166814Y-92748130D01*
X162938886Y-87976057D01*
X163000207Y-87942574D01*
X163058663Y-87943966D01*
X163067023Y-87946207D01*
X163249926Y-87962208D01*
X163284998Y-87965277D01*
X163285000Y-87965277D01*
X163285002Y-87965277D01*
X163313254Y-87962805D01*
X163502977Y-87946207D01*
X163714330Y-87889575D01*
X163912639Y-87797102D01*
X164091877Y-87671598D01*
X164246598Y-87516877D01*
X164372102Y-87337639D01*
X164464575Y-87139330D01*
X164521207Y-86927977D01*
X164540277Y-86710000D01*
X164521207Y-86492023D01*
X164464575Y-86280670D01*
X164372102Y-86082362D01*
X164372100Y-86082359D01*
X164372099Y-86082357D01*
X164246599Y-85903124D01*
X164239810Y-85896335D01*
X164091877Y-85748402D01*
X163912639Y-85622898D01*
X163912640Y-85622898D01*
X163912638Y-85622897D01*
X163756583Y-85550128D01*
X163714330Y-85530425D01*
X163714326Y-85530424D01*
X163714322Y-85530422D01*
X163502977Y-85473793D01*
X163285002Y-85454723D01*
X163284998Y-85454723D01*
X163139681Y-85467436D01*
X163067023Y-85473793D01*
X163067020Y-85473793D01*
X162855677Y-85530422D01*
X162855668Y-85530426D01*
X162657361Y-85622898D01*
X162657357Y-85622900D01*
X162478121Y-85748402D01*
X162323402Y-85903121D01*
X162197900Y-86082357D01*
X162197898Y-86082361D01*
X162105426Y-86280668D01*
X162105422Y-86280677D01*
X162048793Y-86492020D01*
X162048793Y-86492024D01*
X162029723Y-86709997D01*
X162029723Y-86710002D01*
X162048792Y-86927970D01*
X162048794Y-86927983D01*
X162051035Y-86936346D01*
X162049368Y-87006196D01*
X162018939Y-87056113D01*
X157080483Y-91994569D01*
X157067910Y-92004643D01*
X157068065Y-92004830D01*
X157062059Y-92009798D01*
X157037434Y-92036021D01*
X157012809Y-92062244D01*
X157001949Y-92073104D01*
X156991088Y-92083965D01*
X156991078Y-92083977D01*
X156986587Y-92089765D01*
X156982801Y-92094197D01*
X156949552Y-92129606D01*
X156939322Y-92148213D01*
X156928646Y-92164464D01*
X156915640Y-92181232D01*
X156915636Y-92181238D01*
X156896348Y-92225811D01*
X156893777Y-92231058D01*
X156870372Y-92273630D01*
X156870372Y-92273631D01*
X156865091Y-92294199D01*
X156858791Y-92312601D01*
X156850364Y-92332073D01*
X156842766Y-92380047D01*
X156841581Y-92385770D01*
X156829500Y-92432818D01*
X156829500Y-92454044D01*
X156827973Y-92473444D01*
X156824653Y-92494403D01*
X156829225Y-92542767D01*
X156829500Y-92548606D01*
X156829500Y-95323316D01*
X156809815Y-95390355D01*
X156776623Y-95424891D01*
X156640859Y-95519953D01*
X156479954Y-95680858D01*
X156349432Y-95867265D01*
X156349431Y-95867267D01*
X156322382Y-95925275D01*
X156276209Y-95977714D01*
X156209016Y-95996866D01*
X156142135Y-95976650D01*
X156097618Y-95925275D01*
X156070568Y-95867267D01*
X156070567Y-95867265D01*
X155940045Y-95680858D01*
X155779141Y-95519954D01*
X155592734Y-95389432D01*
X155592732Y-95389431D01*
X155386497Y-95293261D01*
X155386488Y-95293258D01*
X155166697Y-95234366D01*
X155166693Y-95234365D01*
X155166692Y-95234365D01*
X155166691Y-95234364D01*
X155166686Y-95234364D01*
X154940002Y-95214532D01*
X154939998Y-95214532D01*
X154713313Y-95234364D01*
X154713302Y-95234366D01*
X154493511Y-95293258D01*
X154493502Y-95293261D01*
X154287267Y-95389431D01*
X154287265Y-95389432D01*
X154100858Y-95519954D01*
X153939954Y-95680858D01*
X153809432Y-95867265D01*
X153809431Y-95867267D01*
X153713261Y-96073502D01*
X153713258Y-96073511D01*
X153654366Y-96293302D01*
X153654364Y-96293313D01*
X153634532Y-96519998D01*
X153634532Y-96520001D01*
X115570001Y-96520001D01*
X114563591Y-94507181D01*
X114550500Y-94451728D01*
X114550500Y-87169870D01*
X118117500Y-87169870D01*
X118117501Y-87169876D01*
X118123908Y-87229483D01*
X118174202Y-87364328D01*
X118174206Y-87364335D01*
X118260452Y-87479544D01*
X118260455Y-87479547D01*
X118375664Y-87565793D01*
X118375671Y-87565797D01*
X118510517Y-87616091D01*
X118510516Y-87616091D01*
X118517444Y-87616835D01*
X118570127Y-87622500D01*
X120189872Y-87622499D01*
X120249483Y-87616091D01*
X120384331Y-87565796D01*
X120499546Y-87479546D01*
X120585796Y-87364331D01*
X120636091Y-87229483D01*
X120642500Y-87169873D01*
X120642500Y-86360002D01*
X138178677Y-86360002D01*
X138197929Y-86580062D01*
X138197930Y-86580070D01*
X138255104Y-86793445D01*
X138255105Y-86793447D01*
X138255106Y-86793450D01*
X138317836Y-86927975D01*
X138348466Y-86993662D01*
X138348468Y-86993666D01*
X138475170Y-87174615D01*
X138475175Y-87174621D01*
X138631378Y-87330824D01*
X138631384Y-87330829D01*
X138812333Y-87457531D01*
X138812335Y-87457532D01*
X138812338Y-87457534D01*
X139012550Y-87550894D01*
X139225932Y-87608070D01*
X139383123Y-87621822D01*
X139445998Y-87627323D01*
X139446000Y-87627323D01*
X139446002Y-87627323D01*
X139501151Y-87622498D01*
X139666068Y-87608070D01*
X139879450Y-87550894D01*
X140079662Y-87457534D01*
X140260620Y-87330826D01*
X140416826Y-87174620D01*
X140543534Y-86993662D01*
X140636894Y-86793450D01*
X140694070Y-86580068D01*
X140713323Y-86360000D01*
X140694070Y-86139932D01*
X140636894Y-85926550D01*
X140543534Y-85726339D01*
X140471104Y-85622897D01*
X140416827Y-85545381D01*
X140345239Y-85473793D01*
X140260620Y-85389174D01*
X140260616Y-85389171D01*
X140260615Y-85389170D01*
X140079666Y-85262468D01*
X140079662Y-85262466D01*
X140032457Y-85240454D01*
X139879450Y-85169106D01*
X139879447Y-85169105D01*
X139879445Y-85169104D01*
X139666070Y-85111930D01*
X139666062Y-85111929D01*
X139446002Y-85092677D01*
X139445998Y-85092677D01*
X139225937Y-85111929D01*
X139225929Y-85111930D01*
X139012554Y-85169104D01*
X139012548Y-85169107D01*
X138812340Y-85262465D01*
X138812338Y-85262466D01*
X138631377Y-85389175D01*
X138475175Y-85545377D01*
X138348466Y-85726338D01*
X138348465Y-85726340D01*
X138255107Y-85926548D01*
X138255104Y-85926554D01*
X138197930Y-86139929D01*
X138197929Y-86139937D01*
X138178677Y-86359997D01*
X138178677Y-86360002D01*
X120642500Y-86360002D01*
X120642499Y-85550128D01*
X120636091Y-85490517D01*
X120629853Y-85473793D01*
X120585797Y-85355671D01*
X120585793Y-85355664D01*
X120499547Y-85240455D01*
X120499544Y-85240452D01*
X120384335Y-85154206D01*
X120384328Y-85154202D01*
X120249482Y-85103908D01*
X120249483Y-85103908D01*
X120189883Y-85097501D01*
X120189881Y-85097500D01*
X120189873Y-85097500D01*
X120189864Y-85097500D01*
X118570129Y-85097500D01*
X118570123Y-85097501D01*
X118510516Y-85103908D01*
X118375671Y-85154202D01*
X118375664Y-85154206D01*
X118260455Y-85240452D01*
X118260452Y-85240455D01*
X118174206Y-85355664D01*
X118174202Y-85355671D01*
X118123908Y-85490517D01*
X118118010Y-85545380D01*
X118117501Y-85550123D01*
X118117500Y-85550135D01*
X118117500Y-87169870D01*
X114550500Y-87169870D01*
X114550500Y-83820006D01*
X153534700Y-83820006D01*
X153553864Y-84051297D01*
X153553866Y-84051308D01*
X153610842Y-84276300D01*
X153704075Y-84488848D01*
X153831016Y-84683147D01*
X153831019Y-84683151D01*
X153831021Y-84683153D01*
X153925803Y-84786114D01*
X153956724Y-84848767D01*
X153948864Y-84918193D01*
X153904716Y-84972348D01*
X153877906Y-84986277D01*
X153797669Y-85016203D01*
X153797664Y-85016206D01*
X153682455Y-85102452D01*
X153682452Y-85102455D01*
X153596206Y-85217664D01*
X153596202Y-85217671D01*
X153545908Y-85352517D01*
X153539501Y-85412116D01*
X153539501Y-85412123D01*
X153539500Y-85412135D01*
X153539500Y-87307870D01*
X153539501Y-87307876D01*
X153545908Y-87367483D01*
X153596202Y-87502328D01*
X153596206Y-87502335D01*
X153682452Y-87617544D01*
X153682455Y-87617547D01*
X153797664Y-87703793D01*
X153797671Y-87703797D01*
X153932517Y-87754091D01*
X153932516Y-87754091D01*
X153939444Y-87754835D01*
X153992127Y-87760500D01*
X155887872Y-87760499D01*
X155947483Y-87754091D01*
X156082331Y-87703796D01*
X156197546Y-87617546D01*
X156283796Y-87502331D01*
X156334091Y-87367483D01*
X156340500Y-87307873D01*
X156340499Y-85412128D01*
X156334091Y-85352517D01*
X156328687Y-85338029D01*
X156283797Y-85217671D01*
X156283793Y-85217664D01*
X156197547Y-85102455D01*
X156197544Y-85102452D01*
X156082335Y-85016206D01*
X156082328Y-85016202D01*
X156002094Y-84986277D01*
X155946160Y-84944406D01*
X155921743Y-84878941D01*
X155936595Y-84810668D01*
X155954190Y-84786121D01*
X156048979Y-84683153D01*
X156175924Y-84488849D01*
X156269157Y-84276300D01*
X156326134Y-84051305D01*
X156326216Y-84050315D01*
X156345300Y-83820006D01*
X156345300Y-83819993D01*
X156326135Y-83588702D01*
X156326133Y-83588691D01*
X156269157Y-83363699D01*
X156245602Y-83310000D01*
X162030225Y-83310000D01*
X162049287Y-83527884D01*
X162049289Y-83527894D01*
X162105894Y-83739150D01*
X162105898Y-83739159D01*
X162198335Y-83937391D01*
X162241873Y-83999571D01*
X162241874Y-83999572D01*
X162747580Y-83493866D01*
X162808903Y-83460381D01*
X162878594Y-83465365D01*
X162934528Y-83507236D01*
X162945742Y-83525246D01*
X162957359Y-83548045D01*
X162957361Y-83548047D01*
X162957363Y-83548050D01*
X163046949Y-83637636D01*
X163046951Y-83637637D01*
X163046955Y-83637641D01*
X163069747Y-83649254D01*
X163120542Y-83697228D01*
X163137337Y-83765049D01*
X163114799Y-83831184D01*
X163101132Y-83847419D01*
X162595426Y-84353124D01*
X162657611Y-84396666D01*
X162657613Y-84396667D01*
X162855840Y-84489101D01*
X162855849Y-84489105D01*
X163067105Y-84545710D01*
X163067115Y-84545712D01*
X163284999Y-84564775D01*
X163285001Y-84564775D01*
X163502884Y-84545712D01*
X163502894Y-84545710D01*
X163714150Y-84489105D01*
X163714159Y-84489101D01*
X163912387Y-84396666D01*
X163974572Y-84353124D01*
X163468866Y-83847419D01*
X163435381Y-83786096D01*
X163440365Y-83716405D01*
X163482236Y-83660471D01*
X163500245Y-83649258D01*
X163523045Y-83637641D01*
X163612641Y-83548045D01*
X163624254Y-83525252D01*
X163672225Y-83474458D01*
X163740046Y-83457661D01*
X163806181Y-83480197D01*
X163822419Y-83493866D01*
X164328124Y-83999572D01*
X164371666Y-83937387D01*
X164464101Y-83739159D01*
X164464105Y-83739150D01*
X164520710Y-83527894D01*
X164520712Y-83527884D01*
X164539775Y-83310000D01*
X164539775Y-83309999D01*
X164520712Y-83092115D01*
X164520710Y-83092105D01*
X164464105Y-82880849D01*
X164464101Y-82880840D01*
X164371668Y-82682615D01*
X164328123Y-82620427D01*
X163822419Y-83126132D01*
X163761096Y-83159617D01*
X163691404Y-83154633D01*
X163635471Y-83112761D01*
X163624256Y-83094751D01*
X163612641Y-83071955D01*
X163612637Y-83071951D01*
X163612636Y-83071949D01*
X163523050Y-82982363D01*
X163523047Y-82982361D01*
X163523045Y-82982359D01*
X163500250Y-82970744D01*
X163449456Y-82922771D01*
X163432661Y-82854950D01*
X163455198Y-82788815D01*
X163468866Y-82772580D01*
X163974572Y-82266874D01*
X163974571Y-82266873D01*
X163912391Y-82223335D01*
X163714159Y-82130898D01*
X163714150Y-82130894D01*
X163502894Y-82074289D01*
X163502884Y-82074287D01*
X163285001Y-82055225D01*
X163284999Y-82055225D01*
X163067115Y-82074287D01*
X163067105Y-82074289D01*
X162855849Y-82130894D01*
X162855840Y-82130898D01*
X162657614Y-82223332D01*
X162657612Y-82223333D01*
X162595428Y-82266875D01*
X162595427Y-82266875D01*
X163101133Y-82772580D01*
X163134618Y-82833903D01*
X163129634Y-82903594D01*
X163087763Y-82959528D01*
X163069748Y-82970745D01*
X163046956Y-82982358D01*
X163046949Y-82982363D01*
X162957363Y-83071949D01*
X162957358Y-83071956D01*
X162945745Y-83094748D01*
X162897770Y-83145544D01*
X162829949Y-83162338D01*
X162763814Y-83139800D01*
X162747580Y-83126133D01*
X162241875Y-82620427D01*
X162241875Y-82620428D01*
X162198333Y-82682612D01*
X162198332Y-82682614D01*
X162105898Y-82880840D01*
X162105894Y-82880849D01*
X162049289Y-83092105D01*
X162049287Y-83092115D01*
X162030225Y-83309999D01*
X162030225Y-83310000D01*
X156245602Y-83310000D01*
X156175924Y-83151151D01*
X156048983Y-82956852D01*
X156048980Y-82956849D01*
X156048979Y-82956847D01*
X155891784Y-82786087D01*
X155891779Y-82786083D01*
X155891777Y-82786081D01*
X155708634Y-82643535D01*
X155708628Y-82643531D01*
X155504504Y-82533064D01*
X155504495Y-82533061D01*
X155284984Y-82457702D01*
X155113282Y-82429050D01*
X155056049Y-82419500D01*
X154823951Y-82419500D01*
X154778164Y-82427140D01*
X154595015Y-82457702D01*
X154375504Y-82533061D01*
X154375495Y-82533064D01*
X154171371Y-82643531D01*
X154171365Y-82643535D01*
X153988222Y-82786081D01*
X153988219Y-82786084D01*
X153988216Y-82786086D01*
X153988216Y-82786087D01*
X153929267Y-82850122D01*
X153831016Y-82956852D01*
X153704075Y-83151151D01*
X153610842Y-83363699D01*
X153553866Y-83588691D01*
X153553864Y-83588702D01*
X153534700Y-83819993D01*
X153534700Y-83820006D01*
X114550500Y-83820006D01*
X114550500Y-76867628D01*
X114559369Y-76821576D01*
X114807999Y-76200001D01*
X148554532Y-76200001D01*
X148574364Y-76426686D01*
X148574366Y-76426697D01*
X148633258Y-76646488D01*
X148633261Y-76646497D01*
X148729431Y-76852732D01*
X148729432Y-76852734D01*
X148859954Y-77039141D01*
X149020858Y-77200045D01*
X149020861Y-77200047D01*
X149207266Y-77330568D01*
X149413504Y-77426739D01*
X149633308Y-77485635D01*
X149795230Y-77499801D01*
X149859998Y-77505468D01*
X149860000Y-77505468D01*
X149860002Y-77505468D01*
X149916673Y-77500509D01*
X150086692Y-77485635D01*
X150306496Y-77426739D01*
X150512734Y-77330568D01*
X150699139Y-77200047D01*
X150860047Y-77039139D01*
X150990568Y-76852734D01*
X151086739Y-76646496D01*
X151145635Y-76426692D01*
X151165468Y-76200000D01*
X151145635Y-75973308D01*
X151139389Y-75949999D01*
X163821127Y-75949999D01*
X163821128Y-75950000D01*
X164589424Y-75950000D01*
X164656463Y-75969685D01*
X164702218Y-76022489D01*
X164712162Y-76091647D01*
X164711897Y-76093397D01*
X164695014Y-76199996D01*
X164695014Y-76200003D01*
X164711897Y-76306603D01*
X164702942Y-76375896D01*
X164657946Y-76429348D01*
X164591194Y-76449987D01*
X164589424Y-76450000D01*
X163821128Y-76450000D01*
X163873730Y-76646317D01*
X163873734Y-76646326D01*
X163969865Y-76852482D01*
X164100342Y-77038820D01*
X164261179Y-77199657D01*
X164447517Y-77330134D01*
X164653673Y-77426265D01*
X164653682Y-77426269D01*
X164849999Y-77478872D01*
X164850000Y-77478871D01*
X164850000Y-76710575D01*
X164869685Y-76643536D01*
X164922489Y-76597781D01*
X164991647Y-76587837D01*
X164993331Y-76588091D01*
X165025699Y-76593218D01*
X165068515Y-76600000D01*
X165068519Y-76600000D01*
X165131485Y-76600000D01*
X165174300Y-76593218D01*
X165206602Y-76588102D01*
X165275894Y-76597056D01*
X165329347Y-76642052D01*
X165349987Y-76708803D01*
X165350000Y-76710575D01*
X165350000Y-77478872D01*
X165546317Y-77426269D01*
X165546326Y-77426265D01*
X165752482Y-77330134D01*
X165938820Y-77199657D01*
X166099657Y-77038820D01*
X166230134Y-76852482D01*
X166326265Y-76646326D01*
X166326269Y-76646317D01*
X166378872Y-76450000D01*
X165610576Y-76450000D01*
X165543537Y-76430315D01*
X165497782Y-76377511D01*
X165487838Y-76308353D01*
X165488103Y-76306603D01*
X165504986Y-76200003D01*
X165504986Y-76199996D01*
X165488103Y-76093397D01*
X165497058Y-76024104D01*
X165542054Y-75970652D01*
X165608806Y-75950013D01*
X165610576Y-75950000D01*
X166378872Y-75950000D01*
X166378872Y-75949999D01*
X166326269Y-75753682D01*
X166326265Y-75753673D01*
X166230134Y-75547517D01*
X166099657Y-75361179D01*
X165938820Y-75200342D01*
X165752482Y-75069865D01*
X165546328Y-74973734D01*
X165350000Y-74921127D01*
X165350000Y-75689424D01*
X165330315Y-75756463D01*
X165277511Y-75802218D01*
X165208353Y-75812162D01*
X165206602Y-75811897D01*
X165131486Y-75800000D01*
X165131481Y-75800000D01*
X165068519Y-75800000D01*
X165068514Y-75800000D01*
X164993398Y-75811897D01*
X164924104Y-75802942D01*
X164870652Y-75757946D01*
X164850013Y-75691194D01*
X164850000Y-75689424D01*
X164850000Y-74921127D01*
X164653671Y-74973734D01*
X164447517Y-75069865D01*
X164261179Y-75200342D01*
X164100342Y-75361179D01*
X163969865Y-75547517D01*
X163873734Y-75753673D01*
X163873730Y-75753682D01*
X163821127Y-75949999D01*
X151139389Y-75949999D01*
X151086739Y-75753504D01*
X150990568Y-75547266D01*
X150860047Y-75360861D01*
X150860045Y-75360858D01*
X150699141Y-75199954D01*
X150512734Y-75069432D01*
X150512732Y-75069431D01*
X150306497Y-74973261D01*
X150306488Y-74973258D01*
X150086697Y-74914366D01*
X150086693Y-74914365D01*
X150086692Y-74914365D01*
X150086691Y-74914364D01*
X150086686Y-74914364D01*
X149860002Y-74894532D01*
X149859998Y-74894532D01*
X149633313Y-74914364D01*
X149633302Y-74914366D01*
X149413511Y-74973258D01*
X149413502Y-74973261D01*
X149207267Y-75069431D01*
X149207265Y-75069432D01*
X149020858Y-75199954D01*
X148859954Y-75360858D01*
X148729432Y-75547265D01*
X148729431Y-75547267D01*
X148633261Y-75753502D01*
X148633258Y-75753511D01*
X148574366Y-75973302D01*
X148574364Y-75973313D01*
X148554532Y-76199998D01*
X148554532Y-76200001D01*
X114807999Y-76200001D01*
X116751999Y-71340001D01*
X148554532Y-71340001D01*
X148574364Y-71566686D01*
X148574366Y-71566697D01*
X148633258Y-71786488D01*
X148633261Y-71786497D01*
X148729431Y-71992732D01*
X148729432Y-71992734D01*
X148859954Y-72179141D01*
X149020858Y-72340045D01*
X149020861Y-72340047D01*
X149207266Y-72470568D01*
X149413504Y-72566739D01*
X149633308Y-72625635D01*
X149795230Y-72639801D01*
X149859998Y-72645468D01*
X149860000Y-72645468D01*
X149860002Y-72645468D01*
X149916673Y-72640509D01*
X150086692Y-72625635D01*
X150306496Y-72566739D01*
X150512734Y-72470568D01*
X150699139Y-72340047D01*
X150860047Y-72179139D01*
X150990568Y-71992734D01*
X151086739Y-71786496D01*
X151145635Y-71566692D01*
X151165468Y-71340001D01*
X163794532Y-71340001D01*
X163814364Y-71566686D01*
X163814366Y-71566697D01*
X163873258Y-71786488D01*
X163873261Y-71786497D01*
X163969431Y-71992732D01*
X163969432Y-71992734D01*
X164099954Y-72179141D01*
X164260858Y-72340045D01*
X164260861Y-72340047D01*
X164447266Y-72470568D01*
X164653504Y-72566739D01*
X164873308Y-72625635D01*
X165035230Y-72639801D01*
X165099998Y-72645468D01*
X165100000Y-72645468D01*
X165100002Y-72645468D01*
X165156673Y-72640509D01*
X165326692Y-72625635D01*
X165546496Y-72566739D01*
X165752734Y-72470568D01*
X165939139Y-72340047D01*
X166100047Y-72179139D01*
X166230568Y-71992734D01*
X166326739Y-71786496D01*
X166385635Y-71566692D01*
X166405468Y-71340000D01*
X166385635Y-71113308D01*
X166326739Y-70893504D01*
X166230568Y-70687266D01*
X166100047Y-70500861D01*
X166100045Y-70500858D01*
X165939141Y-70339954D01*
X165752734Y-70209432D01*
X165752732Y-70209431D01*
X165546497Y-70113261D01*
X165546488Y-70113258D01*
X165326697Y-70054366D01*
X165326693Y-70054365D01*
X165326692Y-70054365D01*
X165326691Y-70054364D01*
X165326686Y-70054364D01*
X165100002Y-70034532D01*
X165099998Y-70034532D01*
X164873313Y-70054364D01*
X164873302Y-70054366D01*
X164653511Y-70113258D01*
X164653502Y-70113261D01*
X164447267Y-70209431D01*
X164447265Y-70209432D01*
X164260858Y-70339954D01*
X164099954Y-70500858D01*
X163969432Y-70687265D01*
X163969431Y-70687267D01*
X163873261Y-70893502D01*
X163873258Y-70893511D01*
X163814366Y-71113302D01*
X163814364Y-71113313D01*
X163794532Y-71339998D01*
X163794532Y-71340001D01*
X151165468Y-71340001D01*
X151165468Y-71340000D01*
X151145635Y-71113308D01*
X151086739Y-70893504D01*
X150990568Y-70687266D01*
X150860047Y-70500861D01*
X150860045Y-70500858D01*
X150699141Y-70339954D01*
X150512734Y-70209432D01*
X150512732Y-70209431D01*
X150306497Y-70113261D01*
X150306488Y-70113258D01*
X150086697Y-70054366D01*
X150086693Y-70054365D01*
X150086692Y-70054365D01*
X150086691Y-70054364D01*
X150086686Y-70054364D01*
X149860002Y-70034532D01*
X149859998Y-70034532D01*
X149633313Y-70054364D01*
X149633302Y-70054366D01*
X149413511Y-70113258D01*
X149413502Y-70113261D01*
X149207267Y-70209431D01*
X149207265Y-70209432D01*
X149020858Y-70339954D01*
X148859954Y-70500858D01*
X148729432Y-70687265D01*
X148729431Y-70687267D01*
X148633261Y-70893502D01*
X148633258Y-70893511D01*
X148574366Y-71113302D01*
X148574364Y-71113313D01*
X148554532Y-71339998D01*
X148554532Y-71340001D01*
X116751999Y-71340001D01*
X116830548Y-71143628D01*
X116857995Y-71102004D01*
X121919998Y-66040001D01*
X148554532Y-66040001D01*
X148574364Y-66266686D01*
X148574366Y-66266697D01*
X148633258Y-66486488D01*
X148633261Y-66486497D01*
X148729431Y-66692732D01*
X148729432Y-66692734D01*
X148859954Y-66879141D01*
X149020858Y-67040045D01*
X149020861Y-67040047D01*
X149207266Y-67170568D01*
X149413504Y-67266739D01*
X149633308Y-67325635D01*
X149795230Y-67339801D01*
X149859998Y-67345468D01*
X149860000Y-67345468D01*
X149860002Y-67345468D01*
X149916673Y-67340509D01*
X150086692Y-67325635D01*
X150306496Y-67266739D01*
X150512734Y-67170568D01*
X150699139Y-67040047D01*
X150860047Y-66879139D01*
X150990568Y-66692734D01*
X151086739Y-66486496D01*
X151145635Y-66266692D01*
X151165468Y-66040001D01*
X163794532Y-66040001D01*
X163814364Y-66266686D01*
X163814366Y-66266697D01*
X163873258Y-66486488D01*
X163873261Y-66486497D01*
X163969431Y-66692732D01*
X163969432Y-66692734D01*
X164099954Y-66879141D01*
X164260858Y-67040045D01*
X164260861Y-67040047D01*
X164447266Y-67170568D01*
X164653504Y-67266739D01*
X164873308Y-67325635D01*
X165035230Y-67339801D01*
X165099998Y-67345468D01*
X165100000Y-67345468D01*
X165100002Y-67345468D01*
X165156673Y-67340509D01*
X165326692Y-67325635D01*
X165546496Y-67266739D01*
X165752734Y-67170568D01*
X165939139Y-67040047D01*
X166100047Y-66879139D01*
X166230568Y-66692734D01*
X166326739Y-66486496D01*
X166385635Y-66266692D01*
X166405468Y-66040000D01*
X166385635Y-65813308D01*
X166326739Y-65593504D01*
X166230568Y-65387266D01*
X166100047Y-65200861D01*
X166100045Y-65200858D01*
X165939141Y-65039954D01*
X165752734Y-64909432D01*
X165752732Y-64909431D01*
X165546497Y-64813261D01*
X165546488Y-64813258D01*
X165326697Y-64754366D01*
X165326693Y-64754365D01*
X165326692Y-64754365D01*
X165326691Y-64754364D01*
X165326686Y-64754364D01*
X165100002Y-64734532D01*
X165099998Y-64734532D01*
X164873313Y-64754364D01*
X164873302Y-64754366D01*
X164653511Y-64813258D01*
X164653502Y-64813261D01*
X164447267Y-64909431D01*
X164447265Y-64909432D01*
X164260858Y-65039954D01*
X164099954Y-65200858D01*
X163969432Y-65387265D01*
X163969431Y-65387267D01*
X163873261Y-65593502D01*
X163873258Y-65593511D01*
X163814366Y-65813302D01*
X163814364Y-65813313D01*
X163794532Y-66039998D01*
X163794532Y-66040001D01*
X151165468Y-66040001D01*
X151165468Y-66040000D01*
X151145635Y-65813308D01*
X151086739Y-65593504D01*
X150990568Y-65387266D01*
X150860047Y-65200861D01*
X150860045Y-65200858D01*
X150699141Y-65039954D01*
X150512734Y-64909432D01*
X150512732Y-64909431D01*
X150306497Y-64813261D01*
X150306488Y-64813258D01*
X150086697Y-64754366D01*
X150086693Y-64754365D01*
X150086692Y-64754365D01*
X150086691Y-64754364D01*
X150086686Y-64754364D01*
X149860002Y-64734532D01*
X149859998Y-64734532D01*
X149633313Y-64754364D01*
X149633302Y-64754366D01*
X149413511Y-64813258D01*
X149413502Y-64813261D01*
X149207267Y-64909431D01*
X149207265Y-64909432D01*
X149020858Y-65039954D01*
X148859954Y-65200858D01*
X148729432Y-65387265D01*
X148729431Y-65387267D01*
X148633261Y-65593502D01*
X148633258Y-65593511D01*
X148574366Y-65813302D01*
X148574364Y-65813313D01*
X148554532Y-66039998D01*
X148554532Y-66040001D01*
X121919998Y-66040001D01*
X131793181Y-56166819D01*
X131854504Y-56133334D01*
X131880862Y-56130500D01*
X155323155Y-56130500D01*
X155386952Y-56148171D01*
G37*
%TD.AperFunction*%
%TD*%
M02*
