%TF.GenerationSoftware,KiCad,Pcbnew,7.0.7*%
%TF.CreationDate,2024-02-22T22:38:35+05:30*%
%TF.ProjectId,Digital_Diya,44696769-7461-46c5-9f44-6979612e6b69,rev?*%
%TF.SameCoordinates,Original*%
%TF.FileFunction,Copper,L1,Top*%
%TF.FilePolarity,Positive*%
%FSLAX46Y46*%
G04 Gerber Fmt 4.6, Leading zero omitted, Abs format (unit mm)*
G04 Created by KiCad (PCBNEW 7.0.7) date 2024-02-22 22:38:35*
%MOMM*%
%LPD*%
G01*
G04 APERTURE LIST*
%TA.AperFunction,ComponentPad*%
%ADD10R,1.524000X1.524000*%
%TD*%
%TA.AperFunction,ComponentPad*%
%ADD11C,1.524000*%
%TD*%
%TA.AperFunction,ComponentPad*%
%ADD12C,1.500000*%
%TD*%
%TA.AperFunction,ComponentPad*%
%ADD13R,1.700000X1.700000*%
%TD*%
%TA.AperFunction,ComponentPad*%
%ADD14O,1.700000X1.700000*%
%TD*%
%TA.AperFunction,ComponentPad*%
%ADD15C,1.600000*%
%TD*%
%TA.AperFunction,ComponentPad*%
%ADD16O,1.600000X1.600000*%
%TD*%
%TA.AperFunction,ComponentPad*%
%ADD17R,1.800000X1.800000*%
%TD*%
%TA.AperFunction,ComponentPad*%
%ADD18C,1.800000*%
%TD*%
%TA.AperFunction,ComponentPad*%
%ADD19R,1.600000X1.600000*%
%TD*%
%TA.AperFunction,ComponentPad*%
%ADD20O,2.200000X3.500000*%
%TD*%
%TA.AperFunction,ComponentPad*%
%ADD21R,1.500000X2.500000*%
%TD*%
%TA.AperFunction,ComponentPad*%
%ADD22O,1.500000X2.500000*%
%TD*%
%TA.AperFunction,Conductor*%
%ADD23C,0.800000*%
%TD*%
%TA.AperFunction,Conductor*%
%ADD24C,0.300000*%
%TD*%
G04 APERTURE END LIST*
D10*
%TO.P,BT1,1,+*%
%TO.N,+3.3V*%
X119380000Y-86360000D03*
D11*
%TO.P,BT1,2,-*%
%TO.N,Net-(BT1--)*%
X139446000Y-86360000D03*
%TD*%
D12*
%TO.P,R2,1*%
%TO.N,/LDR*%
X163285000Y-86710000D03*
%TO.P,R2,2*%
%TO.N,GND*%
X163285000Y-83310000D03*
%TD*%
D13*
%TO.P,MK1,1,-*%
%TO.N,GND*%
X170180000Y-83820000D03*
D14*
%TO.P,MK1,2,+*%
%TO.N,/MIC*%
X170180000Y-86360000D03*
%TD*%
D15*
%TO.P,R1,1*%
%TO.N,+3.3V*%
X149860000Y-66040000D03*
D16*
%TO.P,R1,2*%
%TO.N,/LDR*%
X165100000Y-66040000D03*
%TD*%
D17*
%TO.P,D1,1,K*%
%TO.N,Net-(D1-K)*%
X154940000Y-86360000D03*
D18*
%TO.P,D1,2,A*%
%TO.N,/LED*%
X154940000Y-83820000D03*
%TD*%
D19*
%TO.P,U1,1,~{RESET}/PB5*%
%TO.N,unconnected-(U1-~{RESET}{slash}PB5-Pad1)*%
X154940000Y-104140000D03*
D16*
%TO.P,U1,2,XTAL1/PB3*%
%TO.N,/MIC*%
X157480000Y-104140000D03*
%TO.P,U1,3,XTAL2/PB4*%
%TO.N,unconnected-(U1-XTAL2{slash}PB4-Pad3)*%
X160020000Y-104140000D03*
%TO.P,U1,4,GND*%
%TO.N,GND*%
X162560000Y-104140000D03*
%TO.P,U1,5,AREF/PB0*%
%TO.N,unconnected-(U1-AREF{slash}PB0-Pad5)*%
X162560000Y-96520000D03*
%TO.P,U1,6,PB1*%
%TO.N,/LED*%
X160020000Y-96520000D03*
%TO.P,U1,7,PB2*%
%TO.N,/LDR*%
X157480000Y-96520000D03*
%TO.P,U1,8,VCC*%
%TO.N,+3.3V*%
X154940000Y-96520000D03*
%TD*%
D15*
%TO.P,R4,1*%
%TO.N,Net-(D1-K)*%
X149860000Y-76200000D03*
D16*
%TO.P,R4,2*%
%TO.N,GND*%
X165100000Y-76200000D03*
%TD*%
D15*
%TO.P,R3,1*%
%TO.N,+3.3V*%
X149860000Y-71340000D03*
D16*
%TO.P,R3,2*%
%TO.N,/MIC*%
X165100000Y-71340000D03*
%TD*%
D20*
%TO.P,SW1,*%
%TO.N,*%
X139120000Y-104140000D03*
X147320000Y-104140000D03*
D21*
%TO.P,SW1,1,A*%
%TO.N,unconnected-(SW1-A-Pad1)*%
X141220000Y-104140000D03*
D22*
%TO.P,SW1,2,B*%
%TO.N,GND*%
X143220000Y-104140000D03*
%TO.P,SW1,3,C*%
%TO.N,Net-(BT1--)*%
X145220000Y-104140000D03*
%TD*%
D23*
%TO.N,+3.3V*%
X148240000Y-72960000D02*
X145810000Y-72960000D01*
X147800000Y-68100000D02*
X149860000Y-66040000D01*
X127480000Y-68100000D02*
X147800000Y-68100000D01*
X149860000Y-71340000D02*
X148240000Y-72960000D01*
X145810000Y-72150000D02*
X142240000Y-68580000D01*
X119700000Y-86360000D02*
X119700000Y-75880000D01*
X145810000Y-87390000D02*
X145810000Y-72150000D01*
X119700000Y-75880000D02*
X127480000Y-68100000D01*
X154940000Y-96520000D02*
X145810000Y-87390000D01*
D24*
%TO.N,Net-(BT1--)*%
X145220000Y-104140000D02*
X145220000Y-91880000D01*
X145220000Y-91880000D02*
X139700000Y-86360000D01*
%TO.N,Net-(D1-K)*%
X149860000Y-81280000D02*
X154940000Y-86360000D01*
X149860000Y-76200000D02*
X149860000Y-81280000D01*
%TO.N,/LED*%
X154940000Y-83820000D02*
X160020000Y-88900000D01*
X160020000Y-88900000D02*
X160020000Y-96520000D01*
D23*
%TO.N,GND*%
X162560000Y-104140000D02*
X160210000Y-106490000D01*
X143220000Y-104549188D02*
X143220000Y-104140000D01*
X163285000Y-83310000D02*
X169670000Y-83310000D01*
X165100000Y-76200000D02*
X165100000Y-81495000D01*
X160210000Y-106490000D02*
X145160812Y-106490000D01*
X169670000Y-83310000D02*
X170180000Y-83820000D01*
X145160812Y-106490000D02*
X143220000Y-104549188D01*
X165100000Y-81495000D02*
X163285000Y-83310000D01*
D24*
%TO.N,/MIC*%
X171380000Y-85160000D02*
X170180000Y-86360000D01*
X165100000Y-71440000D02*
X171380000Y-77720000D01*
X171380000Y-77720000D02*
X171380000Y-85160000D01*
%TO.N,/LDR*%
X165100000Y-68421250D02*
X162343750Y-71177500D01*
X162343750Y-71177500D02*
X162185000Y-71336250D01*
X162185000Y-71336250D02*
X162185000Y-85610000D01*
X162185000Y-85610000D02*
X163285000Y-86710000D01*
X165100000Y-66040000D02*
X165100000Y-68421250D01*
%TD*%
%TA.AperFunction,Conductor*%
%TO.N,GND*%
G36*
X155386952Y-56148171D02*
G01*
X167613417Y-63484050D01*
X167655949Y-63526582D01*
X169300018Y-66266697D01*
X174954716Y-75691194D01*
X174991829Y-75753048D01*
X175009500Y-75816845D01*
X175009500Y-90140222D01*
X175007092Y-90164540D01*
X172727363Y-101563185D01*
X172694913Y-101625063D01*
X172693452Y-101626548D01*
X162574229Y-111745770D01*
X162542002Y-111768998D01*
X152927182Y-116576409D01*
X152871728Y-116589500D01*
X134281794Y-116589500D01*
X134214755Y-116569815D01*
X134213011Y-116568674D01*
X127010215Y-111766810D01*
X126991317Y-111751317D01*
X120092884Y-104852884D01*
X137519500Y-104852884D01*
X137534317Y-105041150D01*
X137593126Y-105286110D01*
X137689533Y-105518859D01*
X137821160Y-105733653D01*
X137821161Y-105733656D01*
X137833025Y-105747547D01*
X137984776Y-105925224D01*
X138133066Y-106051875D01*
X138176343Y-106088838D01*
X138176346Y-106088839D01*
X138391140Y-106220466D01*
X138623889Y-106316872D01*
X138623889Y-106316873D01*
X138868852Y-106375683D01*
X139120000Y-106395449D01*
X139371148Y-106375683D01*
X139616111Y-106316873D01*
X139848859Y-106220466D01*
X140063659Y-106088836D01*
X140255224Y-105925224D01*
X140255229Y-105925217D01*
X140258663Y-105921784D01*
X140259797Y-105922918D01*
X140312397Y-105888556D01*
X140361477Y-105883979D01*
X140362516Y-105884090D01*
X140362517Y-105884091D01*
X140422127Y-105890500D01*
X142017872Y-105890499D01*
X142077483Y-105884091D01*
X142212331Y-105833796D01*
X142327546Y-105747546D01*
X142357149Y-105708000D01*
X142413081Y-105666130D01*
X142482773Y-105661146D01*
X142524726Y-105678825D01*
X142625266Y-105745191D01*
X142832169Y-105833624D01*
X142832178Y-105833627D01*
X142969999Y-105865084D01*
X142970000Y-105865083D01*
X142970000Y-104701821D01*
X142989685Y-104634782D01*
X143042489Y-104589027D01*
X143111647Y-104579083D01*
X143130547Y-104583329D01*
X143152173Y-104590000D01*
X143253723Y-104590000D01*
X143253724Y-104590000D01*
X143327519Y-104578877D01*
X143396742Y-104588350D01*
X143449857Y-104633744D01*
X143469997Y-104700648D01*
X143470000Y-104701492D01*
X143470000Y-105867549D01*
X143499267Y-105863586D01*
X143499273Y-105863585D01*
X143713268Y-105794054D01*
X143911401Y-105687434D01*
X143911404Y-105687432D01*
X144087319Y-105547145D01*
X144125760Y-105503145D01*
X144184690Y-105465610D01*
X144254560Y-105465894D01*
X144304834Y-105495101D01*
X144437176Y-105621633D01*
X144625033Y-105745636D01*
X144832004Y-105834100D01*
X144832007Y-105834101D01*
X144832012Y-105834103D01*
X145051463Y-105884191D01*
X145276330Y-105894290D01*
X145499387Y-105864075D01*
X145713464Y-105794517D01*
X145871802Y-105709311D01*
X145940162Y-105694878D01*
X146005476Y-105719695D01*
X146024846Y-105737970D01*
X146184776Y-105925224D01*
X146333066Y-106051875D01*
X146376343Y-106088838D01*
X146376346Y-106088839D01*
X146591140Y-106220466D01*
X146823888Y-106316873D01*
X146823889Y-106316873D01*
X147068852Y-106375683D01*
X147320000Y-106395449D01*
X147571148Y-106375683D01*
X147816111Y-106316873D01*
X148048859Y-106220466D01*
X148263659Y-106088836D01*
X148455224Y-105925224D01*
X148618836Y-105733659D01*
X148750466Y-105518859D01*
X148846873Y-105286111D01*
X148905683Y-105041148D01*
X148909876Y-104987870D01*
X153639500Y-104987870D01*
X153639501Y-104987876D01*
X153645908Y-105047483D01*
X153696202Y-105182328D01*
X153696206Y-105182335D01*
X153782452Y-105297544D01*
X153782455Y-105297547D01*
X153897664Y-105383793D01*
X153897671Y-105383797D01*
X154032517Y-105434091D01*
X154032516Y-105434091D01*
X154039444Y-105434835D01*
X154092127Y-105440500D01*
X155787872Y-105440499D01*
X155847483Y-105434091D01*
X155982331Y-105383796D01*
X156097546Y-105297546D01*
X156183796Y-105182331D01*
X156234091Y-105047483D01*
X156237862Y-105012401D01*
X156264599Y-104947855D01*
X156321990Y-104908006D01*
X156391816Y-104905511D01*
X156451905Y-104941163D01*
X156462726Y-104954536D01*
X156479956Y-104979143D01*
X156640858Y-105140045D01*
X156640861Y-105140047D01*
X156827266Y-105270568D01*
X157033504Y-105366739D01*
X157253308Y-105425635D01*
X157415230Y-105439801D01*
X157479998Y-105445468D01*
X157480000Y-105445468D01*
X157480002Y-105445468D01*
X157536807Y-105440498D01*
X157706692Y-105425635D01*
X157926496Y-105366739D01*
X158132734Y-105270568D01*
X158319139Y-105140047D01*
X158480047Y-104979139D01*
X158610568Y-104792734D01*
X158637618Y-104734724D01*
X158683790Y-104682285D01*
X158750983Y-104663133D01*
X158817865Y-104683348D01*
X158862382Y-104734725D01*
X158889429Y-104792728D01*
X158889432Y-104792734D01*
X159019954Y-104979141D01*
X159180858Y-105140045D01*
X159180861Y-105140047D01*
X159367266Y-105270568D01*
X159573504Y-105366739D01*
X159793308Y-105425635D01*
X159955230Y-105439801D01*
X160019998Y-105445468D01*
X160020000Y-105445468D01*
X160020002Y-105445468D01*
X160076807Y-105440498D01*
X160246692Y-105425635D01*
X160466496Y-105366739D01*
X160672734Y-105270568D01*
X160859139Y-105140047D01*
X161020047Y-104979139D01*
X161150568Y-104792734D01*
X161177895Y-104734129D01*
X161224064Y-104681695D01*
X161291257Y-104662542D01*
X161358139Y-104682757D01*
X161402657Y-104734133D01*
X161429865Y-104792482D01*
X161560342Y-104978820D01*
X161721179Y-105139657D01*
X161907517Y-105270134D01*
X162113673Y-105366265D01*
X162113682Y-105366269D01*
X162309999Y-105418872D01*
X162310000Y-105418871D01*
X162310000Y-104650575D01*
X162329685Y-104583536D01*
X162382489Y-104537781D01*
X162451647Y-104527837D01*
X162453331Y-104528091D01*
X162485699Y-104533218D01*
X162528515Y-104540000D01*
X162528519Y-104540000D01*
X162591485Y-104540000D01*
X162634300Y-104533218D01*
X162666602Y-104528102D01*
X162735894Y-104537056D01*
X162789347Y-104582052D01*
X162809987Y-104648803D01*
X162810000Y-104650575D01*
X162810000Y-105418872D01*
X163006317Y-105366269D01*
X163006326Y-105366265D01*
X163212482Y-105270134D01*
X163398820Y-105139657D01*
X163559657Y-104978820D01*
X163690134Y-104792482D01*
X163786265Y-104586326D01*
X163786269Y-104586317D01*
X163838872Y-104390000D01*
X163070576Y-104390000D01*
X163003537Y-104370315D01*
X162957782Y-104317511D01*
X162947838Y-104248353D01*
X162948103Y-104246603D01*
X162964986Y-104140003D01*
X162964986Y-104139996D01*
X162948103Y-104033397D01*
X162957058Y-103964104D01*
X163002054Y-103910652D01*
X163068806Y-103890013D01*
X163070576Y-103890000D01*
X163838872Y-103890000D01*
X163838872Y-103889999D01*
X163786269Y-103693682D01*
X163786265Y-103693673D01*
X163690134Y-103487517D01*
X163559657Y-103301179D01*
X163398820Y-103140342D01*
X163212482Y-103009865D01*
X163006328Y-102913734D01*
X162810000Y-102861127D01*
X162810000Y-103629424D01*
X162790315Y-103696463D01*
X162737511Y-103742218D01*
X162668353Y-103752162D01*
X162666602Y-103751897D01*
X162591486Y-103740000D01*
X162591481Y-103740000D01*
X162528519Y-103740000D01*
X162528514Y-103740000D01*
X162453398Y-103751897D01*
X162384104Y-103742942D01*
X162330652Y-103697946D01*
X162310013Y-103631194D01*
X162310000Y-103629424D01*
X162310000Y-102861127D01*
X162113671Y-102913734D01*
X161907517Y-103009865D01*
X161721179Y-103140342D01*
X161560342Y-103301179D01*
X161429867Y-103487515D01*
X161402657Y-103545867D01*
X161356484Y-103598306D01*
X161289290Y-103617457D01*
X161222409Y-103597241D01*
X161177893Y-103545865D01*
X161169307Y-103527453D01*
X161150568Y-103487266D01*
X161020047Y-103300861D01*
X161020045Y-103300858D01*
X160859141Y-103139954D01*
X160672734Y-103009432D01*
X160672732Y-103009431D01*
X160466497Y-102913261D01*
X160466488Y-102913258D01*
X160246697Y-102854366D01*
X160246693Y-102854365D01*
X160246692Y-102854365D01*
X160246691Y-102854364D01*
X160246686Y-102854364D01*
X160020002Y-102834532D01*
X160019998Y-102834532D01*
X159793313Y-102854364D01*
X159793302Y-102854366D01*
X159573511Y-102913258D01*
X159573502Y-102913261D01*
X159367267Y-103009431D01*
X159367265Y-103009432D01*
X159180858Y-103139954D01*
X159019954Y-103300858D01*
X158889432Y-103487265D01*
X158889431Y-103487267D01*
X158862382Y-103545275D01*
X158816209Y-103597714D01*
X158749016Y-103616866D01*
X158682135Y-103596650D01*
X158637618Y-103545275D01*
X158610568Y-103487266D01*
X158480047Y-103300861D01*
X158480045Y-103300858D01*
X158319141Y-103139954D01*
X158132734Y-103009432D01*
X158132732Y-103009431D01*
X157926497Y-102913261D01*
X157926488Y-102913258D01*
X157706697Y-102854366D01*
X157706693Y-102854365D01*
X157706692Y-102854365D01*
X157706691Y-102854364D01*
X157706686Y-102854364D01*
X157480002Y-102834532D01*
X157479998Y-102834532D01*
X157253313Y-102854364D01*
X157253302Y-102854366D01*
X157033511Y-102913258D01*
X157033502Y-102913261D01*
X156827267Y-103009431D01*
X156827265Y-103009432D01*
X156640858Y-103139954D01*
X156479954Y-103300858D01*
X156462725Y-103325464D01*
X156408147Y-103369088D01*
X156338648Y-103376280D01*
X156276294Y-103344757D01*
X156240882Y-103284526D01*
X156237861Y-103267591D01*
X156234091Y-103232516D01*
X156183797Y-103097671D01*
X156183793Y-103097664D01*
X156097547Y-102982455D01*
X156097544Y-102982452D01*
X155982335Y-102896206D01*
X155982328Y-102896202D01*
X155847482Y-102845908D01*
X155847483Y-102845908D01*
X155787883Y-102839501D01*
X155787881Y-102839500D01*
X155787873Y-102839500D01*
X155787864Y-102839500D01*
X154092129Y-102839500D01*
X154092123Y-102839501D01*
X154032516Y-102845908D01*
X153897671Y-102896202D01*
X153897664Y-102896206D01*
X153782455Y-102982452D01*
X153782452Y-102982455D01*
X153696206Y-103097664D01*
X153696202Y-103097671D01*
X153645908Y-103232517D01*
X153639501Y-103292116D01*
X153639500Y-103292135D01*
X153639500Y-104987870D01*
X148909876Y-104987870D01*
X148920500Y-104852882D01*
X148920500Y-103427118D01*
X148905683Y-103238852D01*
X148846873Y-102993889D01*
X148842137Y-102982455D01*
X148750466Y-102761140D01*
X148618839Y-102546346D01*
X148618838Y-102546343D01*
X148533455Y-102446373D01*
X148455224Y-102354776D01*
X148328571Y-102246604D01*
X148263656Y-102191161D01*
X148263653Y-102191160D01*
X148048859Y-102059533D01*
X147816110Y-101963126D01*
X147571151Y-101904317D01*
X147382787Y-101889492D01*
X147320000Y-101884551D01*
X147319999Y-101884551D01*
X147068848Y-101904317D01*
X146823889Y-101963126D01*
X146591140Y-102059533D01*
X146376346Y-102191160D01*
X146376343Y-102191161D01*
X146184776Y-102354776D01*
X146088790Y-102467161D01*
X146030283Y-102505354D01*
X145960415Y-102505852D01*
X145901369Y-102468498D01*
X145871891Y-102405152D01*
X145870500Y-102386629D01*
X145870500Y-91965502D01*
X145872268Y-91949489D01*
X145872026Y-91949467D01*
X145872758Y-91941711D01*
X145872760Y-91941704D01*
X145870500Y-91869796D01*
X145870500Y-91839075D01*
X145869579Y-91831788D01*
X145869122Y-91825979D01*
X145867597Y-91777431D01*
X145861676Y-91757053D01*
X145857731Y-91738004D01*
X145855071Y-91716942D01*
X145837185Y-91671769D01*
X145835296Y-91666249D01*
X145821743Y-91619600D01*
X145810940Y-91601334D01*
X145802378Y-91583856D01*
X145794568Y-91564129D01*
X145794565Y-91564125D01*
X145766014Y-91524827D01*
X145762811Y-91519951D01*
X145738081Y-91478135D01*
X145738079Y-91478133D01*
X145738078Y-91478131D01*
X145723075Y-91463129D01*
X145710435Y-91448330D01*
X145697961Y-91431160D01*
X145660528Y-91400194D01*
X145656206Y-91396260D01*
X140746697Y-86486751D01*
X140713212Y-86425428D01*
X140710850Y-86388261D01*
X140713323Y-86359999D01*
X140713323Y-86359998D01*
X140706383Y-86280670D01*
X140694070Y-86139932D01*
X140636894Y-85926550D01*
X140543534Y-85726339D01*
X140441629Y-85580802D01*
X140416827Y-85545381D01*
X140345238Y-85473792D01*
X140260620Y-85389174D01*
X140260616Y-85389171D01*
X140260615Y-85389170D01*
X140079666Y-85262468D01*
X140079662Y-85262466D01*
X140032457Y-85240454D01*
X139879450Y-85169106D01*
X139879447Y-85169105D01*
X139879445Y-85169104D01*
X139666070Y-85111930D01*
X139666062Y-85111929D01*
X139446002Y-85092677D01*
X139445998Y-85092677D01*
X139225937Y-85111929D01*
X139225929Y-85111930D01*
X139012554Y-85169104D01*
X139012548Y-85169107D01*
X138812340Y-85262465D01*
X138812338Y-85262466D01*
X138631377Y-85389175D01*
X138475175Y-85545377D01*
X138348466Y-85726338D01*
X138348465Y-85726340D01*
X138255107Y-85926548D01*
X138255104Y-85926554D01*
X138197930Y-86139929D01*
X138197929Y-86139937D01*
X138178677Y-86359997D01*
X138178677Y-86360002D01*
X138197929Y-86580062D01*
X138197930Y-86580070D01*
X138255104Y-86793445D01*
X138255105Y-86793447D01*
X138255106Y-86793450D01*
X138269195Y-86823664D01*
X138348466Y-86993662D01*
X138348468Y-86993666D01*
X138475170Y-87174615D01*
X138475175Y-87174621D01*
X138631378Y-87330824D01*
X138631384Y-87330829D01*
X138812333Y-87457531D01*
X138812335Y-87457532D01*
X138812338Y-87457534D01*
X139012550Y-87550894D01*
X139225932Y-87608070D01*
X139383123Y-87621822D01*
X139445998Y-87627323D01*
X139446000Y-87627323D01*
X139446002Y-87627323D01*
X139501151Y-87622498D01*
X139666068Y-87608070D01*
X139879450Y-87550894D01*
X139879458Y-87550889D01*
X139882459Y-87550086D01*
X139952308Y-87551749D01*
X140002234Y-87582180D01*
X144533181Y-92113127D01*
X144566666Y-92174450D01*
X144569500Y-92200808D01*
X144569500Y-102499592D01*
X144549815Y-102566631D01*
X144522813Y-102596539D01*
X144352333Y-102732492D01*
X144313545Y-102776888D01*
X144254613Y-102814421D01*
X144184744Y-102814135D01*
X144134473Y-102784929D01*
X144002510Y-102658759D01*
X143814733Y-102534808D01*
X143607830Y-102446375D01*
X143607823Y-102446373D01*
X143470000Y-102414915D01*
X143470000Y-103578178D01*
X143450315Y-103645217D01*
X143397511Y-103690972D01*
X143328353Y-103700916D01*
X143309454Y-103696670D01*
X143287829Y-103690000D01*
X143287827Y-103690000D01*
X143186276Y-103690000D01*
X143186268Y-103690000D01*
X143112481Y-103701122D01*
X143043256Y-103691649D01*
X142990143Y-103646254D01*
X142970003Y-103579350D01*
X142970000Y-103578507D01*
X142970000Y-102412449D01*
X142969999Y-102412449D01*
X142940721Y-102416415D01*
X142726731Y-102485945D01*
X142528599Y-102592565D01*
X142523953Y-102595633D01*
X142522892Y-102594027D01*
X142466130Y-102617188D01*
X142397437Y-102604419D01*
X142354262Y-102568142D01*
X142353131Y-102566631D01*
X142327546Y-102532454D01*
X142327544Y-102532453D01*
X142327544Y-102532452D01*
X142212335Y-102446206D01*
X142212328Y-102446202D01*
X142077482Y-102395908D01*
X142077483Y-102395908D01*
X142017883Y-102389501D01*
X142017881Y-102389500D01*
X142017873Y-102389500D01*
X142017864Y-102389500D01*
X140422129Y-102389500D01*
X140422118Y-102389501D01*
X140361472Y-102396020D01*
X140292713Y-102383612D01*
X140259368Y-102357521D01*
X140258669Y-102358221D01*
X140255227Y-102354779D01*
X140255225Y-102354777D01*
X140255224Y-102354776D01*
X140159441Y-102272970D01*
X140063656Y-102191161D01*
X140063653Y-102191160D01*
X139848859Y-102059533D01*
X139616110Y-101963126D01*
X139371151Y-101904317D01*
X139182786Y-101889492D01*
X139120000Y-101884551D01*
X139119999Y-101884551D01*
X138868848Y-101904317D01*
X138623889Y-101963126D01*
X138391140Y-102059533D01*
X138176346Y-102191160D01*
X138176343Y-102191161D01*
X137984776Y-102354776D01*
X137821161Y-102546343D01*
X137821160Y-102546346D01*
X137689533Y-102761140D01*
X137593126Y-102993889D01*
X137534317Y-103238849D01*
X137519500Y-103427116D01*
X137519500Y-104852884D01*
X120092884Y-104852884D01*
X119394228Y-104154228D01*
X119371000Y-104122001D01*
X119254999Y-103889999D01*
X114563591Y-94507181D01*
X114550500Y-94451728D01*
X114550500Y-87169870D01*
X118117500Y-87169870D01*
X118117501Y-87169876D01*
X118123908Y-87229483D01*
X118174202Y-87364328D01*
X118174206Y-87364335D01*
X118260452Y-87479544D01*
X118260455Y-87479547D01*
X118375664Y-87565793D01*
X118375671Y-87565797D01*
X118510517Y-87616091D01*
X118510516Y-87616091D01*
X118517444Y-87616835D01*
X118570127Y-87622500D01*
X120189872Y-87622499D01*
X120249483Y-87616091D01*
X120384331Y-87565796D01*
X120499546Y-87479546D01*
X120585796Y-87364331D01*
X120636091Y-87229483D01*
X120642500Y-87169873D01*
X120642499Y-85550128D01*
X120636091Y-85490517D01*
X120630689Y-85476034D01*
X120608318Y-85416053D01*
X120600500Y-85372720D01*
X120600500Y-76304361D01*
X120620185Y-76237322D01*
X120636819Y-76216680D01*
X127816681Y-69036819D01*
X127878004Y-69003334D01*
X127904362Y-69000500D01*
X141367613Y-69000500D01*
X141434652Y-69020185D01*
X141478099Y-69068207D01*
X141480618Y-69073151D01*
X141487109Y-69081166D01*
X141569881Y-69183380D01*
X141569889Y-69183388D01*
X144873181Y-72486680D01*
X144906666Y-72548003D01*
X144909500Y-72574361D01*
X144909500Y-87309373D01*
X144907972Y-87328772D01*
X144905781Y-87342612D01*
X144908709Y-87398495D01*
X144909415Y-87411956D01*
X144909500Y-87415201D01*
X144909500Y-87437189D01*
X144911797Y-87459059D01*
X144912051Y-87462290D01*
X144915686Y-87531643D01*
X144915688Y-87531653D01*
X144919315Y-87545189D01*
X144922860Y-87564314D01*
X144923016Y-87565796D01*
X144924326Y-87578256D01*
X144942406Y-87633903D01*
X144945784Y-87644298D01*
X144946705Y-87647409D01*
X144964679Y-87714486D01*
X144964684Y-87714498D01*
X144971043Y-87726978D01*
X144978488Y-87744949D01*
X144981458Y-87754091D01*
X144982821Y-87758284D01*
X144997918Y-87784432D01*
X145017537Y-87818414D01*
X145019085Y-87821266D01*
X145040992Y-87864259D01*
X145050617Y-87883149D01*
X145050619Y-87883151D01*
X145050620Y-87883153D01*
X145059438Y-87894043D01*
X145070454Y-87910070D01*
X145077465Y-87922213D01*
X145077470Y-87922220D01*
X145123939Y-87973831D01*
X145126043Y-87976295D01*
X145139882Y-87993382D01*
X145155423Y-88008922D01*
X145157657Y-88011277D01*
X145204128Y-88062887D01*
X145215468Y-88071126D01*
X145230265Y-88083764D01*
X153599553Y-96453053D01*
X153633038Y-96514376D01*
X153635400Y-96529926D01*
X153654364Y-96746687D01*
X153654366Y-96746697D01*
X153713258Y-96966488D01*
X153713261Y-96966497D01*
X153809431Y-97172732D01*
X153809432Y-97172734D01*
X153939954Y-97359141D01*
X154100858Y-97520045D01*
X154100861Y-97520047D01*
X154287266Y-97650568D01*
X154493504Y-97746739D01*
X154713308Y-97805635D01*
X154875230Y-97819801D01*
X154939998Y-97825468D01*
X154940000Y-97825468D01*
X154940002Y-97825468D01*
X154996672Y-97820509D01*
X155166692Y-97805635D01*
X155386496Y-97746739D01*
X155592734Y-97650568D01*
X155779139Y-97520047D01*
X155940047Y-97359139D01*
X156070568Y-97172734D01*
X156097618Y-97114724D01*
X156143790Y-97062285D01*
X156210983Y-97043133D01*
X156277865Y-97063348D01*
X156322382Y-97114725D01*
X156349429Y-97172728D01*
X156349432Y-97172734D01*
X156479954Y-97359141D01*
X156640858Y-97520045D01*
X156640861Y-97520047D01*
X156827266Y-97650568D01*
X157033504Y-97746739D01*
X157253308Y-97805635D01*
X157415230Y-97819801D01*
X157479998Y-97825468D01*
X157480000Y-97825468D01*
X157480002Y-97825468D01*
X157536672Y-97820509D01*
X157706692Y-97805635D01*
X157926496Y-97746739D01*
X158132734Y-97650568D01*
X158319139Y-97520047D01*
X158480047Y-97359139D01*
X158610568Y-97172734D01*
X158637618Y-97114724D01*
X158683790Y-97062285D01*
X158750983Y-97043133D01*
X158817865Y-97063348D01*
X158862382Y-97114725D01*
X158889429Y-97172728D01*
X158889432Y-97172734D01*
X159019954Y-97359141D01*
X159180858Y-97520045D01*
X159180861Y-97520047D01*
X159367266Y-97650568D01*
X159573504Y-97746739D01*
X159793308Y-97805635D01*
X159955230Y-97819801D01*
X160019998Y-97825468D01*
X160020000Y-97825468D01*
X160020002Y-97825468D01*
X160076673Y-97820509D01*
X160246692Y-97805635D01*
X160466496Y-97746739D01*
X160672734Y-97650568D01*
X160859139Y-97520047D01*
X161020047Y-97359139D01*
X161150568Y-97172734D01*
X161177618Y-97114724D01*
X161223790Y-97062285D01*
X161290983Y-97043133D01*
X161357865Y-97063348D01*
X161402382Y-97114725D01*
X161429429Y-97172728D01*
X161429432Y-97172734D01*
X161559954Y-97359141D01*
X161720858Y-97520045D01*
X161720861Y-97520047D01*
X161907266Y-97650568D01*
X162113504Y-97746739D01*
X162333308Y-97805635D01*
X162495230Y-97819801D01*
X162559998Y-97825468D01*
X162560000Y-97825468D01*
X162560002Y-97825468D01*
X162616673Y-97820509D01*
X162786692Y-97805635D01*
X163006496Y-97746739D01*
X163212734Y-97650568D01*
X163399139Y-97520047D01*
X163560047Y-97359139D01*
X163690568Y-97172734D01*
X163786739Y-96966496D01*
X163845635Y-96746692D01*
X163865468Y-96520000D01*
X163845635Y-96293308D01*
X163786739Y-96073504D01*
X163690568Y-95867266D01*
X163560047Y-95680861D01*
X163560045Y-95680858D01*
X163399141Y-95519954D01*
X163212734Y-95389432D01*
X163212732Y-95389431D01*
X163006497Y-95293261D01*
X163006488Y-95293258D01*
X162786697Y-95234366D01*
X162786693Y-95234365D01*
X162786692Y-95234365D01*
X162786691Y-95234364D01*
X162786686Y-95234364D01*
X162560002Y-95214532D01*
X162559998Y-95214532D01*
X162333313Y-95234364D01*
X162333302Y-95234366D01*
X162113511Y-95293258D01*
X162113502Y-95293261D01*
X161907267Y-95389431D01*
X161907265Y-95389432D01*
X161720858Y-95519954D01*
X161559954Y-95680858D01*
X161429432Y-95867265D01*
X161429431Y-95867267D01*
X161402382Y-95925275D01*
X161356209Y-95977714D01*
X161289016Y-95996866D01*
X161222135Y-95976650D01*
X161177618Y-95925275D01*
X161150568Y-95867267D01*
X161150567Y-95867265D01*
X161020045Y-95680858D01*
X160859140Y-95519953D01*
X160723377Y-95424891D01*
X160679752Y-95370314D01*
X160670500Y-95323316D01*
X160670500Y-88985502D01*
X160672268Y-88969489D01*
X160672026Y-88969467D01*
X160672758Y-88961711D01*
X160672760Y-88961704D01*
X160670500Y-88889796D01*
X160670500Y-88859075D01*
X160669579Y-88851788D01*
X160669122Y-88845979D01*
X160667597Y-88797431D01*
X160661676Y-88777053D01*
X160657731Y-88758004D01*
X160655071Y-88736942D01*
X160637185Y-88691769D01*
X160635296Y-88686249D01*
X160621743Y-88639600D01*
X160610940Y-88621334D01*
X160602378Y-88603856D01*
X160594568Y-88584129D01*
X160594565Y-88584125D01*
X160566014Y-88544827D01*
X160562811Y-88539951D01*
X160538081Y-88498135D01*
X160538079Y-88498133D01*
X160538078Y-88498131D01*
X160523075Y-88483129D01*
X160510435Y-88468330D01*
X160497961Y-88451160D01*
X160460528Y-88420194D01*
X160456206Y-88416260D01*
X156328493Y-84288547D01*
X156295008Y-84227224D01*
X156295969Y-84170425D01*
X156326131Y-84051317D01*
X156326131Y-84051316D01*
X156326134Y-84051305D01*
X156326135Y-84051297D01*
X156345300Y-83820006D01*
X156345300Y-83819993D01*
X156326135Y-83588702D01*
X156326133Y-83588691D01*
X156269157Y-83363699D01*
X156175924Y-83151151D01*
X156048983Y-82956852D01*
X156048980Y-82956849D01*
X156048979Y-82956847D01*
X155891784Y-82786087D01*
X155891779Y-82786083D01*
X155891777Y-82786081D01*
X155708634Y-82643535D01*
X155708628Y-82643531D01*
X155504504Y-82533064D01*
X155504495Y-82533061D01*
X155284984Y-82457702D01*
X155113282Y-82429050D01*
X155056049Y-82419500D01*
X154823951Y-82419500D01*
X154778164Y-82427140D01*
X154595015Y-82457702D01*
X154375504Y-82533061D01*
X154375495Y-82533064D01*
X154171371Y-82643531D01*
X154171365Y-82643535D01*
X153988222Y-82786081D01*
X153988219Y-82786084D01*
X153831016Y-82956852D01*
X153704075Y-83151151D01*
X153610842Y-83363699D01*
X153553866Y-83588691D01*
X153553864Y-83588703D01*
X153540357Y-83751713D01*
X153515204Y-83816898D01*
X153458802Y-83858136D01*
X153389058Y-83862334D01*
X153329100Y-83829154D01*
X150546819Y-81046873D01*
X150513334Y-80985550D01*
X150510500Y-80959192D01*
X150510500Y-77396682D01*
X150530185Y-77329643D01*
X150563371Y-77295111D01*
X150699139Y-77200047D01*
X150860047Y-77039139D01*
X150990568Y-76852734D01*
X151086739Y-76646496D01*
X151145635Y-76426692D01*
X151165468Y-76200000D01*
X151145635Y-75973308D01*
X151086739Y-75753504D01*
X150990568Y-75547266D01*
X150860047Y-75360861D01*
X150860045Y-75360858D01*
X150699141Y-75199954D01*
X150512734Y-75069432D01*
X150512732Y-75069431D01*
X150306497Y-74973261D01*
X150306488Y-74973258D01*
X150086697Y-74914366D01*
X150086693Y-74914365D01*
X150086692Y-74914365D01*
X150086691Y-74914364D01*
X150086686Y-74914364D01*
X149860002Y-74894532D01*
X149859998Y-74894532D01*
X149633313Y-74914364D01*
X149633302Y-74914366D01*
X149413511Y-74973258D01*
X149413502Y-74973261D01*
X149207267Y-75069431D01*
X149207265Y-75069432D01*
X149020858Y-75199954D01*
X148859954Y-75360858D01*
X148729432Y-75547265D01*
X148729431Y-75547267D01*
X148633261Y-75753502D01*
X148633258Y-75753511D01*
X148574366Y-75973302D01*
X148574364Y-75973313D01*
X148554532Y-76199998D01*
X148554532Y-76200001D01*
X148574364Y-76426686D01*
X148574366Y-76426697D01*
X148633258Y-76646488D01*
X148633261Y-76646497D01*
X148729431Y-76852732D01*
X148729432Y-76852734D01*
X148859954Y-77039141D01*
X149020855Y-77200042D01*
X149020858Y-77200044D01*
X149020861Y-77200047D01*
X149156626Y-77295109D01*
X149200248Y-77349683D01*
X149209500Y-77396682D01*
X149209500Y-81194494D01*
X149207732Y-81210505D01*
X149207974Y-81210528D01*
X149207240Y-81218294D01*
X149209500Y-81290203D01*
X149209500Y-81320920D01*
X149209501Y-81320940D01*
X149210418Y-81328206D01*
X149210876Y-81334024D01*
X149212402Y-81382567D01*
X149212403Y-81382570D01*
X149218323Y-81402948D01*
X149222268Y-81421996D01*
X149224928Y-81443054D01*
X149224931Y-81443064D01*
X149242813Y-81488230D01*
X149244705Y-81493758D01*
X149258254Y-81540395D01*
X149258255Y-81540397D01*
X149269060Y-81558666D01*
X149277617Y-81576134D01*
X149283226Y-81590300D01*
X149285432Y-81595872D01*
X149313983Y-81635170D01*
X149317188Y-81640049D01*
X149341919Y-81681865D01*
X149341923Y-81681869D01*
X149356925Y-81696871D01*
X149369563Y-81711669D01*
X149382033Y-81728833D01*
X149382036Y-81728836D01*
X149382037Y-81728837D01*
X149419476Y-81759809D01*
X149423776Y-81763722D01*
X151476952Y-83816898D01*
X153503181Y-85843127D01*
X153536666Y-85904450D01*
X153539500Y-85930808D01*
X153539500Y-87307870D01*
X153539501Y-87307876D01*
X153545908Y-87367483D01*
X153596202Y-87502328D01*
X153596206Y-87502335D01*
X153682452Y-87617544D01*
X153682455Y-87617547D01*
X153797664Y-87703793D01*
X153797671Y-87703797D01*
X153932517Y-87754091D01*
X153932516Y-87754091D01*
X153939444Y-87754835D01*
X153992127Y-87760500D01*
X155887872Y-87760499D01*
X155947483Y-87754091D01*
X156082331Y-87703796D01*
X156197546Y-87617546D01*
X156283796Y-87502331D01*
X156334091Y-87367483D01*
X156340500Y-87307873D01*
X156340499Y-86439806D01*
X156360183Y-86372768D01*
X156412987Y-86327013D01*
X156482146Y-86317069D01*
X156545702Y-86346094D01*
X156552180Y-86352126D01*
X159333181Y-89133126D01*
X159366666Y-89194449D01*
X159369500Y-89220807D01*
X159369500Y-95323316D01*
X159349815Y-95390355D01*
X159316623Y-95424891D01*
X159180859Y-95519953D01*
X159019954Y-95680858D01*
X158889432Y-95867265D01*
X158889431Y-95867267D01*
X158862382Y-95925275D01*
X158816209Y-95977714D01*
X158749016Y-95996866D01*
X158682135Y-95976650D01*
X158637618Y-95925275D01*
X158610568Y-95867267D01*
X158610567Y-95867265D01*
X158480045Y-95680858D01*
X158319141Y-95519954D01*
X158132734Y-95389432D01*
X158132732Y-95389431D01*
X157926497Y-95293261D01*
X157926488Y-95293258D01*
X157706697Y-95234366D01*
X157706693Y-95234365D01*
X157706692Y-95234365D01*
X157706691Y-95234364D01*
X157706686Y-95234364D01*
X157480002Y-95214532D01*
X157479998Y-95214532D01*
X157253313Y-95234364D01*
X157253302Y-95234366D01*
X157033511Y-95293258D01*
X157033502Y-95293261D01*
X156827267Y-95389431D01*
X156827265Y-95389432D01*
X156640858Y-95519954D01*
X156479954Y-95680858D01*
X156349432Y-95867265D01*
X156349431Y-95867267D01*
X156322382Y-95925275D01*
X156276209Y-95977714D01*
X156209016Y-95996866D01*
X156142135Y-95976650D01*
X156097618Y-95925275D01*
X156070568Y-95867267D01*
X156070567Y-95867265D01*
X155940045Y-95680858D01*
X155779141Y-95519954D01*
X155592734Y-95389432D01*
X155592732Y-95389431D01*
X155386497Y-95293261D01*
X155386488Y-95293258D01*
X155166697Y-95234366D01*
X155166687Y-95234364D01*
X154949926Y-95215400D01*
X154884858Y-95189947D01*
X154873053Y-95179553D01*
X146746819Y-87053319D01*
X146713334Y-86991996D01*
X146710500Y-86965638D01*
X146710500Y-73984500D01*
X146730185Y-73917461D01*
X146782989Y-73871706D01*
X146834500Y-73860500D01*
X148159373Y-73860500D01*
X148178772Y-73862027D01*
X148192612Y-73864219D01*
X148261959Y-73860584D01*
X148265203Y-73860500D01*
X148287191Y-73860500D01*
X148287192Y-73860500D01*
X148303988Y-73858734D01*
X148309064Y-73858201D01*
X148312284Y-73857947D01*
X148381646Y-73854313D01*
X148395187Y-73850683D01*
X148414313Y-73847138D01*
X148428256Y-73845674D01*
X148494306Y-73824212D01*
X148497368Y-73823304D01*
X148564488Y-73805320D01*
X148576976Y-73798956D01*
X148594950Y-73791510D01*
X148608284Y-73787179D01*
X148668476Y-73752425D01*
X148671222Y-73750934D01*
X148733149Y-73719383D01*
X148744031Y-73710569D01*
X148760083Y-73699537D01*
X148772216Y-73692533D01*
X148823847Y-73646043D01*
X148826260Y-73643982D01*
X148843380Y-73630119D01*
X148858929Y-73614568D01*
X148861270Y-73612347D01*
X148912888Y-73565871D01*
X148921130Y-73554525D01*
X148933760Y-73539737D01*
X149793053Y-72680444D01*
X149854374Y-72646961D01*
X149869914Y-72644600D01*
X150086692Y-72625635D01*
X150306496Y-72566739D01*
X150512734Y-72470568D01*
X150699139Y-72340047D01*
X150860047Y-72179139D01*
X150990568Y-71992734D01*
X151086739Y-71786496D01*
X151145635Y-71566692D01*
X151165468Y-71340000D01*
X151164599Y-71330073D01*
X151163338Y-71315655D01*
X161529653Y-71315655D01*
X161531955Y-71340001D01*
X161534225Y-71364017D01*
X161534500Y-71369856D01*
X161534500Y-85524494D01*
X161532732Y-85540505D01*
X161532974Y-85540528D01*
X161532240Y-85548294D01*
X161534500Y-85620203D01*
X161534500Y-85650920D01*
X161534501Y-85650940D01*
X161535418Y-85658206D01*
X161535876Y-85664024D01*
X161537402Y-85712567D01*
X161537403Y-85712570D01*
X161543323Y-85732948D01*
X161547268Y-85751996D01*
X161549928Y-85773054D01*
X161549931Y-85773064D01*
X161567813Y-85818230D01*
X161569705Y-85823758D01*
X161583254Y-85870395D01*
X161583255Y-85870397D01*
X161594060Y-85888666D01*
X161602617Y-85906134D01*
X161608226Y-85920300D01*
X161610432Y-85925872D01*
X161638983Y-85965170D01*
X161642188Y-85970049D01*
X161666919Y-86011865D01*
X161666923Y-86011869D01*
X161681925Y-86026871D01*
X161694563Y-86041669D01*
X161707033Y-86058833D01*
X161707036Y-86058836D01*
X161707037Y-86058837D01*
X161744476Y-86089809D01*
X161748776Y-86093722D01*
X161935722Y-86280668D01*
X162018940Y-86363886D01*
X162052425Y-86425209D01*
X162051034Y-86483659D01*
X162048795Y-86492015D01*
X162048792Y-86492029D01*
X162029723Y-86709997D01*
X162029723Y-86710002D01*
X162048793Y-86927975D01*
X162048793Y-86927979D01*
X162105422Y-87139322D01*
X162105424Y-87139326D01*
X162105425Y-87139330D01*
X162147464Y-87229482D01*
X162197897Y-87337638D01*
X162197898Y-87337639D01*
X162323402Y-87516877D01*
X162478123Y-87671598D01*
X162657361Y-87797102D01*
X162855670Y-87889575D01*
X163067023Y-87946207D01*
X163249926Y-87962208D01*
X163284998Y-87965277D01*
X163285000Y-87965277D01*
X163285002Y-87965277D01*
X163313254Y-87962805D01*
X163502977Y-87946207D01*
X163714330Y-87889575D01*
X163912639Y-87797102D01*
X164091877Y-87671598D01*
X164246598Y-87516877D01*
X164372102Y-87337639D01*
X164464575Y-87139330D01*
X164521207Y-86927977D01*
X164540277Y-86710000D01*
X164521207Y-86492023D01*
X164464575Y-86280670D01*
X164372102Y-86082362D01*
X164372100Y-86082359D01*
X164372099Y-86082357D01*
X164246599Y-85903124D01*
X164186602Y-85843127D01*
X164091877Y-85748402D01*
X163952666Y-85650925D01*
X163912638Y-85622897D01*
X163756583Y-85550128D01*
X163714330Y-85530425D01*
X163714326Y-85530424D01*
X163714322Y-85530422D01*
X163502977Y-85473793D01*
X163285002Y-85454723D01*
X163284998Y-85454723D01*
X163067029Y-85473792D01*
X163067025Y-85473792D01*
X163067023Y-85473793D01*
X163067017Y-85473794D01*
X163067015Y-85473795D01*
X163058659Y-85476034D01*
X162988809Y-85474370D01*
X162938886Y-85443940D01*
X162871819Y-85376873D01*
X162838334Y-85315550D01*
X162835500Y-85289192D01*
X162835500Y-84645251D01*
X162855185Y-84578212D01*
X162907989Y-84532457D01*
X162977147Y-84522513D01*
X162991595Y-84525477D01*
X163067101Y-84545709D01*
X163067115Y-84545712D01*
X163284999Y-84564775D01*
X163285001Y-84564775D01*
X163502884Y-84545712D01*
X163502894Y-84545710D01*
X163714150Y-84489105D01*
X163714159Y-84489101D01*
X163912387Y-84396666D01*
X163974572Y-84353124D01*
X163468866Y-83847419D01*
X163435381Y-83786096D01*
X163440365Y-83716405D01*
X163482236Y-83660471D01*
X163500245Y-83649258D01*
X163523045Y-83637641D01*
X163612641Y-83548045D01*
X163624254Y-83525252D01*
X163672225Y-83474458D01*
X163740046Y-83457661D01*
X163806181Y-83480197D01*
X163822419Y-83493866D01*
X164328124Y-83999572D01*
X164371666Y-83937387D01*
X164464101Y-83739159D01*
X164464105Y-83739150D01*
X164520710Y-83527894D01*
X164520712Y-83527884D01*
X164539775Y-83310000D01*
X164539775Y-83309999D01*
X164520712Y-83092115D01*
X164520710Y-83092105D01*
X164464105Y-82880849D01*
X164464101Y-82880840D01*
X164371668Y-82682615D01*
X164328123Y-82620427D01*
X163822419Y-83126132D01*
X163761096Y-83159617D01*
X163691404Y-83154633D01*
X163635471Y-83112761D01*
X163624256Y-83094751D01*
X163612641Y-83071955D01*
X163612637Y-83071951D01*
X163612636Y-83071949D01*
X163523050Y-82982363D01*
X163523047Y-82982361D01*
X163523045Y-82982359D01*
X163500250Y-82970744D01*
X163449456Y-82922771D01*
X163432661Y-82854950D01*
X163455198Y-82788815D01*
X163468866Y-82772580D01*
X163974572Y-82266874D01*
X163974571Y-82266873D01*
X163912391Y-82223335D01*
X163714159Y-82130898D01*
X163714150Y-82130894D01*
X163502894Y-82074289D01*
X163502884Y-82074287D01*
X163285001Y-82055225D01*
X163284999Y-82055225D01*
X163067115Y-82074287D01*
X163067102Y-82074290D01*
X162991592Y-82094522D01*
X162921742Y-82092859D01*
X162863880Y-82053695D01*
X162836377Y-81989467D01*
X162835500Y-81974747D01*
X162835500Y-75949999D01*
X163821127Y-75949999D01*
X163821128Y-75950000D01*
X164589424Y-75950000D01*
X164656463Y-75969685D01*
X164702218Y-76022489D01*
X164712162Y-76091647D01*
X164711897Y-76093397D01*
X164695014Y-76199996D01*
X164695014Y-76200003D01*
X164711897Y-76306603D01*
X164702942Y-76375896D01*
X164657946Y-76429348D01*
X164591194Y-76449987D01*
X164589424Y-76450000D01*
X163821128Y-76450000D01*
X163873730Y-76646317D01*
X163873734Y-76646326D01*
X163969865Y-76852482D01*
X164100342Y-77038820D01*
X164261179Y-77199657D01*
X164447517Y-77330134D01*
X164653673Y-77426265D01*
X164653682Y-77426269D01*
X164849999Y-77478872D01*
X164850000Y-77478871D01*
X164850000Y-76710575D01*
X164869685Y-76643536D01*
X164922489Y-76597781D01*
X164991647Y-76587837D01*
X164993331Y-76588091D01*
X165025699Y-76593218D01*
X165068515Y-76600000D01*
X165068519Y-76600000D01*
X165131485Y-76600000D01*
X165174300Y-76593218D01*
X165206602Y-76588102D01*
X165275894Y-76597056D01*
X165329347Y-76642052D01*
X165349987Y-76708803D01*
X165350000Y-76710575D01*
X165350000Y-77478872D01*
X165546317Y-77426269D01*
X165546326Y-77426265D01*
X165752482Y-77330134D01*
X165938820Y-77199657D01*
X166099657Y-77038820D01*
X166230134Y-76852482D01*
X166326265Y-76646326D01*
X166326269Y-76646317D01*
X166378872Y-76450000D01*
X165610576Y-76450000D01*
X165543537Y-76430315D01*
X165497782Y-76377511D01*
X165487838Y-76308353D01*
X165488103Y-76306603D01*
X165504986Y-76200003D01*
X165504986Y-76199996D01*
X165488103Y-76093397D01*
X165497058Y-76024104D01*
X165542054Y-75970652D01*
X165608806Y-75950013D01*
X165610576Y-75950000D01*
X166378872Y-75950000D01*
X166378872Y-75949999D01*
X166326269Y-75753682D01*
X166326265Y-75753673D01*
X166230134Y-75547517D01*
X166099657Y-75361179D01*
X165938820Y-75200342D01*
X165752482Y-75069865D01*
X165546328Y-74973734D01*
X165350000Y-74921127D01*
X165350000Y-75689424D01*
X165330315Y-75756463D01*
X165277511Y-75802218D01*
X165208353Y-75812162D01*
X165206602Y-75811897D01*
X165131486Y-75800000D01*
X165131481Y-75800000D01*
X165068519Y-75800000D01*
X165068514Y-75800000D01*
X164993398Y-75811897D01*
X164924104Y-75802942D01*
X164870652Y-75757946D01*
X164850013Y-75691194D01*
X164850000Y-75689424D01*
X164850000Y-74921127D01*
X164653671Y-74973734D01*
X164447517Y-75069865D01*
X164261179Y-75200342D01*
X164100342Y-75361179D01*
X163969865Y-75547517D01*
X163873734Y-75753673D01*
X163873730Y-75753682D01*
X163821127Y-75949999D01*
X162835500Y-75949999D01*
X162835500Y-71657057D01*
X162855185Y-71590018D01*
X162871814Y-71569381D01*
X163665197Y-70775998D01*
X163726519Y-70742514D01*
X163796211Y-70747498D01*
X163852144Y-70789370D01*
X163876561Y-70854834D01*
X163872652Y-70895773D01*
X163814366Y-71113302D01*
X163814364Y-71113313D01*
X163794532Y-71339998D01*
X163794532Y-71340001D01*
X163814364Y-71566686D01*
X163814366Y-71566697D01*
X163873258Y-71786488D01*
X163873261Y-71786497D01*
X163969431Y-71992732D01*
X163969432Y-71992734D01*
X164099954Y-72179141D01*
X164260858Y-72340045D01*
X164260861Y-72340047D01*
X164447266Y-72470568D01*
X164653504Y-72566739D01*
X164873308Y-72625635D01*
X165035230Y-72639801D01*
X165099998Y-72645468D01*
X165100000Y-72645468D01*
X165100001Y-72645468D01*
X165150451Y-72641054D01*
X165304949Y-72627537D01*
X165373449Y-72641304D01*
X165403438Y-72663384D01*
X170693181Y-77953127D01*
X170726666Y-78014450D01*
X170729500Y-78040808D01*
X170729500Y-82346000D01*
X170709815Y-82413039D01*
X170657011Y-82458794D01*
X170605500Y-82470000D01*
X170430000Y-82470000D01*
X170430000Y-83207698D01*
X170410315Y-83274737D01*
X170357511Y-83320492D01*
X170288355Y-83330436D01*
X170215766Y-83320000D01*
X170215763Y-83320000D01*
X170144237Y-83320000D01*
X170144233Y-83320000D01*
X170071644Y-83330436D01*
X170002486Y-83320492D01*
X169949683Y-83274736D01*
X169929999Y-83207698D01*
X169930000Y-82470000D01*
X169282155Y-82470000D01*
X169222627Y-82476401D01*
X169222620Y-82476403D01*
X169087913Y-82526645D01*
X169087906Y-82526649D01*
X168972812Y-82612809D01*
X168972809Y-82612812D01*
X168886649Y-82727906D01*
X168886645Y-82727913D01*
X168836403Y-82862620D01*
X168836401Y-82862627D01*
X168830000Y-82922155D01*
X168830000Y-83570000D01*
X169566653Y-83570000D01*
X169633692Y-83589685D01*
X169679447Y-83642489D01*
X169689391Y-83711647D01*
X169685631Y-83728933D01*
X169680000Y-83748111D01*
X169680000Y-83891888D01*
X169685631Y-83911067D01*
X169685630Y-83980936D01*
X169647855Y-84039714D01*
X169584299Y-84068738D01*
X169566653Y-84070000D01*
X168830000Y-84070000D01*
X168830000Y-84717844D01*
X168836401Y-84777372D01*
X168836403Y-84777379D01*
X168886645Y-84912086D01*
X168886649Y-84912093D01*
X168972809Y-85027187D01*
X168972812Y-85027190D01*
X169087906Y-85113350D01*
X169087913Y-85113354D01*
X169219470Y-85162421D01*
X169275403Y-85204292D01*
X169299821Y-85269756D01*
X169284970Y-85338029D01*
X169263819Y-85366284D01*
X169141503Y-85488600D01*
X169005965Y-85682169D01*
X169005964Y-85682171D01*
X168906098Y-85896335D01*
X168906094Y-85896344D01*
X168844938Y-86124586D01*
X168844936Y-86124596D01*
X168824341Y-86359999D01*
X168824341Y-86360000D01*
X168844936Y-86595403D01*
X168844938Y-86595413D01*
X168906094Y-86823655D01*
X168906096Y-86823659D01*
X168906097Y-86823663D01*
X168972301Y-86965638D01*
X169005965Y-87037830D01*
X169005967Y-87037834D01*
X169101743Y-87174615D01*
X169141505Y-87231401D01*
X169308599Y-87398495D01*
X169399708Y-87462290D01*
X169502165Y-87534032D01*
X169502167Y-87534033D01*
X169502170Y-87534035D01*
X169716337Y-87633903D01*
X169944592Y-87695063D01*
X170132918Y-87711539D01*
X170179999Y-87715659D01*
X170180000Y-87715659D01*
X170180001Y-87715659D01*
X170219234Y-87712226D01*
X170415408Y-87695063D01*
X170643663Y-87633903D01*
X170857830Y-87534035D01*
X171051401Y-87398495D01*
X171218495Y-87231401D01*
X171354035Y-87037830D01*
X171453903Y-86823663D01*
X171515063Y-86595408D01*
X171535659Y-86360000D01*
X171515063Y-86124592D01*
X171495614Y-86052007D01*
X171497277Y-85982162D01*
X171527706Y-85932238D01*
X171779513Y-85680431D01*
X171792079Y-85670365D01*
X171791925Y-85670178D01*
X171797937Y-85665204D01*
X171797937Y-85665203D01*
X171797940Y-85665202D01*
X171847190Y-85612755D01*
X171868911Y-85591035D01*
X171873401Y-85585245D01*
X171877183Y-85580815D01*
X171910448Y-85545393D01*
X171920674Y-85526790D01*
X171931353Y-85510533D01*
X171944362Y-85493764D01*
X171963656Y-85449175D01*
X171966212Y-85443956D01*
X171989627Y-85401368D01*
X171994905Y-85380806D01*
X172001207Y-85362399D01*
X172009635Y-85342927D01*
X172017233Y-85294953D01*
X172018414Y-85289247D01*
X172030500Y-85242177D01*
X172030500Y-85220949D01*
X172032027Y-85201549D01*
X172034495Y-85185965D01*
X172035346Y-85180595D01*
X172030775Y-85132238D01*
X172030500Y-85126400D01*
X172030500Y-77805501D01*
X172032268Y-77789488D01*
X172032026Y-77789466D01*
X172032758Y-77781710D01*
X172032760Y-77781703D01*
X172030500Y-77709796D01*
X172030500Y-77679075D01*
X172029579Y-77671788D01*
X172029122Y-77665979D01*
X172027597Y-77617431D01*
X172021676Y-77597053D01*
X172017731Y-77578004D01*
X172015071Y-77556942D01*
X171997186Y-77511771D01*
X171995298Y-77506254D01*
X171981744Y-77459602D01*
X171981744Y-77459601D01*
X171970939Y-77441332D01*
X171962379Y-77423858D01*
X171961351Y-77421262D01*
X171954568Y-77404129D01*
X171926014Y-77364828D01*
X171922810Y-77359950D01*
X171916738Y-77349683D01*
X171898081Y-77318135D01*
X171883074Y-77303128D01*
X171870435Y-77288330D01*
X171857961Y-77271160D01*
X171820528Y-77240194D01*
X171816206Y-77236260D01*
X166385752Y-71805806D01*
X166352267Y-71744483D01*
X166353658Y-71686032D01*
X166361477Y-71656851D01*
X166385635Y-71566692D01*
X166405468Y-71340000D01*
X166404599Y-71330073D01*
X166393834Y-71207020D01*
X166385635Y-71113308D01*
X166326739Y-70893504D01*
X166230568Y-70687266D01*
X166100047Y-70500861D01*
X166100045Y-70500858D01*
X165939141Y-70339954D01*
X165752734Y-70209432D01*
X165752732Y-70209431D01*
X165546497Y-70113261D01*
X165546488Y-70113258D01*
X165326697Y-70054366D01*
X165326693Y-70054365D01*
X165326692Y-70054365D01*
X165326691Y-70054364D01*
X165326686Y-70054364D01*
X165100002Y-70034532D01*
X165099998Y-70034532D01*
X164873313Y-70054364D01*
X164873302Y-70054366D01*
X164655772Y-70112652D01*
X164585922Y-70110989D01*
X164528060Y-70071826D01*
X164500556Y-70007597D01*
X164512143Y-69938695D01*
X164535994Y-69905200D01*
X165499513Y-68941681D01*
X165512079Y-68931615D01*
X165511925Y-68931428D01*
X165517937Y-68926454D01*
X165517937Y-68926453D01*
X165517940Y-68926452D01*
X165567190Y-68874005D01*
X165588911Y-68852285D01*
X165593401Y-68846495D01*
X165597183Y-68842065D01*
X165630448Y-68806643D01*
X165640674Y-68788040D01*
X165651353Y-68771783D01*
X165664362Y-68755014D01*
X165683663Y-68710409D01*
X165686207Y-68705215D01*
X165709627Y-68662618D01*
X165714906Y-68642057D01*
X165721208Y-68623648D01*
X165729635Y-68604176D01*
X165737232Y-68556206D01*
X165738417Y-68550485D01*
X165750500Y-68503427D01*
X165750500Y-68482199D01*
X165752027Y-68462799D01*
X165755346Y-68441845D01*
X165750775Y-68393488D01*
X165750500Y-68387650D01*
X165750500Y-67236682D01*
X165770185Y-67169643D01*
X165803371Y-67135111D01*
X165939139Y-67040047D01*
X166100047Y-66879139D01*
X166230568Y-66692734D01*
X166326739Y-66486496D01*
X166385635Y-66266692D01*
X166405468Y-66040000D01*
X166404599Y-66030073D01*
X166385635Y-65813313D01*
X166385635Y-65813312D01*
X166385635Y-65813308D01*
X166326739Y-65593504D01*
X166230568Y-65387266D01*
X166100047Y-65200861D01*
X166100045Y-65200858D01*
X165939141Y-65039954D01*
X165752734Y-64909432D01*
X165752732Y-64909431D01*
X165546497Y-64813261D01*
X165546488Y-64813258D01*
X165326697Y-64754366D01*
X165326693Y-64754365D01*
X165326692Y-64754365D01*
X165326691Y-64754364D01*
X165326686Y-64754364D01*
X165100002Y-64734532D01*
X165099998Y-64734532D01*
X164873313Y-64754364D01*
X164873302Y-64754366D01*
X164653511Y-64813258D01*
X164653502Y-64813261D01*
X164447267Y-64909431D01*
X164447265Y-64909432D01*
X164260858Y-65039954D01*
X164099954Y-65200858D01*
X163969432Y-65387265D01*
X163969431Y-65387267D01*
X163873261Y-65593502D01*
X163873258Y-65593511D01*
X163814366Y-65813302D01*
X163814364Y-65813313D01*
X163794532Y-66039998D01*
X163794532Y-66040001D01*
X163814364Y-66266686D01*
X163814366Y-66266697D01*
X163873258Y-66486488D01*
X163873261Y-66486497D01*
X163969431Y-66692732D01*
X163969432Y-66692734D01*
X164099954Y-66879141D01*
X164260855Y-67040042D01*
X164260858Y-67040044D01*
X164260861Y-67040047D01*
X164396626Y-67135109D01*
X164440248Y-67189683D01*
X164449500Y-67236682D01*
X164449500Y-68100441D01*
X164429815Y-68167480D01*
X164413181Y-68188122D01*
X161905573Y-70695727D01*
X161905565Y-70695738D01*
X161785481Y-70815821D01*
X161772910Y-70825893D01*
X161773065Y-70826080D01*
X161767059Y-70831048D01*
X161744723Y-70854834D01*
X161717809Y-70883494D01*
X161706949Y-70894354D01*
X161696088Y-70905215D01*
X161696078Y-70905227D01*
X161691587Y-70911015D01*
X161687801Y-70915447D01*
X161654552Y-70950856D01*
X161644322Y-70969463D01*
X161633646Y-70985714D01*
X161620640Y-71002482D01*
X161620636Y-71002488D01*
X161601348Y-71047061D01*
X161598777Y-71052308D01*
X161575372Y-71094880D01*
X161575372Y-71094881D01*
X161570091Y-71115449D01*
X161563791Y-71133851D01*
X161555364Y-71153323D01*
X161547766Y-71201297D01*
X161546581Y-71207020D01*
X161534500Y-71254068D01*
X161534500Y-71275294D01*
X161532973Y-71294693D01*
X161529653Y-71315655D01*
X151163338Y-71315655D01*
X151153834Y-71207020D01*
X151145635Y-71113308D01*
X151086739Y-70893504D01*
X150990568Y-70687266D01*
X150860047Y-70500861D01*
X150860045Y-70500858D01*
X150699141Y-70339954D01*
X150512734Y-70209432D01*
X150512732Y-70209431D01*
X150306497Y-70113261D01*
X150306488Y-70113258D01*
X150086697Y-70054366D01*
X150086693Y-70054365D01*
X150086692Y-70054365D01*
X150086691Y-70054364D01*
X150086686Y-70054364D01*
X149860002Y-70034532D01*
X149859998Y-70034532D01*
X149633313Y-70054364D01*
X149633302Y-70054366D01*
X149413511Y-70113258D01*
X149413502Y-70113261D01*
X149207267Y-70209431D01*
X149207265Y-70209432D01*
X149020858Y-70339954D01*
X148859954Y-70500858D01*
X148729432Y-70687265D01*
X148729431Y-70687267D01*
X148633261Y-70893502D01*
X148633258Y-70893511D01*
X148574366Y-71113302D01*
X148574364Y-71113312D01*
X148555400Y-71330073D01*
X148529947Y-71395141D01*
X148519553Y-71406946D01*
X147903320Y-72023181D01*
X147841997Y-72056666D01*
X147815639Y-72059500D01*
X146816866Y-72059500D01*
X146749827Y-72039815D01*
X146704072Y-71987011D01*
X146697760Y-71967900D01*
X146697682Y-71967926D01*
X146695674Y-71961746D01*
X146695674Y-71961744D01*
X146674214Y-71895699D01*
X146673291Y-71892585D01*
X146655320Y-71825512D01*
X146648954Y-71813019D01*
X146641508Y-71795042D01*
X146637178Y-71781714D01*
X146637175Y-71781707D01*
X146613670Y-71740998D01*
X146602443Y-71721552D01*
X146600920Y-71718747D01*
X146569383Y-71656851D01*
X146569382Y-71656849D01*
X146560560Y-71645955D01*
X146549538Y-71629918D01*
X146542532Y-71617783D01*
X146542531Y-71617781D01*
X146496060Y-71566170D01*
X146493952Y-71563702D01*
X146480118Y-71546619D01*
X146464577Y-71531078D01*
X146462341Y-71528722D01*
X146415872Y-71477113D01*
X146415871Y-71477112D01*
X146404525Y-71468869D01*
X146389734Y-71456235D01*
X144145680Y-69212181D01*
X144112195Y-69150858D01*
X144117179Y-69081166D01*
X144159051Y-69025233D01*
X144224515Y-69000816D01*
X144233361Y-69000500D01*
X147719373Y-69000500D01*
X147738772Y-69002027D01*
X147752612Y-69004219D01*
X147821959Y-69000584D01*
X147825203Y-69000500D01*
X147847191Y-69000500D01*
X147847192Y-69000500D01*
X147863988Y-68998734D01*
X147869064Y-68998201D01*
X147872284Y-68997947D01*
X147941646Y-68994313D01*
X147955187Y-68990683D01*
X147974313Y-68987138D01*
X147988256Y-68985674D01*
X148054306Y-68964212D01*
X148057368Y-68963304D01*
X148124488Y-68945320D01*
X148136976Y-68938956D01*
X148154950Y-68931510D01*
X148168284Y-68927179D01*
X148228476Y-68892425D01*
X148231222Y-68890934D01*
X148293149Y-68859383D01*
X148304031Y-68850569D01*
X148320083Y-68839537D01*
X148332216Y-68832533D01*
X148383847Y-68786043D01*
X148386260Y-68783982D01*
X148403380Y-68770119D01*
X148418929Y-68754568D01*
X148421270Y-68752347D01*
X148472888Y-68705871D01*
X148481130Y-68694525D01*
X148493760Y-68679737D01*
X149793053Y-67380444D01*
X149854374Y-67346961D01*
X149869914Y-67344600D01*
X150086692Y-67325635D01*
X150306496Y-67266739D01*
X150512734Y-67170568D01*
X150699139Y-67040047D01*
X150860047Y-66879139D01*
X150990568Y-66692734D01*
X151086739Y-66486496D01*
X151145635Y-66266692D01*
X151165468Y-66040000D01*
X151164599Y-66030073D01*
X151145635Y-65813313D01*
X151145635Y-65813312D01*
X151145635Y-65813308D01*
X151086739Y-65593504D01*
X150990568Y-65387266D01*
X150860047Y-65200861D01*
X150860045Y-65200858D01*
X150699141Y-65039954D01*
X150512734Y-64909432D01*
X150512732Y-64909431D01*
X150306497Y-64813261D01*
X150306488Y-64813258D01*
X150086697Y-64754366D01*
X150086693Y-64754365D01*
X150086692Y-64754365D01*
X150086691Y-64754364D01*
X150086686Y-64754364D01*
X149860002Y-64734532D01*
X149859998Y-64734532D01*
X149633313Y-64754364D01*
X149633302Y-64754366D01*
X149413511Y-64813258D01*
X149413502Y-64813261D01*
X149207267Y-64909431D01*
X149207265Y-64909432D01*
X149020858Y-65039954D01*
X148859954Y-65200858D01*
X148729432Y-65387265D01*
X148729431Y-65387267D01*
X148633261Y-65593502D01*
X148633258Y-65593511D01*
X148574366Y-65813302D01*
X148574364Y-65813312D01*
X148555400Y-66030073D01*
X148529947Y-66095141D01*
X148519553Y-66106946D01*
X147463320Y-67163181D01*
X147401997Y-67196666D01*
X147375639Y-67199500D01*
X127560634Y-67199500D01*
X127541234Y-67197973D01*
X127527389Y-67195780D01*
X127458028Y-67199415D01*
X127454785Y-67199500D01*
X127432806Y-67199500D01*
X127410943Y-67201798D01*
X127407708Y-67202052D01*
X127338355Y-67205686D01*
X127324803Y-67209317D01*
X127305691Y-67212859D01*
X127291749Y-67214325D01*
X127291737Y-67214327D01*
X127239485Y-67231305D01*
X127225684Y-67235789D01*
X127222603Y-67236702D01*
X127177073Y-67248902D01*
X127155512Y-67254680D01*
X127143017Y-67261046D01*
X127125056Y-67268485D01*
X127111715Y-67272820D01*
X127111713Y-67272821D01*
X127051583Y-67307536D01*
X127048732Y-67309085D01*
X126986855Y-67340612D01*
X126986850Y-67340616D01*
X126975946Y-67349445D01*
X126959927Y-67360454D01*
X126947788Y-67367463D01*
X126947785Y-67367465D01*
X126896189Y-67413922D01*
X126893725Y-67416027D01*
X126876628Y-67429873D01*
X126876612Y-67429887D01*
X126861055Y-67445444D01*
X126858703Y-67447675D01*
X126807113Y-67494127D01*
X126807105Y-67494136D01*
X126798872Y-67505468D01*
X126786238Y-67520260D01*
X119120263Y-75186236D01*
X119105474Y-75198869D01*
X119094126Y-75207114D01*
X119047666Y-75258713D01*
X119045435Y-75261065D01*
X119029890Y-75276610D01*
X119029875Y-75276627D01*
X119016039Y-75293710D01*
X119013936Y-75296172D01*
X118967469Y-75347781D01*
X118967466Y-75347785D01*
X118960458Y-75359923D01*
X118949444Y-75375948D01*
X118940626Y-75386837D01*
X118940616Y-75386853D01*
X118909082Y-75448740D01*
X118907533Y-75451592D01*
X118872821Y-75511713D01*
X118868487Y-75525053D01*
X118861045Y-75543018D01*
X118858881Y-75547267D01*
X118854680Y-75555512D01*
X118836706Y-75622584D01*
X118835785Y-75625692D01*
X118814326Y-75691742D01*
X118814325Y-75691745D01*
X118812860Y-75705686D01*
X118809315Y-75724812D01*
X118805686Y-75738352D01*
X118802051Y-75807710D01*
X118801797Y-75810941D01*
X118799500Y-75832810D01*
X118799500Y-75854797D01*
X118799415Y-75858042D01*
X118795781Y-75927387D01*
X118797973Y-75941225D01*
X118799500Y-75960626D01*
X118799499Y-84973500D01*
X118779814Y-85040539D01*
X118727010Y-85086294D01*
X118675500Y-85097500D01*
X118570130Y-85097500D01*
X118570123Y-85097501D01*
X118510516Y-85103908D01*
X118375671Y-85154202D01*
X118375664Y-85154206D01*
X118260455Y-85240452D01*
X118260452Y-85240455D01*
X118174206Y-85355664D01*
X118174202Y-85355671D01*
X118123908Y-85490517D01*
X118118010Y-85545380D01*
X118117501Y-85550123D01*
X118117500Y-85550135D01*
X118117500Y-87169870D01*
X114550500Y-87169870D01*
X114550500Y-76867628D01*
X114559369Y-76821576D01*
X116830548Y-71143628D01*
X116857995Y-71102004D01*
X131793181Y-56166819D01*
X131854504Y-56133334D01*
X131880862Y-56130500D01*
X155323155Y-56130500D01*
X155386952Y-56148171D01*
G37*
%TD.AperFunction*%
%TD*%
M02*
